G75*
%MOIN*%
%OFA0B0*%
%FSLAX25Y25*%
%IPPOS*%
%LPD*%
%AMOC8*
5,1,8,0,0,1.08239X$1,22.5*
%
%ADD10C,0.08400*%
%ADD11OC8,0.06000*%
%ADD12R,0.07400X0.07400*%
%ADD13C,0.07400*%
%ADD14C,0.07400*%
%ADD15C,0.13800*%
%ADD16OC8,0.07400*%
%ADD17C,0.08200*%
%ADD18C,0.07296*%
%ADD19R,0.07296X0.07296*%
%ADD20OC8,0.07296*%
%ADD21R,0.15957X0.15957*%
%ADD22C,0.15957*%
%ADD23C,0.06800*%
%ADD24C,0.21800*%
%ADD25C,0.04800*%
%ADD26C,0.03778*%
D10*
X0045665Y0142437D03*
X0055665Y0142437D03*
X0065665Y0142437D03*
X0075665Y0142437D03*
X0085665Y0142437D03*
X0095665Y0142437D03*
X0105665Y0142437D03*
X0115665Y0142437D03*
X0125665Y0142437D03*
X0135665Y0142437D03*
X0145665Y0142437D03*
X0155665Y0142437D03*
X0165665Y0142437D03*
X0175665Y0142437D03*
X0185665Y0142437D03*
X0195665Y0142437D03*
X0205665Y0142437D03*
X0205665Y0202437D03*
X0195665Y0202437D03*
X0185665Y0202437D03*
X0175665Y0202437D03*
X0165665Y0202437D03*
X0155665Y0202437D03*
X0145665Y0202437D03*
X0135665Y0202437D03*
X0125665Y0202437D03*
X0115665Y0202437D03*
X0105665Y0202437D03*
X0095665Y0202437D03*
X0085665Y0202437D03*
X0075665Y0202437D03*
X0065665Y0202437D03*
X0055665Y0202437D03*
X0045665Y0202437D03*
D11*
X0130665Y0259799D03*
X0130665Y0269799D03*
X0130665Y0279799D03*
X0130665Y0289799D03*
X0160665Y0289799D03*
X0160665Y0279799D03*
X0160665Y0269799D03*
X0160665Y0259799D03*
X0218539Y0263736D03*
X0218539Y0253736D03*
X0218539Y0273736D03*
X0218539Y0283736D03*
X0248539Y0283736D03*
X0248539Y0273736D03*
X0248539Y0263736D03*
X0248539Y0253736D03*
X0256295Y0191650D03*
X0256295Y0181965D03*
X0226295Y0181965D03*
X0226295Y0191650D03*
X0190547Y0110114D03*
X0190547Y0100114D03*
X0190547Y0090114D03*
X0190547Y0080114D03*
X0160547Y0080114D03*
X0160547Y0090114D03*
X0160547Y0100114D03*
X0160547Y0110114D03*
X0102673Y0112240D03*
X0102673Y0102240D03*
X0102673Y0092240D03*
X0102673Y0082240D03*
X0072673Y0082240D03*
X0072673Y0092240D03*
X0072673Y0102240D03*
X0072673Y0112240D03*
D12*
X0116610Y0126492D03*
X0267476Y0262673D03*
X0172122Y0316925D03*
D13*
X0172122Y0306925D03*
X0172122Y0296925D03*
X0172122Y0286925D03*
X0172122Y0276925D03*
X0172122Y0266925D03*
X0172122Y0256925D03*
X0172122Y0246925D03*
X0202122Y0246925D03*
X0202122Y0256925D03*
X0202122Y0266925D03*
X0202122Y0276925D03*
X0202122Y0286925D03*
X0202122Y0296925D03*
X0202122Y0306925D03*
X0202122Y0316925D03*
X0267476Y0252673D03*
X0267476Y0242673D03*
X0267476Y0232673D03*
X0267476Y0222673D03*
X0267476Y0212673D03*
X0267476Y0202673D03*
X0297476Y0202673D03*
X0297476Y0212673D03*
X0297476Y0222673D03*
X0297476Y0232673D03*
X0297476Y0242673D03*
X0297476Y0252673D03*
X0297476Y0262673D03*
X0358185Y0308146D03*
X0368185Y0308146D03*
X0378185Y0308146D03*
X0146610Y0126492D03*
X0146610Y0116492D03*
X0146610Y0106492D03*
X0146610Y0096492D03*
X0146610Y0086492D03*
X0146610Y0076492D03*
X0146610Y0066492D03*
X0146610Y0056492D03*
X0116610Y0056492D03*
X0116610Y0066492D03*
X0116610Y0076492D03*
X0116610Y0086492D03*
X0116610Y0096492D03*
X0116610Y0106492D03*
X0116610Y0116492D03*
D14*
X0325476Y0139681D02*
X0332076Y0139681D01*
X0332076Y0149681D02*
X0325476Y0149681D01*
X0325476Y0159681D02*
X0332076Y0159681D01*
D15*
X0269776Y0149681D03*
D16*
X0360587Y0158618D03*
X0360587Y0168618D03*
X0394681Y0138854D03*
X0404681Y0138854D03*
X0360587Y0136807D03*
X0360587Y0126807D03*
X0298382Y0071925D03*
X0288382Y0071925D03*
X0071138Y0058894D03*
X0061138Y0058894D03*
X0143185Y0306925D03*
X0153185Y0306925D03*
X0218303Y0310862D03*
X0228303Y0310862D03*
X0403972Y0279366D03*
X0413972Y0279366D03*
D17*
X0328539Y0293185D03*
X0318539Y0293185D03*
X0317280Y0310980D03*
X0327280Y0310980D03*
D18*
X0329878Y0255035D03*
X0329878Y0245035D03*
X0329878Y0235035D03*
X0329878Y0225035D03*
X0329878Y0215035D03*
X0329878Y0205035D03*
X0379878Y0215035D03*
X0379878Y0225035D03*
X0379878Y0245035D03*
X0379878Y0255035D03*
X0253894Y0109366D03*
X0253894Y0099366D03*
X0253894Y0079366D03*
X0253894Y0069366D03*
X0203894Y0069366D03*
X0203894Y0059366D03*
X0203894Y0079366D03*
X0203894Y0089366D03*
X0203894Y0099366D03*
X0203894Y0109366D03*
X0066098Y0256217D03*
X0066098Y0266217D03*
X0066098Y0276217D03*
X0066098Y0286217D03*
X0066098Y0296217D03*
X0066098Y0306217D03*
X0116098Y0306217D03*
X0116098Y0296217D03*
X0116098Y0276217D03*
X0116098Y0266217D03*
D19*
X0116098Y0246217D03*
X0066098Y0246217D03*
X0066098Y0316217D03*
X0329878Y0265035D03*
X0329878Y0195035D03*
X0379878Y0195035D03*
X0203894Y0119366D03*
X0203894Y0049366D03*
X0253894Y0049366D03*
D20*
X0253894Y0059366D03*
X0253894Y0089366D03*
X0253894Y0119366D03*
X0379878Y0205035D03*
X0379878Y0235035D03*
X0379878Y0265035D03*
X0116098Y0256217D03*
X0116098Y0286217D03*
X0116098Y0316217D03*
D21*
X0349681Y0066020D03*
D22*
X0367004Y0067594D03*
D23*
X0397555Y0076799D02*
X0397555Y0082799D01*
X0407555Y0082799D02*
X0407555Y0076799D01*
X0417555Y0076799D02*
X0417555Y0082799D01*
X0416492Y0104358D02*
X0416492Y0110358D01*
X0406492Y0110358D02*
X0406492Y0104358D01*
X0322004Y0055240D02*
X0322004Y0049240D01*
X0312004Y0049240D02*
X0312004Y0055240D01*
X0291571Y0055240D02*
X0291571Y0049240D01*
X0281571Y0049240D02*
X0281571Y0055240D01*
X0271571Y0055240D02*
X0271571Y0049240D01*
X0051413Y0104358D02*
X0051413Y0110358D01*
X0041413Y0110358D02*
X0041413Y0104358D01*
X0031413Y0104358D02*
X0031413Y0110358D01*
X0032476Y0082799D02*
X0032476Y0076799D01*
X0042476Y0076799D02*
X0042476Y0082799D01*
X0043028Y0222469D02*
X0043028Y0228469D01*
X0053028Y0228469D02*
X0053028Y0222469D01*
X0063028Y0222469D02*
X0063028Y0228469D01*
X0073028Y0228469D02*
X0073028Y0222469D01*
X0083028Y0222469D02*
X0083028Y0228469D01*
X0093028Y0228469D02*
X0093028Y0222469D01*
X0103028Y0222469D02*
X0103028Y0228469D01*
X0113028Y0228469D02*
X0113028Y0222469D01*
X0123028Y0222469D02*
X0123028Y0228469D01*
X0133028Y0228469D02*
X0133028Y0222469D01*
X0143028Y0222469D02*
X0143028Y0228469D01*
X0153028Y0228469D02*
X0153028Y0222469D01*
X0163028Y0222469D02*
X0163028Y0228469D01*
X0173028Y0228469D02*
X0173028Y0222469D01*
X0183028Y0222469D02*
X0183028Y0228469D01*
X0193028Y0228469D02*
X0193028Y0222469D01*
X0203028Y0222469D02*
X0203028Y0228469D01*
X0213028Y0228469D02*
X0213028Y0222469D01*
X0223028Y0222469D02*
X0223028Y0228469D01*
X0244012Y0305146D02*
X0244012Y0311146D01*
X0254012Y0311146D02*
X0254012Y0305146D01*
X0264012Y0305146D02*
X0264012Y0311146D01*
X0280508Y0311146D02*
X0280508Y0305146D01*
X0290508Y0305146D02*
X0290508Y0311146D01*
X0397555Y0256028D02*
X0397555Y0250028D01*
X0407555Y0250028D02*
X0407555Y0256028D01*
X0417555Y0256028D02*
X0417555Y0250028D01*
X0416492Y0224531D02*
X0416492Y0218531D01*
X0406492Y0218531D02*
X0406492Y0224531D01*
X0051413Y0265776D02*
X0051413Y0271776D01*
X0041413Y0271776D02*
X0041413Y0265776D01*
X0031413Y0265776D02*
X0031413Y0271776D01*
X0032476Y0244217D02*
X0032476Y0238217D01*
X0042476Y0238217D02*
X0042476Y0244217D01*
X0033028Y0228469D02*
X0033028Y0222469D01*
D24*
X0037476Y0052240D03*
X0037476Y0308146D03*
X0411492Y0308146D03*
X0411492Y0052240D03*
D25*
X0356528Y0088692D03*
X0386228Y0097692D03*
X0403328Y0145392D03*
X0340328Y0155292D03*
X0289028Y0193092D03*
X0262028Y0180492D03*
X0234128Y0175992D03*
X0230528Y0166092D03*
X0219728Y0182292D03*
X0208928Y0187692D03*
X0203528Y0177792D03*
X0199028Y0170592D03*
X0195428Y0185892D03*
X0181028Y0177792D03*
X0159428Y0158892D03*
X0149528Y0153492D03*
X0106328Y0162492D03*
X0088328Y0180492D03*
X0062228Y0158892D03*
X0049628Y0151692D03*
X0036128Y0151692D03*
X0039728Y0162492D03*
X0039728Y0167892D03*
X0032528Y0188592D03*
X0044228Y0195792D03*
X0030728Y0212892D03*
X0082028Y0238992D03*
X0093728Y0255192D03*
X0143228Y0255192D03*
X0152228Y0237192D03*
X0156728Y0233592D03*
X0165728Y0246192D03*
X0197228Y0261492D03*
X0228728Y0239892D03*
X0235928Y0231792D03*
X0234128Y0226392D03*
X0253028Y0230892D03*
X0256628Y0234492D03*
X0277328Y0235392D03*
X0282728Y0220992D03*
X0307028Y0239892D03*
X0316028Y0223692D03*
X0335828Y0208392D03*
X0273728Y0251592D03*
X0254828Y0253392D03*
X0254828Y0258792D03*
X0280028Y0271392D03*
X0272828Y0288492D03*
X0238628Y0283992D03*
X0213428Y0301992D03*
X0209828Y0292992D03*
X0153128Y0282192D03*
X0147728Y0218292D03*
X0155828Y0215592D03*
X0162128Y0208392D03*
X0141428Y0189492D03*
X0124328Y0193092D03*
X0058628Y0135492D03*
X0065828Y0121992D03*
X0030728Y0139092D03*
X0050528Y0088692D03*
X0129728Y0116592D03*
X0183728Y0110292D03*
X0193628Y0114792D03*
X0193628Y0128292D03*
X0217028Y0137292D03*
X0218828Y0142692D03*
X0214328Y0153492D03*
X0235028Y0128292D03*
X0230528Y0118392D03*
X0221528Y0114792D03*
X0220628Y0124692D03*
X0246728Y0089592D03*
X0260228Y0088692D03*
X0275528Y0121092D03*
X0280928Y0131892D03*
X0186428Y0069792D03*
X0216128Y0207492D03*
X0248528Y0211092D03*
X0301628Y0257892D03*
X0312428Y0259692D03*
X0323228Y0274992D03*
X0386228Y0287592D03*
X0411428Y0199392D03*
D26*
X0391807Y0233343D03*
X0356374Y0237280D03*
X0356374Y0209720D03*
X0332752Y0182161D03*
X0309130Y0186098D03*
X0309130Y0158539D03*
X0273697Y0162476D03*
X0269760Y0186098D03*
X0245635Y0159043D03*
X0191020Y0245154D03*
X0187083Y0268776D03*
X0187083Y0276650D03*
X0179209Y0279403D03*
X0183146Y0292398D03*
X0057161Y0280587D03*
X0057161Y0253028D03*
X0096531Y0107358D03*
X0092594Y0075862D03*
X0096531Y0058903D03*
X0234327Y0048303D03*
X0242201Y0051703D03*
X0261886Y0056177D03*
X0407555Y0272713D03*
X0340626Y0296335D03*
M02*
