%
M48
M72
T01C0.01378
T02C0.02400
T03C0.03200
T04C0.03543
T05C0.04000
T06C0.04331
T07C0.04400
T08C0.11024
T09C0.13000
%
T01
X96531Y58903
X92594Y75862
X96531Y107358
X234327Y48303
X242201Y51703
X261886Y56177
X245635Y159043
X273697Y162476
X269760Y186098
X309130Y186098
X332752Y182161
X309130Y158539
X356374Y209720
X356374Y237280
X391807Y233343
X407555Y272713
X340626Y296335
X191020Y245154
X187083Y268776
X187083Y276650
X179209Y279403
X183146Y292398
X57161Y280587
X57161Y253028
T02
X82028Y238992
X93728Y255192
X143228Y255192
X152228Y237192
X156728Y233592
X165728Y246192
X197228Y261492
X228728Y239892
X235928Y231792
X234128Y226392
X253028Y230892
X256628Y234492
X277328Y235392
X282728Y220992
X307028Y239892
X316028Y223692
X335828Y208392
X289028Y193092
X262028Y180492
X234128Y175992
X230528Y166092
X219728Y182292
X208928Y187692
X203528Y177792
X199028Y170592
X195428Y185892
X181028Y177792
X159428Y158892
X149528Y153492
X106328Y162492
X88328Y180492
X62228Y158892
X49628Y151692
X36128Y151692
X39728Y162492
X39728Y167892
X32528Y188592
X44228Y195792
X30728Y212892
X124328Y193092
X141428Y189492
X162128Y208392
X155828Y215592
X147728Y218292
X216128Y207492
X248528Y211092
X254828Y253392
X254828Y258792
X273728Y251592
X280028Y271392
X272828Y288492
X238628Y283992
X213428Y301992
X209828Y292992
X153128Y282192
X301628Y257892
X312428Y259692
X323228Y274992
X386228Y287592
X411428Y199392
X403328Y145392
X340328Y155292
X280928Y131892
X275528Y121092
X235028Y128292
X230528Y118392
X221528Y114792
X220628Y124692
X217028Y137292
X218828Y142692
X214328Y153492
X193628Y128292
X193628Y114792
X183728Y110292
X186428Y69792
X246728Y89592
X260228Y88692
X356528Y88692
X386228Y97692
X129728Y116592
X65828Y121992
X58628Y135492
X30728Y139092
X50528Y88692
T03
X72673Y92240
X72673Y82240
X72673Y102240
X72673Y112240
X102673Y112240
X102673Y102240
X102673Y92240
X102673Y82240
X71138Y58894
X61138Y58894
X160547Y80114
X160547Y90114
X160547Y100114
X160547Y110114
X190547Y110114
X190547Y100114
X190547Y90114
X190547Y80114
X288382Y71925
X298382Y71925
X360587Y126807
X360587Y136807
X360587Y158618
X360587Y168618
X394681Y138854
X404681Y138854
X256295Y181965
X256295Y191650
X226295Y191650
X226295Y181965
X218539Y253736
X218539Y263736
X218539Y273736
X218539Y283736
X248539Y283736
X248539Y273736
X248539Y263736
X248539Y253736
X228303Y310862
X218303Y310862
X160665Y289799
X160665Y279799
X160665Y269799
X160665Y259799
X130665Y259799
X130665Y269799
X130665Y279799
X130665Y289799
X143185Y306925
X153185Y306925
X403972Y279366
X413972Y279366
T04
X378185Y308146
X368185Y308146
X358185Y308146
T05
X327280Y310980
X317280Y310980
X318539Y293185
X328539Y293185
X290508Y308146
X280508Y308146
X264012Y308146
X254012Y308146
X244012Y308146
X223028Y225469
X213028Y225469
X203028Y225469
X193028Y225469
X183028Y225469
X173028Y225469
X163028Y225469
X153028Y225469
X143028Y225469
X133028Y225469
X123028Y225469
X113028Y225469
X103028Y225469
X93028Y225469
X83028Y225469
X73028Y225469
X63028Y225469
X53028Y225469
X43028Y225469
X33028Y225469
X32476Y241217
X42476Y241217
X41413Y268776
X31413Y268776
X51413Y268776
X51413Y107358
X41413Y107358
X31413Y107358
X32476Y79799
X42476Y79799
X271571Y52240
X281571Y52240
X291571Y52240
X312004Y52240
X322004Y52240
X397555Y79799
X407555Y79799
X417555Y79799
X416492Y107358
X406492Y107358
X406492Y221531
X416492Y221531
X417555Y253028
X407555Y253028
X397555Y253028
T06
X379878Y255035
X379878Y245035
X379878Y235035
X379878Y225035
X379878Y215035
X379878Y205035
X379878Y195035
X329878Y195035
X329878Y205035
X329878Y215035
X329878Y225035
X329878Y235035
X329878Y245035
X329878Y255035
X329878Y265035
X379878Y265035
X205665Y202437
X195665Y202437
X185665Y202437
X175665Y202437
X165665Y202437
X155665Y202437
X145665Y202437
X135665Y202437
X125665Y202437
X115665Y202437
X105665Y202437
X95665Y202437
X85665Y202437
X75665Y202437
X65665Y202437
X55665Y202437
X45665Y202437
X66098Y246217
X66098Y256217
X66098Y266217
X66098Y276217
X66098Y286217
X66098Y296217
X66098Y306217
X66098Y316217
X116098Y316217
X116098Y306217
X116098Y296217
X116098Y286217
X116098Y276217
X116098Y266217
X116098Y256217
X116098Y246217
X115665Y142437
X105665Y142437
X95665Y142437
X85665Y142437
X75665Y142437
X65665Y142437
X55665Y142437
X45665Y142437
X125665Y142437
X135665Y142437
X145665Y142437
X155665Y142437
X165665Y142437
X175665Y142437
X185665Y142437
X195665Y142437
X205665Y142437
X203894Y119366
X203894Y109366
X203894Y99366
X203894Y89366
X203894Y79366
X203894Y69366
X203894Y59366
X203894Y49366
X253894Y49366
X253894Y59366
X253894Y69366
X253894Y79366
X253894Y89366
X253894Y99366
X253894Y109366
X253894Y119366
T07
X328776Y139681
X328776Y149681
X328776Y159681
X297476Y202673
X297476Y212673
X297476Y222673
X297476Y232673
X297476Y242673
X297476Y252673
X297476Y262673
X267476Y262673
X267476Y252673
X267476Y242673
X267476Y232673
X267476Y222673
X267476Y212673
X267476Y202673
X202122Y246925
X202122Y256925
X202122Y266925
X202122Y276925
X202122Y286925
X202122Y296925
X202122Y306925
X202122Y316925
X172122Y316925
X172122Y306925
X172122Y296925
X172122Y286925
X172122Y276925
X172122Y266925
X172122Y256925
X172122Y246925
X146610Y126492
X146610Y116492
X146610Y106492
X146610Y96492
X146610Y86492
X146610Y76492
X146610Y66492
X146610Y56492
X116610Y56492
X116610Y66492
X116610Y76492
X116610Y86492
X116610Y96492
X116610Y106492
X116610Y116492
X116610Y126492
T08
X37476Y52240
X349681Y66020
X367004Y67594
X411492Y52240
X411492Y308146
X37476Y308146
T09
X269776Y149681
M30
