G75*
%MOIN*%
%OFA0B0*%
%FSLAX25Y25*%
%IPPOS*%
%LPD*%
%AMOC8*
5,1,8,0,0,1.08239X$1,22.5*
%
%ADD10C,0.01000*%
%ADD11C,0.00512*%
%ADD12C,0.00600*%
%ADD13C,0.07600*%
%ADD14OC8,0.05200*%
%ADD15R,0.06600X0.06600*%
%ADD16C,0.06600*%
%ADD17C,0.06600*%
%ADD18C,0.00000*%
%ADD19OC8,0.06600*%
%ADD20C,0.07400*%
%ADD21C,0.06496*%
%ADD22R,0.06496X0.06496*%
%ADD23OC8,0.06496*%
%ADD24R,0.15157X0.15157*%
%ADD25C,0.15157*%
%ADD26C,0.06000*%
%ADD27C,0.21000*%
%ADD28C,0.04000*%
%ADD29C,0.01600*%
%ADD30C,0.02978*%
D10*
X0021728Y0036492D02*
X0427240Y0036492D01*
X0427240Y0327831D01*
X0021728Y0327831D01*
X0021728Y0036492D01*
X0034328Y0072492D02*
X0064028Y0042792D01*
X0291728Y0042792D01*
X0308828Y0059892D01*
X0322328Y0059892D01*
X0399728Y0137292D01*
X0399728Y0141792D01*
X0403328Y0145392D01*
X0395228Y0139092D02*
X0394681Y0138854D01*
X0395228Y0139092D02*
X0395228Y0183192D01*
X0411428Y0199392D01*
X0407828Y0198492D02*
X0407828Y0202992D01*
X0422228Y0217392D01*
X0422228Y0264192D01*
X0408728Y0277692D01*
X0408728Y0281292D01*
X0406028Y0283992D01*
X0319628Y0283992D01*
X0318728Y0283092D01*
X0254828Y0283092D01*
X0249428Y0288492D01*
X0233228Y0288492D01*
X0218828Y0274092D01*
X0218539Y0273736D01*
X0217928Y0273192D01*
X0208028Y0273192D01*
X0202628Y0267792D01*
X0202122Y0266925D01*
X0197228Y0261492D02*
X0197228Y0278592D01*
X0200828Y0282192D01*
X0207128Y0282192D01*
X0217028Y0292092D01*
X0273728Y0292092D01*
X0285428Y0303792D01*
X0285428Y0312792D01*
X0282728Y0315492D01*
X0278228Y0315492D01*
X0271028Y0308292D01*
X0264728Y0308292D01*
X0264012Y0308146D01*
X0265628Y0300192D02*
X0232328Y0300192D01*
X0223328Y0309192D01*
X0223328Y0312792D01*
X0220628Y0315492D01*
X0208028Y0315492D01*
X0204428Y0311892D01*
X0127028Y0311892D01*
X0123496Y0315425D01*
X0118028Y0320892D01*
X0113528Y0320892D01*
X0071228Y0278592D01*
X0071228Y0271392D01*
X0066728Y0266892D01*
X0066098Y0266217D01*
X0064928Y0261492D02*
X0068528Y0261492D01*
X0110828Y0303792D01*
X0110828Y0310992D01*
X0115328Y0315492D01*
X0116098Y0316217D01*
X0112628Y0322692D02*
X0166628Y0322692D01*
X0172028Y0317292D01*
X0172122Y0316925D01*
X0172928Y0317292D01*
X0201728Y0317292D01*
X0202122Y0316925D01*
X0202122Y0306925D02*
X0202628Y0306492D01*
X0214328Y0306492D01*
X0217028Y0303792D01*
X0217028Y0300192D01*
X0209828Y0292992D01*
X0211628Y0289392D02*
X0206228Y0289392D01*
X0203528Y0292092D01*
X0197228Y0292092D01*
X0172928Y0267792D01*
X0172122Y0266925D01*
X0172028Y0267792D01*
X0170228Y0269592D01*
X0161228Y0269592D01*
X0160665Y0269799D01*
X0172122Y0276925D02*
X0172028Y0277692D01*
X0170228Y0279492D01*
X0161228Y0279492D01*
X0160665Y0279799D01*
X0160328Y0280392D01*
X0143228Y0297492D01*
X0143228Y0306492D01*
X0143185Y0306925D01*
X0129728Y0305592D02*
X0153128Y0282192D01*
X0160665Y0289799D02*
X0161228Y0289392D01*
X0170228Y0289392D01*
X0172028Y0287592D01*
X0172122Y0286925D01*
X0172928Y0287592D01*
X0187328Y0301992D01*
X0213428Y0301992D01*
X0218828Y0296592D02*
X0211628Y0289392D01*
X0210728Y0283092D02*
X0205328Y0277692D01*
X0202628Y0277692D01*
X0202122Y0276925D01*
X0210728Y0283092D02*
X0217928Y0283092D01*
X0218539Y0283736D01*
X0218828Y0283992D01*
X0225128Y0290292D01*
X0250328Y0290292D01*
X0255728Y0284892D01*
X0317828Y0284892D01*
X0325928Y0292992D01*
X0327728Y0292992D01*
X0328539Y0293185D01*
X0330428Y0298392D02*
X0282728Y0298392D01*
X0272828Y0288492D01*
X0265628Y0300192D02*
X0272828Y0307392D01*
X0280028Y0307392D01*
X0280508Y0308146D01*
X0317280Y0310980D02*
X0328068Y0300192D01*
X0331174Y0300192D01*
X0335031Y0296335D01*
X0340626Y0296335D01*
X0341228Y0287592D02*
X0330428Y0298392D01*
X0341228Y0287592D02*
X0386228Y0287592D01*
X0369128Y0274992D02*
X0379028Y0265092D01*
X0379878Y0265035D01*
X0379028Y0255192D02*
X0379878Y0255035D01*
X0379028Y0255192D02*
X0336728Y0255192D01*
X0332228Y0259692D01*
X0312428Y0259692D01*
X0311528Y0255192D02*
X0329528Y0255192D01*
X0329878Y0255035D01*
X0335828Y0244392D02*
X0331328Y0239892D01*
X0307028Y0239892D01*
X0299828Y0247992D02*
X0296228Y0247992D01*
X0282728Y0234492D01*
X0282728Y0220992D01*
X0280928Y0225492D02*
X0268328Y0212892D01*
X0267476Y0212673D01*
X0262028Y0224592D02*
X0264728Y0227292D01*
X0269228Y0227292D01*
X0277328Y0235392D01*
X0280928Y0243492D02*
X0280928Y0225492D01*
X0280928Y0212892D02*
X0297128Y0229092D01*
X0297128Y0231792D01*
X0297476Y0232673D01*
X0297476Y0222673D02*
X0297128Y0221892D01*
X0285428Y0210192D01*
X0285428Y0125592D01*
X0269228Y0109392D01*
X0253928Y0109392D01*
X0253894Y0109366D01*
X0252128Y0114792D02*
X0256628Y0114792D01*
X0259328Y0117492D01*
X0259328Y0121092D01*
X0226928Y0153492D01*
X0214328Y0153492D01*
X0210728Y0151692D02*
X0212528Y0149892D01*
X0217028Y0149892D01*
X0222428Y0144492D01*
X0222428Y0137292D01*
X0217028Y0131892D01*
X0173828Y0131892D01*
X0153128Y0111192D01*
X0144128Y0111192D01*
X0119828Y0086892D01*
X0117128Y0086892D01*
X0116610Y0086492D01*
X0116228Y0086892D01*
X0102728Y0100392D01*
X0102728Y0102192D01*
X0102673Y0102240D01*
X0096531Y0107358D02*
X0092594Y0103421D01*
X0092594Y0075862D01*
X0102728Y0081492D02*
X0102673Y0082240D01*
X0102728Y0081492D02*
X0117128Y0067092D01*
X0116610Y0066492D01*
X0118928Y0061692D02*
X0141428Y0084192D01*
X0141428Y0098592D01*
X0144128Y0101292D01*
X0148628Y0101292D01*
X0155828Y0108492D01*
X0155828Y0111192D01*
X0169328Y0124692D01*
X0198128Y0124692D01*
X0201728Y0128292D01*
X0235028Y0128292D01*
X0236828Y0131892D02*
X0219728Y0131892D01*
X0217928Y0130092D01*
X0195428Y0130092D01*
X0193628Y0128292D01*
X0199028Y0122892D02*
X0200828Y0124692D01*
X0220628Y0124692D01*
X0213428Y0133692D02*
X0217028Y0137292D01*
X0213428Y0133692D02*
X0172928Y0133692D01*
X0160328Y0121092D01*
X0144128Y0121092D01*
X0119828Y0096792D01*
X0117128Y0096792D01*
X0116610Y0096492D01*
X0116228Y0096792D01*
X0102728Y0110292D01*
X0102728Y0112092D01*
X0102673Y0112240D01*
X0100928Y0116592D02*
X0097328Y0112992D01*
X0073028Y0112992D01*
X0072673Y0112240D01*
X0073028Y0112092D01*
X0073028Y0103092D01*
X0072673Y0102240D01*
X0073028Y0102192D01*
X0073028Y0092292D01*
X0072673Y0092240D01*
X0072128Y0092292D01*
X0046028Y0092292D01*
X0031628Y0106692D01*
X0031413Y0107358D01*
X0046028Y0103092D02*
X0046028Y0129192D01*
X0028928Y0146292D01*
X0028928Y0201192D01*
X0052328Y0224592D01*
X0053028Y0225469D01*
X0053228Y0225492D01*
X0068528Y0240792D01*
X0073928Y0240792D01*
X0091928Y0258792D01*
X0113528Y0258792D01*
X0115328Y0256992D01*
X0116098Y0256217D01*
X0120728Y0264192D02*
X0129728Y0255192D01*
X0143228Y0255192D01*
X0166628Y0255192D01*
X0170228Y0251592D01*
X0208028Y0251592D01*
X0216128Y0259692D01*
X0235928Y0259692D01*
X0245828Y0269592D01*
X0278228Y0269592D01*
X0280028Y0271392D01*
X0292628Y0278592D02*
X0271928Y0257892D01*
X0261128Y0257892D01*
X0256628Y0262392D01*
X0253028Y0262392D01*
X0248528Y0257892D01*
X0239528Y0257892D01*
X0235928Y0254292D01*
X0218828Y0254292D01*
X0218539Y0253736D01*
X0214328Y0252492D02*
X0214328Y0255192D01*
X0217028Y0257892D01*
X0236828Y0257892D01*
X0246728Y0267792D01*
X0262928Y0267792D01*
X0267428Y0263292D01*
X0267476Y0262673D01*
X0267428Y0253392D02*
X0254828Y0253392D01*
X0249428Y0253392D02*
X0248539Y0253736D01*
X0249428Y0253392D02*
X0254828Y0258792D01*
X0249428Y0253392D02*
X0254828Y0247992D01*
X0260228Y0247992D01*
X0260228Y0229992D01*
X0256628Y0226392D01*
X0256628Y0192192D01*
X0256295Y0191650D01*
X0256628Y0191292D01*
X0256628Y0182292D01*
X0256295Y0181965D01*
X0252128Y0185892D02*
X0252128Y0224592D01*
X0256628Y0229092D01*
X0256628Y0234492D01*
X0251228Y0239892D01*
X0228728Y0239892D01*
X0224228Y0233592D02*
X0191828Y0233592D01*
X0187328Y0229092D01*
X0187328Y0220092D01*
X0175628Y0208392D01*
X0171128Y0208392D01*
X0165728Y0202992D01*
X0165665Y0202437D01*
X0166628Y0208392D02*
X0162128Y0208392D01*
X0166628Y0208392D02*
X0182828Y0224592D01*
X0183028Y0225469D01*
X0173028Y0225469D02*
X0172928Y0224592D01*
X0156728Y0208392D01*
X0061328Y0208392D01*
X0055928Y0202992D01*
X0055665Y0202437D01*
X0065665Y0202437D02*
X0065828Y0202092D01*
X0068528Y0202092D01*
X0081128Y0189492D01*
X0141428Y0189492D01*
X0143228Y0185892D02*
X0154928Y0197592D01*
X0154928Y0202092D01*
X0155665Y0202437D01*
X0155828Y0210192D02*
X0046028Y0210192D01*
X0039728Y0203892D01*
X0039728Y0167892D01*
X0044228Y0166992D02*
X0039728Y0162492D01*
X0044228Y0166992D02*
X0044228Y0195792D01*
X0036128Y0202992D02*
X0036128Y0151692D01*
X0037928Y0148092D02*
X0075728Y0185892D01*
X0143228Y0185892D01*
X0154028Y0180492D02*
X0175628Y0202092D01*
X0175665Y0202437D01*
X0190028Y0194892D02*
X0207128Y0194892D01*
X0219728Y0182292D01*
X0221528Y0178692D02*
X0210728Y0178692D01*
X0198128Y0191292D01*
X0192728Y0191292D01*
X0184628Y0183192D01*
X0184628Y0175992D01*
X0156728Y0148092D01*
X0121628Y0148092D01*
X0116228Y0142692D01*
X0115665Y0142437D01*
X0122528Y0131892D02*
X0085628Y0131892D01*
X0053228Y0099492D01*
X0049628Y0099492D01*
X0046028Y0103092D01*
X0050528Y0107592D02*
X0051413Y0107358D01*
X0050528Y0107592D02*
X0050528Y0127392D01*
X0037928Y0139992D01*
X0037928Y0148092D01*
X0039728Y0147192D02*
X0069428Y0176892D01*
X0172028Y0176892D01*
X0190028Y0194892D01*
X0190928Y0193092D02*
X0203528Y0193092D01*
X0208928Y0187692D01*
X0209828Y0176892D02*
X0197228Y0189492D01*
X0193628Y0189492D01*
X0186428Y0182292D01*
X0186428Y0163392D01*
X0165728Y0142692D01*
X0165665Y0142437D01*
X0155828Y0149892D02*
X0063128Y0149892D01*
X0055928Y0142692D01*
X0055665Y0142437D01*
X0058628Y0135492D02*
X0045128Y0135492D01*
X0039728Y0140892D01*
X0039728Y0147192D01*
X0030728Y0141792D02*
X0030728Y0139092D01*
X0030728Y0141792D02*
X0027128Y0145392D01*
X0027128Y0203892D01*
X0042428Y0219192D01*
X0042428Y0224592D01*
X0043028Y0225469D01*
X0043328Y0225492D01*
X0043328Y0232692D01*
X0061328Y0250692D01*
X0061328Y0257892D01*
X0064928Y0261492D01*
X0066728Y0256992D02*
X0066098Y0256217D01*
X0066728Y0256992D02*
X0081128Y0271392D01*
X0118028Y0271392D01*
X0120728Y0268692D01*
X0120728Y0264192D01*
X0116228Y0265992D02*
X0116098Y0266217D01*
X0116228Y0265992D02*
X0141428Y0240792D01*
X0168428Y0240792D01*
X0173828Y0235392D01*
X0248528Y0235392D01*
X0253028Y0230892D01*
X0262028Y0224592D02*
X0262028Y0180492D01*
X0269760Y0186098D02*
X0269760Y0166413D01*
X0273697Y0162476D01*
X0271902Y0160681D01*
X0265219Y0160681D01*
X0263581Y0159043D01*
X0245635Y0159043D01*
X0236828Y0170592D02*
X0252128Y0185892D01*
X0248528Y0184992D02*
X0248528Y0211092D01*
X0234128Y0226392D02*
X0234128Y0175992D01*
X0235928Y0172392D02*
X0248528Y0184992D01*
X0235928Y0172392D02*
X0225128Y0172392D01*
X0208928Y0156192D01*
X0208928Y0150792D01*
X0211628Y0148092D01*
X0211628Y0140892D01*
X0208028Y0137292D01*
X0153128Y0137292D01*
X0148628Y0141792D01*
X0145928Y0141792D01*
X0145665Y0142437D01*
X0148628Y0135492D02*
X0209828Y0135492D01*
X0217028Y0142692D01*
X0218828Y0142692D01*
X0210728Y0151692D02*
X0210728Y0155292D01*
X0226028Y0170592D01*
X0236828Y0170592D01*
X0230528Y0166092D02*
X0275528Y0121092D01*
X0280928Y0131892D02*
X0280928Y0212892D01*
X0289028Y0203892D02*
X0297128Y0211992D01*
X0297476Y0212673D01*
X0298028Y0212892D01*
X0305228Y0220092D01*
X0332228Y0220092D01*
X0336728Y0224592D01*
X0379028Y0224592D01*
X0379878Y0225035D01*
X0382628Y0220992D02*
X0381728Y0220092D01*
X0334928Y0220092D01*
X0330428Y0215592D01*
X0329878Y0215035D01*
X0332228Y0210192D02*
X0336728Y0214692D01*
X0379028Y0214692D01*
X0379878Y0215035D01*
X0382628Y0220992D02*
X0406028Y0220992D01*
X0406492Y0221531D01*
X0407828Y0229992D02*
X0415928Y0221892D01*
X0416492Y0221531D01*
X0407828Y0229992D02*
X0334928Y0229992D01*
X0330428Y0225492D01*
X0329878Y0225035D01*
X0329528Y0234492D02*
X0329878Y0235035D01*
X0329528Y0234492D02*
X0318728Y0223692D01*
X0316028Y0223692D01*
X0305228Y0210192D02*
X0298028Y0202992D01*
X0297476Y0202673D01*
X0289028Y0203892D02*
X0289028Y0193092D01*
X0309130Y0186098D02*
X0309130Y0158539D01*
X0320528Y0157992D02*
X0320528Y0176892D01*
X0335828Y0192192D01*
X0335828Y0208392D01*
X0332228Y0210192D02*
X0305228Y0210192D01*
X0320941Y0186098D02*
X0329878Y0195035D01*
X0332752Y0186098D02*
X0332752Y0182161D01*
X0332752Y0186098D02*
X0356374Y0209720D01*
X0371059Y0195035D01*
X0379878Y0195035D01*
X0407828Y0198492D02*
X0289028Y0079692D01*
X0289028Y0072492D01*
X0288382Y0071925D01*
X0274271Y0059540D02*
X0269790Y0059540D01*
X0266427Y0056177D01*
X0261886Y0056177D01*
X0255728Y0054492D02*
X0340328Y0139092D01*
X0340328Y0155292D01*
X0329528Y0158892D02*
X0328776Y0159681D01*
X0329528Y0158892D02*
X0360128Y0158892D01*
X0360587Y0158618D01*
X0328776Y0139681D02*
X0328628Y0139092D01*
X0328628Y0137292D01*
X0255728Y0064392D01*
X0213428Y0064392D01*
X0208928Y0059892D01*
X0204428Y0059892D01*
X0203894Y0059366D01*
X0201728Y0054492D02*
X0186428Y0069792D01*
X0190547Y0080114D02*
X0190928Y0080592D01*
X0190928Y0089592D01*
X0190547Y0090114D01*
X0199028Y0094092D02*
X0199028Y0101292D01*
X0201728Y0103992D01*
X0216128Y0103992D01*
X0230528Y0118392D01*
X0221528Y0114792D02*
X0193628Y0114792D01*
X0190547Y0110114D02*
X0190928Y0109392D01*
X0203528Y0109392D01*
X0203894Y0109366D01*
X0203894Y0099366D02*
X0204428Y0098592D01*
X0218828Y0084192D01*
X0255728Y0084192D01*
X0260228Y0088692D01*
X0263828Y0090492D02*
X0263828Y0082392D01*
X0255728Y0074292D01*
X0160328Y0074292D01*
X0160328Y0079692D01*
X0160547Y0080114D01*
X0160328Y0074292D02*
X0160328Y0070692D01*
X0146828Y0057192D01*
X0146610Y0056492D01*
X0146610Y0066492D02*
X0146828Y0067092D01*
X0151328Y0071592D01*
X0151328Y0076992D01*
X0160328Y0085992D01*
X0160328Y0089592D01*
X0160547Y0090114D01*
X0161228Y0090492D01*
X0164828Y0094092D01*
X0199028Y0094092D01*
X0206228Y0094092D01*
X0220628Y0079692D01*
X0253028Y0079692D01*
X0253894Y0079366D01*
X0253894Y0089366D02*
X0253028Y0089592D01*
X0253028Y0093192D01*
X0248528Y0097692D01*
X0248528Y0101292D01*
X0251228Y0103992D01*
X0266528Y0103992D01*
X0320528Y0157992D01*
X0320941Y0186098D02*
X0309130Y0186098D01*
X0356374Y0237280D02*
X0375690Y0237280D01*
X0377994Y0239583D01*
X0385566Y0239583D01*
X0391807Y0233343D01*
X0386228Y0245292D02*
X0381728Y0249792D01*
X0301628Y0249792D01*
X0299828Y0247992D01*
X0311528Y0255192D02*
X0304328Y0262392D01*
X0298028Y0262392D01*
X0297476Y0262673D01*
X0297128Y0262392D01*
X0282728Y0247992D01*
X0260228Y0247992D01*
X0267476Y0252673D02*
X0267428Y0253392D01*
X0273728Y0251592D02*
X0279128Y0251592D01*
X0302528Y0274992D01*
X0323228Y0274992D01*
X0369128Y0274992D01*
X0403328Y0278592D02*
X0403972Y0279366D01*
X0403328Y0278592D02*
X0292628Y0278592D01*
X0295328Y0257892D02*
X0280928Y0243492D01*
X0295328Y0257892D02*
X0301628Y0257892D01*
X0335828Y0244392D02*
X0379028Y0244392D01*
X0379878Y0245035D01*
X0386228Y0245292D02*
X0409628Y0245292D01*
X0416828Y0252492D01*
X0417555Y0253028D01*
X0407555Y0253028D02*
X0407555Y0272713D01*
X0248539Y0273736D02*
X0248528Y0274092D01*
X0248528Y0283092D01*
X0248539Y0283736D01*
X0238628Y0283992D02*
X0218828Y0264192D01*
X0218539Y0263736D01*
X0217928Y0263292D01*
X0208928Y0263292D01*
X0202628Y0256992D01*
X0202122Y0256925D01*
X0191020Y0245154D02*
X0189248Y0246925D01*
X0172122Y0246925D01*
X0170228Y0241692D02*
X0165728Y0246192D01*
X0170228Y0241692D02*
X0203528Y0241692D01*
X0214328Y0252492D01*
X0224228Y0233592D02*
X0226028Y0231792D01*
X0235928Y0231792D01*
X0213028Y0225469D02*
X0212528Y0224592D01*
X0212528Y0219192D01*
X0196328Y0202992D01*
X0195665Y0202437D01*
X0190928Y0193092D02*
X0160328Y0162492D01*
X0106328Y0162492D01*
X0088328Y0180492D02*
X0154028Y0180492D01*
X0135128Y0202092D02*
X0126128Y0193092D01*
X0124328Y0193092D01*
X0135128Y0202092D02*
X0135665Y0202437D01*
X0144128Y0217392D02*
X0091928Y0217392D01*
X0087428Y0221892D01*
X0087428Y0230892D01*
X0084728Y0233592D01*
X0082028Y0233592D01*
X0077528Y0229092D01*
X0077528Y0220092D01*
X0069428Y0211992D01*
X0045128Y0211992D01*
X0036128Y0202992D01*
X0032528Y0202092D02*
X0032528Y0188592D01*
X0032528Y0202092D02*
X0044228Y0213792D01*
X0061328Y0213792D01*
X0072128Y0224592D01*
X0073028Y0225469D01*
X0063128Y0225492D02*
X0063028Y0225469D01*
X0063128Y0225492D02*
X0092828Y0255192D01*
X0093728Y0255192D01*
X0082028Y0238992D02*
X0083828Y0237192D01*
X0152228Y0237192D01*
X0156728Y0233592D02*
X0121628Y0233592D01*
X0113528Y0225492D01*
X0113028Y0225469D01*
X0091928Y0214692D02*
X0154928Y0214692D01*
X0155828Y0215592D01*
X0155828Y0210192D02*
X0162128Y0216492D01*
X0162128Y0224592D01*
X0163028Y0225469D01*
X0147728Y0218292D02*
X0145028Y0218292D01*
X0144128Y0217392D01*
X0091928Y0214692D02*
X0083828Y0222792D01*
X0083828Y0224592D01*
X0083028Y0225469D01*
X0057161Y0253028D02*
X0057161Y0280587D01*
X0046928Y0276792D02*
X0065828Y0295692D01*
X0066098Y0296217D01*
X0065828Y0305592D02*
X0066098Y0306217D01*
X0066728Y0306492D01*
X0096428Y0306492D01*
X0112628Y0322692D01*
X0116098Y0306217D02*
X0116228Y0305592D01*
X0129728Y0305592D01*
X0130665Y0289799D02*
X0130628Y0289392D01*
X0130628Y0280392D01*
X0130665Y0279799D01*
X0130628Y0279492D01*
X0130628Y0270492D01*
X0130665Y0269799D01*
X0130628Y0269592D01*
X0130628Y0260592D01*
X0130665Y0259799D01*
X0160665Y0259799D02*
X0161228Y0259692D01*
X0169328Y0259692D01*
X0172028Y0256992D01*
X0172122Y0256925D01*
X0187083Y0268776D02*
X0187083Y0276650D01*
X0179209Y0279403D02*
X0179209Y0288461D01*
X0183146Y0292398D01*
X0218828Y0296592D02*
X0218828Y0310092D01*
X0218303Y0310862D01*
X0216128Y0207492D02*
X0230528Y0193092D01*
X0230528Y0180492D01*
X0226928Y0176892D01*
X0209828Y0176892D01*
X0203528Y0177792D02*
X0203528Y0175092D01*
X0199028Y0170592D01*
X0195428Y0185892D02*
X0195428Y0142692D01*
X0195665Y0142437D01*
X0196328Y0122892D02*
X0199028Y0122892D01*
X0196328Y0122892D02*
X0183728Y0110292D01*
X0190928Y0109392D02*
X0190928Y0100392D01*
X0190547Y0100114D01*
X0160547Y0100114D02*
X0160328Y0099492D01*
X0160328Y0095892D01*
X0151328Y0086892D01*
X0151328Y0081492D01*
X0146828Y0076992D01*
X0146610Y0076492D01*
X0146610Y0086492D02*
X0146828Y0086892D01*
X0151328Y0091392D01*
X0151328Y0096792D01*
X0160328Y0105792D01*
X0160328Y0109392D01*
X0160547Y0110114D01*
X0146610Y0126492D02*
X0145928Y0126492D01*
X0130628Y0111192D01*
X0115328Y0111192D01*
X0109928Y0116592D01*
X0100928Y0116592D01*
X0122528Y0131892D02*
X0132428Y0141792D01*
X0135128Y0141792D01*
X0135665Y0142437D01*
X0148628Y0135492D02*
X0129728Y0116592D01*
X0102673Y0092240D02*
X0102728Y0091392D01*
X0117128Y0076992D01*
X0116610Y0076492D01*
X0118928Y0061692D02*
X0087428Y0061692D01*
X0069428Y0079692D01*
X0043328Y0079692D01*
X0042476Y0079799D01*
X0032528Y0079692D02*
X0032476Y0079799D01*
X0032528Y0079692D02*
X0067628Y0044592D01*
X0240428Y0044592D01*
X0250328Y0054492D01*
X0255728Y0054492D01*
X0253894Y0059366D02*
X0253028Y0058992D01*
X0210728Y0058992D01*
X0206228Y0054492D01*
X0201728Y0054492D01*
X0203894Y0049366D02*
X0239864Y0049366D01*
X0242201Y0051703D01*
X0234327Y0048303D02*
X0204957Y0048303D01*
X0203894Y0049366D01*
X0246728Y0089592D02*
X0246728Y0109392D01*
X0252128Y0114792D01*
X0253894Y0119366D02*
X0253028Y0120192D01*
X0248528Y0120192D01*
X0236828Y0131892D01*
X0253894Y0099366D02*
X0253928Y0098592D01*
X0255728Y0098592D01*
X0263828Y0090492D01*
X0274271Y0059540D02*
X0281571Y0052240D01*
X0356528Y0088692D02*
X0374528Y0106692D01*
X0406028Y0106692D01*
X0406492Y0107358D01*
X0386228Y0097692D02*
X0386228Y0086892D01*
X0367328Y0067992D01*
X0367004Y0067594D01*
X0407555Y0056177D02*
X0411492Y0052240D01*
X0407555Y0056177D02*
X0407555Y0079799D01*
X0226028Y0181392D02*
X0226295Y0181965D01*
X0226028Y0181392D02*
X0224228Y0181392D01*
X0221528Y0178692D01*
X0181028Y0177792D02*
X0181028Y0175092D01*
X0155828Y0149892D01*
X0149528Y0153492D02*
X0051428Y0153492D01*
X0049628Y0151692D01*
X0062228Y0158892D02*
X0159428Y0158892D01*
X0085665Y0142437D02*
X0085628Y0141792D01*
X0065828Y0121992D01*
X0072673Y0092240D02*
X0073028Y0091392D01*
X0073028Y0082392D01*
X0072673Y0082240D01*
X0050528Y0088692D02*
X0031628Y0088692D01*
X0028028Y0085092D01*
X0028028Y0074292D01*
X0029828Y0072492D01*
X0034328Y0072492D01*
X0096531Y0058903D02*
X0098943Y0056492D01*
X0116610Y0056492D01*
X0030728Y0212892D02*
X0037928Y0220092D01*
X0037928Y0246192D01*
X0050528Y0258792D01*
X0050528Y0268692D01*
X0051413Y0268776D01*
X0046928Y0265092D02*
X0046928Y0276792D01*
X0046928Y0265092D02*
X0032528Y0250692D01*
X0032528Y0241692D01*
X0032476Y0241217D01*
X0031413Y0268776D02*
X0031628Y0269592D01*
X0031628Y0271392D01*
X0065828Y0305592D01*
D11*
X0021472Y0008933D02*
X0001256Y0008933D01*
X0011492Y0008421D02*
X0021472Y0008933D01*
X0011492Y0007909D01*
X0011492Y0007676D02*
X0021472Y0008933D01*
X0011492Y0009957D01*
X0011492Y0010190D02*
X0011492Y0007676D01*
X0011492Y0009445D02*
X0021472Y0008933D01*
X0011492Y0010190D01*
X0013854Y0016020D02*
X0013854Y0036236D01*
X0014878Y0026256D01*
X0015111Y0026256D02*
X0013854Y0036236D01*
X0012831Y0026256D01*
X0012597Y0026256D02*
X0015111Y0026256D01*
X0014366Y0026256D02*
X0013854Y0036236D01*
X0013343Y0026256D01*
X0012597Y0026256D02*
X0013854Y0036236D01*
X0009917Y0036492D02*
X0021531Y0036492D01*
X0021728Y0036492D02*
X0021728Y0001256D01*
X0021728Y0048303D01*
X0013854Y0052496D02*
X0014878Y0062476D01*
X0015111Y0062476D02*
X0013854Y0052496D01*
X0012831Y0062476D01*
X0012597Y0062476D02*
X0015111Y0062476D01*
X0014366Y0062476D02*
X0013854Y0052496D01*
X0013343Y0062476D01*
X0012597Y0062476D02*
X0013854Y0052496D01*
X0013854Y0081945D01*
X0006177Y0052240D02*
X0037476Y0052240D01*
X0037476Y0001256D01*
X0037732Y0008933D02*
X0047713Y0007909D01*
X0047713Y0007676D02*
X0037732Y0008933D01*
X0047713Y0009957D01*
X0047713Y0010190D02*
X0047713Y0007676D01*
X0047713Y0008421D02*
X0037732Y0008933D01*
X0047713Y0009445D01*
X0047713Y0010190D02*
X0037732Y0008933D01*
X0067181Y0008933D01*
X0047713Y0019487D02*
X0047713Y0022001D01*
X0037732Y0020744D01*
X0047713Y0019720D01*
X0047713Y0019487D02*
X0037732Y0020744D01*
X0047713Y0021768D01*
X0047713Y0021256D02*
X0037732Y0020744D01*
X0047713Y0020232D01*
X0037732Y0020744D02*
X0411236Y0020744D01*
X0401256Y0019720D01*
X0401256Y0019487D02*
X0411236Y0020744D01*
X0401256Y0021768D01*
X0401256Y0022001D02*
X0401256Y0019487D01*
X0401256Y0020232D02*
X0411236Y0020744D01*
X0401256Y0021256D01*
X0401256Y0022001D02*
X0411236Y0020744D01*
X0411492Y0017004D02*
X0411492Y0052240D01*
X0458539Y0052240D01*
X0450862Y0052496D02*
X0451886Y0062476D01*
X0452119Y0062476D02*
X0450862Y0052496D01*
X0449839Y0062476D01*
X0449605Y0062476D02*
X0452119Y0062476D01*
X0451374Y0062476D02*
X0450862Y0052496D01*
X0450350Y0062476D01*
X0449605Y0062476D02*
X0450862Y0052496D01*
X0450862Y0081945D01*
X0453542Y0080813D02*
X0456056Y0080813D01*
X0454799Y0070833D01*
X0455823Y0080813D01*
X0455311Y0080813D02*
X0454799Y0070833D01*
X0453776Y0080813D01*
X0453542Y0080813D02*
X0454799Y0070833D01*
X0454287Y0080813D01*
X0454799Y0070833D02*
X0454799Y0233087D01*
X0455823Y0223106D01*
X0456056Y0223106D02*
X0454799Y0233087D01*
X0453776Y0223106D01*
X0453542Y0223106D02*
X0456056Y0223106D01*
X0455311Y0223106D02*
X0454799Y0233087D01*
X0454287Y0223106D01*
X0453542Y0223106D02*
X0454799Y0233087D01*
X0454799Y0233343D02*
X0454799Y0233343D01*
X0454799Y0267988D02*
X0454799Y0288205D01*
X0455823Y0278224D01*
X0456056Y0278224D02*
X0454799Y0288205D01*
X0453776Y0278224D01*
X0453542Y0278224D02*
X0456056Y0278224D01*
X0455311Y0278224D02*
X0454799Y0288205D01*
X0454287Y0278224D01*
X0453542Y0278224D02*
X0454799Y0288205D01*
X0462476Y0288461D02*
X0411492Y0288461D01*
X0411492Y0347319D01*
X0411236Y0339642D02*
X0401256Y0338618D01*
X0401256Y0338385D02*
X0411236Y0339642D01*
X0401256Y0340665D01*
X0401256Y0340899D02*
X0401256Y0338385D01*
X0401256Y0339130D02*
X0411236Y0339642D01*
X0401256Y0340154D01*
X0401256Y0340899D02*
X0411236Y0339642D01*
X0391020Y0339642D01*
X0427496Y0339642D02*
X0437476Y0338618D01*
X0437476Y0338385D02*
X0427496Y0339642D01*
X0437476Y0340665D01*
X0437476Y0340899D02*
X0437476Y0338385D01*
X0437476Y0339130D02*
X0427496Y0339642D01*
X0437476Y0340154D01*
X0437476Y0340899D02*
X0427496Y0339642D01*
X0456945Y0339642D01*
X0454799Y0333913D02*
X0454799Y0304465D01*
X0455823Y0314445D01*
X0456056Y0314445D02*
X0454799Y0304465D01*
X0453776Y0314445D01*
X0453542Y0314445D02*
X0456056Y0314445D01*
X0455311Y0314445D02*
X0454799Y0304465D01*
X0454287Y0314445D01*
X0453542Y0314445D02*
X0454799Y0304465D01*
X0462476Y0304209D02*
X0423303Y0304209D01*
X0427240Y0296335D02*
X0427240Y0347319D01*
X0388028Y0071477D02*
X0482161Y0071477D01*
X0474484Y0071221D02*
X0475508Y0061241D01*
X0475741Y0061241D02*
X0474484Y0071221D01*
X0473461Y0061241D01*
X0473227Y0061241D02*
X0475741Y0061241D01*
X0474996Y0061241D02*
X0474484Y0071221D01*
X0473972Y0061241D01*
X0473227Y0061241D02*
X0474484Y0071221D01*
X0474484Y0044622D01*
X0475508Y0054602D01*
X0475741Y0054602D02*
X0474484Y0044622D01*
X0473461Y0054602D01*
X0473227Y0054602D02*
X0475741Y0054602D01*
X0474996Y0054602D02*
X0474484Y0044622D01*
X0473972Y0054602D01*
X0473227Y0054602D02*
X0474484Y0044622D01*
X0482161Y0044366D02*
X0439051Y0044366D01*
X0427240Y0052240D02*
X0427240Y0017004D01*
X0427496Y0024681D02*
X0437476Y0023657D01*
X0437476Y0023424D02*
X0427496Y0024681D01*
X0437476Y0025705D01*
X0437476Y0025938D02*
X0437476Y0023424D01*
X0437476Y0024169D02*
X0427496Y0024681D01*
X0437476Y0025193D01*
X0437476Y0025938D02*
X0427496Y0024681D01*
X0456945Y0024681D01*
X0452119Y0026256D02*
X0450862Y0036236D01*
X0451886Y0026256D01*
X0452119Y0026256D02*
X0449605Y0026256D01*
X0450862Y0036236D01*
X0449839Y0026256D01*
X0450350Y0026256D02*
X0450862Y0036236D01*
X0451374Y0026256D01*
X0450862Y0036236D02*
X0450862Y0016020D01*
X0458539Y0036492D02*
X0419366Y0036492D01*
X0411236Y0024681D02*
X0401256Y0025705D01*
X0401256Y0025938D02*
X0401256Y0023424D01*
X0411236Y0024681D01*
X0401256Y0023657D01*
X0401256Y0024169D02*
X0411236Y0024681D01*
X0401256Y0025193D01*
X0401256Y0025938D02*
X0411236Y0024681D01*
X0391020Y0024681D01*
X0387772Y0008933D02*
X0377792Y0007909D01*
X0377792Y0007676D02*
X0387772Y0008933D01*
X0377792Y0009957D01*
X0377792Y0010190D02*
X0377792Y0007676D01*
X0377792Y0008421D02*
X0387772Y0008933D01*
X0377792Y0009445D01*
X0377792Y0010190D02*
X0387772Y0008933D01*
X0021984Y0008933D01*
X0031965Y0007909D01*
X0031965Y0007676D02*
X0021984Y0008933D01*
X0031965Y0009957D01*
X0031965Y0010190D02*
X0031965Y0007676D01*
X0031965Y0008421D02*
X0021984Y0008933D01*
X0031965Y0009445D01*
X0031965Y0010190D02*
X0021984Y0008933D01*
X0037476Y0013067D02*
X0037476Y0052240D01*
X0387128Y0070577D02*
X0462476Y0070577D01*
X0411492Y0052240D02*
X0411492Y0013067D01*
X0388028Y0001256D02*
X0388028Y0071477D01*
D12*
X0441895Y0073512D02*
X0441895Y0075647D01*
X0442962Y0076715D01*
X0447233Y0072445D01*
X0448300Y0073512D01*
X0448300Y0075647D01*
X0447233Y0076715D01*
X0442962Y0076715D01*
X0442962Y0078890D02*
X0441895Y0079958D01*
X0441895Y0082093D01*
X0442962Y0083160D01*
X0447233Y0078890D01*
X0448300Y0079958D01*
X0448300Y0082093D01*
X0447233Y0083160D01*
X0442962Y0083160D01*
X0442962Y0078890D02*
X0447233Y0078890D01*
X0447233Y0072445D02*
X0442962Y0072445D01*
X0441895Y0073512D01*
X0447233Y0070289D02*
X0448300Y0070289D01*
X0448300Y0069222D01*
X0447233Y0069222D01*
X0447233Y0070289D01*
X0445098Y0067047D02*
X0445098Y0062776D01*
X0441895Y0065979D01*
X0448300Y0065979D01*
X0465517Y0065669D02*
X0466585Y0064601D01*
X0467652Y0064601D01*
X0468720Y0065669D01*
X0468720Y0068872D01*
X0470855Y0068872D02*
X0466585Y0068872D01*
X0465517Y0067804D01*
X0465517Y0065669D01*
X0466585Y0062426D02*
X0467652Y0062426D01*
X0468720Y0061359D01*
X0468720Y0059223D01*
X0467652Y0058156D01*
X0466585Y0058156D01*
X0465517Y0059223D01*
X0465517Y0061359D01*
X0466585Y0062426D01*
X0468720Y0061359D02*
X0469787Y0062426D01*
X0470855Y0062426D01*
X0471922Y0061359D01*
X0471922Y0059223D01*
X0470855Y0058156D01*
X0469787Y0058156D01*
X0468720Y0059223D01*
X0470855Y0056001D02*
X0471922Y0056001D01*
X0471922Y0054933D01*
X0470855Y0054933D01*
X0470855Y0056001D01*
X0470855Y0052758D02*
X0469787Y0052758D01*
X0468720Y0051690D01*
X0468720Y0048488D01*
X0470855Y0048488D01*
X0471922Y0049555D01*
X0471922Y0051690D01*
X0470855Y0052758D01*
X0466585Y0050623D02*
X0468720Y0048488D01*
X0466585Y0050623D02*
X0465517Y0052758D01*
X0470855Y0064601D02*
X0471922Y0065669D01*
X0471922Y0067804D01*
X0470855Y0068872D01*
X0457093Y0033648D02*
X0458160Y0032581D01*
X0453890Y0028310D01*
X0454958Y0027243D01*
X0457093Y0027243D01*
X0458160Y0028310D01*
X0458160Y0032581D01*
X0457093Y0033648D02*
X0454958Y0033648D01*
X0453890Y0032581D01*
X0453890Y0028310D01*
X0451715Y0028310D02*
X0450647Y0027243D01*
X0448512Y0027243D01*
X0447445Y0028310D01*
X0451715Y0032581D01*
X0451715Y0028310D01*
X0447445Y0028310D02*
X0447445Y0032581D01*
X0448512Y0033648D01*
X0450647Y0033648D01*
X0451715Y0032581D01*
X0445289Y0028310D02*
X0445289Y0027243D01*
X0444222Y0027243D01*
X0444222Y0028310D01*
X0445289Y0028310D01*
X0442047Y0030446D02*
X0437776Y0030446D01*
X0440979Y0033648D01*
X0440979Y0027243D01*
X0449035Y0139785D02*
X0449035Y0144055D01*
X0447967Y0146230D02*
X0445832Y0148365D01*
X0452237Y0148365D01*
X0452237Y0146230D02*
X0452237Y0150501D01*
X0452237Y0152676D02*
X0452237Y0153743D01*
X0451170Y0153743D01*
X0451170Y0152676D01*
X0452237Y0152676D01*
X0451170Y0155898D02*
X0452237Y0156966D01*
X0452237Y0159101D01*
X0451170Y0160169D01*
X0450102Y0160169D01*
X0449035Y0159101D01*
X0449035Y0158034D01*
X0449035Y0159101D02*
X0447967Y0160169D01*
X0446900Y0160169D01*
X0445832Y0159101D01*
X0445832Y0156966D01*
X0446900Y0155898D01*
X0449035Y0162344D02*
X0449035Y0166614D01*
X0452237Y0165547D02*
X0445832Y0165547D01*
X0449035Y0162344D01*
X0452237Y0142987D02*
X0445832Y0142987D01*
X0449035Y0139785D01*
X0239139Y0028644D02*
X0239139Y0024373D01*
X0238071Y0023306D01*
X0235936Y0023306D01*
X0234868Y0024373D01*
X0239139Y0028644D01*
X0238071Y0029711D01*
X0235936Y0029711D01*
X0234868Y0028644D01*
X0234868Y0024373D01*
X0232693Y0024373D02*
X0231626Y0023306D01*
X0229490Y0023306D01*
X0228423Y0024373D01*
X0232693Y0028644D01*
X0232693Y0024373D01*
X0228423Y0024373D02*
X0228423Y0028644D01*
X0229490Y0029711D01*
X0231626Y0029711D01*
X0232693Y0028644D01*
X0226268Y0024373D02*
X0226268Y0023306D01*
X0225200Y0023306D01*
X0225200Y0024373D01*
X0226268Y0024373D01*
X0223025Y0024373D02*
X0221957Y0023306D01*
X0219822Y0023306D01*
X0218755Y0024373D01*
X0218755Y0026509D02*
X0220890Y0027576D01*
X0221957Y0027576D01*
X0223025Y0026509D01*
X0223025Y0024373D01*
X0218755Y0026509D02*
X0218755Y0029711D01*
X0223025Y0029711D01*
X0216579Y0028644D02*
X0216579Y0024373D01*
X0215512Y0023306D01*
X0213377Y0023306D01*
X0212309Y0024373D01*
X0213377Y0026509D02*
X0212309Y0027576D01*
X0212309Y0028644D01*
X0213377Y0029711D01*
X0215512Y0029711D01*
X0216579Y0028644D01*
X0216579Y0026509D02*
X0213377Y0026509D01*
X0212020Y0017900D02*
X0213087Y0016833D01*
X0208817Y0012562D01*
X0209885Y0011495D01*
X0212020Y0011495D01*
X0213087Y0012562D01*
X0213087Y0016833D01*
X0212020Y0017900D02*
X0209885Y0017900D01*
X0208817Y0016833D01*
X0208817Y0012562D01*
X0206662Y0012562D02*
X0206662Y0011495D01*
X0205594Y0011495D01*
X0205594Y0012562D01*
X0206662Y0012562D01*
X0203419Y0012562D02*
X0202351Y0011495D01*
X0200216Y0011495D01*
X0199149Y0012562D01*
X0196974Y0012562D02*
X0196974Y0016833D01*
X0195906Y0017900D01*
X0193771Y0017900D01*
X0192703Y0016833D01*
X0192703Y0015765D01*
X0193771Y0014698D01*
X0196974Y0014698D01*
X0196974Y0012562D02*
X0195906Y0011495D01*
X0193771Y0011495D01*
X0192703Y0012562D01*
X0199149Y0016833D02*
X0200216Y0017900D01*
X0202351Y0017900D01*
X0203419Y0016833D01*
X0203419Y0015765D01*
X0202351Y0014698D01*
X0203419Y0013630D01*
X0203419Y0012562D01*
X0202351Y0014698D02*
X0201284Y0014698D01*
X0215262Y0014698D02*
X0219533Y0014698D01*
X0218465Y0017900D02*
X0218465Y0011495D01*
X0215262Y0014698D02*
X0218465Y0017900D01*
X0068397Y0016833D02*
X0068397Y0012562D01*
X0067329Y0011495D01*
X0065194Y0011495D01*
X0064126Y0012562D01*
X0068397Y0016833D01*
X0067329Y0017900D01*
X0065194Y0017900D01*
X0064126Y0016833D01*
X0064126Y0012562D01*
X0061951Y0012562D02*
X0061951Y0016833D01*
X0057681Y0012562D01*
X0058748Y0011495D01*
X0060884Y0011495D01*
X0061951Y0012562D01*
X0057681Y0012562D02*
X0057681Y0016833D01*
X0058748Y0017900D01*
X0060884Y0017900D01*
X0061951Y0016833D01*
X0055526Y0012562D02*
X0055526Y0011495D01*
X0054458Y0011495D01*
X0054458Y0012562D01*
X0055526Y0012562D01*
X0052283Y0014698D02*
X0048013Y0014698D01*
X0051215Y0017900D01*
X0051215Y0011495D01*
X0008090Y0062776D02*
X0008090Y0067047D01*
X0010225Y0069222D02*
X0010225Y0070289D01*
X0011293Y0070289D01*
X0011293Y0069222D01*
X0010225Y0069222D01*
X0010225Y0072445D02*
X0005955Y0072445D01*
X0004887Y0073512D01*
X0004887Y0075647D01*
X0005955Y0076715D01*
X0010225Y0072445D01*
X0011293Y0073512D01*
X0011293Y0075647D01*
X0010225Y0076715D01*
X0005955Y0076715D01*
X0005955Y0078890D02*
X0004887Y0079958D01*
X0004887Y0082093D01*
X0005955Y0083160D01*
X0010225Y0078890D01*
X0011293Y0079958D01*
X0011293Y0082093D01*
X0010225Y0083160D01*
X0005955Y0083160D01*
X0005955Y0078890D02*
X0010225Y0078890D01*
X0011293Y0065979D02*
X0004887Y0065979D01*
X0008090Y0062776D01*
X0437776Y0345406D02*
X0442047Y0345406D01*
X0444222Y0343271D02*
X0445289Y0343271D01*
X0445289Y0342204D01*
X0444222Y0342204D01*
X0444222Y0343271D01*
X0447445Y0343271D02*
X0447445Y0347541D01*
X0448512Y0348609D01*
X0450647Y0348609D01*
X0451715Y0347541D01*
X0447445Y0343271D01*
X0448512Y0342204D01*
X0450647Y0342204D01*
X0451715Y0343271D01*
X0451715Y0347541D01*
X0453890Y0347541D02*
X0454958Y0348609D01*
X0457093Y0348609D01*
X0458160Y0347541D01*
X0453890Y0343271D01*
X0454958Y0342204D01*
X0457093Y0342204D01*
X0458160Y0343271D01*
X0458160Y0347541D01*
X0453890Y0347541D02*
X0453890Y0343271D01*
X0451170Y0335129D02*
X0446900Y0335129D01*
X0451170Y0330859D01*
X0452237Y0331926D01*
X0452237Y0334061D01*
X0451170Y0335129D01*
X0446900Y0335129D02*
X0445832Y0334061D01*
X0445832Y0331926D01*
X0446900Y0330859D01*
X0451170Y0330859D01*
X0451170Y0328683D02*
X0452237Y0327616D01*
X0452237Y0325481D01*
X0451170Y0324413D01*
X0446900Y0328683D01*
X0451170Y0328683D01*
X0451170Y0324413D02*
X0446900Y0324413D01*
X0445832Y0325481D01*
X0445832Y0327616D01*
X0446900Y0328683D01*
X0451170Y0322258D02*
X0452237Y0322258D01*
X0452237Y0321190D01*
X0451170Y0321190D01*
X0451170Y0322258D01*
X0449035Y0319015D02*
X0449035Y0314745D01*
X0445832Y0317948D01*
X0452237Y0317948D01*
X0440979Y0342204D02*
X0440979Y0348609D01*
X0437776Y0345406D01*
D13*
X0205665Y0202437D03*
X0195665Y0202437D03*
X0185665Y0202437D03*
X0175665Y0202437D03*
X0165665Y0202437D03*
X0155665Y0202437D03*
X0145665Y0202437D03*
X0135665Y0202437D03*
X0125665Y0202437D03*
X0115665Y0202437D03*
X0105665Y0202437D03*
X0095665Y0202437D03*
X0085665Y0202437D03*
X0075665Y0202437D03*
X0065665Y0202437D03*
X0055665Y0202437D03*
X0045665Y0202437D03*
X0045665Y0142437D03*
X0055665Y0142437D03*
X0065665Y0142437D03*
X0075665Y0142437D03*
X0085665Y0142437D03*
X0095665Y0142437D03*
X0105665Y0142437D03*
X0115665Y0142437D03*
X0125665Y0142437D03*
X0135665Y0142437D03*
X0145665Y0142437D03*
X0155665Y0142437D03*
X0165665Y0142437D03*
X0175665Y0142437D03*
X0185665Y0142437D03*
X0195665Y0142437D03*
X0205665Y0142437D03*
D14*
X0190547Y0110114D03*
X0190547Y0100114D03*
X0190547Y0090114D03*
X0190547Y0080114D03*
X0160547Y0080114D03*
X0160547Y0090114D03*
X0160547Y0100114D03*
X0160547Y0110114D03*
X0102673Y0112240D03*
X0102673Y0102240D03*
X0102673Y0092240D03*
X0102673Y0082240D03*
X0072673Y0082240D03*
X0072673Y0092240D03*
X0072673Y0102240D03*
X0072673Y0112240D03*
X0226295Y0181965D03*
X0226295Y0191650D03*
X0256295Y0191650D03*
X0256295Y0181965D03*
X0248539Y0253736D03*
X0248539Y0263736D03*
X0248539Y0273736D03*
X0248539Y0283736D03*
X0218539Y0283736D03*
X0218539Y0273736D03*
X0218539Y0263736D03*
X0218539Y0253736D03*
X0160665Y0259799D03*
X0160665Y0269799D03*
X0160665Y0279799D03*
X0160665Y0289799D03*
X0130665Y0289799D03*
X0130665Y0279799D03*
X0130665Y0269799D03*
X0130665Y0259799D03*
D15*
X0172122Y0316925D03*
X0267476Y0262673D03*
X0116610Y0126492D03*
D16*
X0116610Y0116492D03*
X0116610Y0106492D03*
X0116610Y0096492D03*
X0116610Y0086492D03*
X0116610Y0076492D03*
X0116610Y0066492D03*
X0116610Y0056492D03*
X0146610Y0056492D03*
X0146610Y0066492D03*
X0146610Y0076492D03*
X0146610Y0086492D03*
X0146610Y0096492D03*
X0146610Y0106492D03*
X0146610Y0116492D03*
X0146610Y0126492D03*
X0267476Y0202673D03*
X0267476Y0212673D03*
X0267476Y0222673D03*
X0267476Y0232673D03*
X0267476Y0242673D03*
X0267476Y0252673D03*
X0297476Y0252673D03*
X0297476Y0242673D03*
X0297476Y0232673D03*
X0297476Y0222673D03*
X0297476Y0212673D03*
X0297476Y0202673D03*
X0297476Y0262673D03*
X0358185Y0308146D03*
X0368185Y0308146D03*
X0378185Y0308146D03*
X0202122Y0306925D03*
X0202122Y0316925D03*
X0202122Y0296925D03*
X0202122Y0286925D03*
X0202122Y0276925D03*
X0202122Y0266925D03*
X0202122Y0256925D03*
X0202122Y0246925D03*
X0172122Y0246925D03*
X0172122Y0256925D03*
X0172122Y0266925D03*
X0172122Y0276925D03*
X0172122Y0286925D03*
X0172122Y0296925D03*
X0172122Y0306925D03*
D17*
X0325476Y0159681D02*
X0332076Y0159681D01*
X0332076Y0149681D02*
X0325476Y0149681D01*
X0325476Y0139681D02*
X0332076Y0139681D01*
D18*
X0263276Y0149681D02*
X0263278Y0149842D01*
X0263284Y0150002D01*
X0263294Y0150163D01*
X0263308Y0150323D01*
X0263326Y0150483D01*
X0263347Y0150642D01*
X0263373Y0150801D01*
X0263403Y0150959D01*
X0263436Y0151116D01*
X0263474Y0151273D01*
X0263515Y0151428D01*
X0263560Y0151582D01*
X0263609Y0151735D01*
X0263662Y0151887D01*
X0263718Y0152038D01*
X0263779Y0152187D01*
X0263842Y0152335D01*
X0263910Y0152481D01*
X0263981Y0152625D01*
X0264055Y0152767D01*
X0264133Y0152908D01*
X0264215Y0153046D01*
X0264300Y0153183D01*
X0264388Y0153317D01*
X0264480Y0153449D01*
X0264575Y0153579D01*
X0264673Y0153707D01*
X0264774Y0153832D01*
X0264878Y0153954D01*
X0264985Y0154074D01*
X0265095Y0154191D01*
X0265208Y0154306D01*
X0265324Y0154417D01*
X0265443Y0154526D01*
X0265564Y0154631D01*
X0265688Y0154734D01*
X0265814Y0154834D01*
X0265942Y0154930D01*
X0266073Y0155023D01*
X0266207Y0155113D01*
X0266342Y0155200D01*
X0266480Y0155283D01*
X0266619Y0155363D01*
X0266761Y0155439D01*
X0266904Y0155512D01*
X0267049Y0155581D01*
X0267196Y0155647D01*
X0267344Y0155709D01*
X0267494Y0155767D01*
X0267645Y0155822D01*
X0267798Y0155873D01*
X0267952Y0155920D01*
X0268107Y0155963D01*
X0268263Y0156002D01*
X0268419Y0156038D01*
X0268577Y0156069D01*
X0268735Y0156097D01*
X0268894Y0156121D01*
X0269054Y0156141D01*
X0269214Y0156157D01*
X0269374Y0156169D01*
X0269535Y0156177D01*
X0269696Y0156181D01*
X0269856Y0156181D01*
X0270017Y0156177D01*
X0270178Y0156169D01*
X0270338Y0156157D01*
X0270498Y0156141D01*
X0270658Y0156121D01*
X0270817Y0156097D01*
X0270975Y0156069D01*
X0271133Y0156038D01*
X0271289Y0156002D01*
X0271445Y0155963D01*
X0271600Y0155920D01*
X0271754Y0155873D01*
X0271907Y0155822D01*
X0272058Y0155767D01*
X0272208Y0155709D01*
X0272356Y0155647D01*
X0272503Y0155581D01*
X0272648Y0155512D01*
X0272791Y0155439D01*
X0272933Y0155363D01*
X0273072Y0155283D01*
X0273210Y0155200D01*
X0273345Y0155113D01*
X0273479Y0155023D01*
X0273610Y0154930D01*
X0273738Y0154834D01*
X0273864Y0154734D01*
X0273988Y0154631D01*
X0274109Y0154526D01*
X0274228Y0154417D01*
X0274344Y0154306D01*
X0274457Y0154191D01*
X0274567Y0154074D01*
X0274674Y0153954D01*
X0274778Y0153832D01*
X0274879Y0153707D01*
X0274977Y0153579D01*
X0275072Y0153449D01*
X0275164Y0153317D01*
X0275252Y0153183D01*
X0275337Y0153046D01*
X0275419Y0152908D01*
X0275497Y0152767D01*
X0275571Y0152625D01*
X0275642Y0152481D01*
X0275710Y0152335D01*
X0275773Y0152187D01*
X0275834Y0152038D01*
X0275890Y0151887D01*
X0275943Y0151735D01*
X0275992Y0151582D01*
X0276037Y0151428D01*
X0276078Y0151273D01*
X0276116Y0151116D01*
X0276149Y0150959D01*
X0276179Y0150801D01*
X0276205Y0150642D01*
X0276226Y0150483D01*
X0276244Y0150323D01*
X0276258Y0150163D01*
X0276268Y0150002D01*
X0276274Y0149842D01*
X0276276Y0149681D01*
X0276274Y0149520D01*
X0276268Y0149360D01*
X0276258Y0149199D01*
X0276244Y0149039D01*
X0276226Y0148879D01*
X0276205Y0148720D01*
X0276179Y0148561D01*
X0276149Y0148403D01*
X0276116Y0148246D01*
X0276078Y0148089D01*
X0276037Y0147934D01*
X0275992Y0147780D01*
X0275943Y0147627D01*
X0275890Y0147475D01*
X0275834Y0147324D01*
X0275773Y0147175D01*
X0275710Y0147027D01*
X0275642Y0146881D01*
X0275571Y0146737D01*
X0275497Y0146595D01*
X0275419Y0146454D01*
X0275337Y0146316D01*
X0275252Y0146179D01*
X0275164Y0146045D01*
X0275072Y0145913D01*
X0274977Y0145783D01*
X0274879Y0145655D01*
X0274778Y0145530D01*
X0274674Y0145408D01*
X0274567Y0145288D01*
X0274457Y0145171D01*
X0274344Y0145056D01*
X0274228Y0144945D01*
X0274109Y0144836D01*
X0273988Y0144731D01*
X0273864Y0144628D01*
X0273738Y0144528D01*
X0273610Y0144432D01*
X0273479Y0144339D01*
X0273345Y0144249D01*
X0273210Y0144162D01*
X0273072Y0144079D01*
X0272933Y0143999D01*
X0272791Y0143923D01*
X0272648Y0143850D01*
X0272503Y0143781D01*
X0272356Y0143715D01*
X0272208Y0143653D01*
X0272058Y0143595D01*
X0271907Y0143540D01*
X0271754Y0143489D01*
X0271600Y0143442D01*
X0271445Y0143399D01*
X0271289Y0143360D01*
X0271133Y0143324D01*
X0270975Y0143293D01*
X0270817Y0143265D01*
X0270658Y0143241D01*
X0270498Y0143221D01*
X0270338Y0143205D01*
X0270178Y0143193D01*
X0270017Y0143185D01*
X0269856Y0143181D01*
X0269696Y0143181D01*
X0269535Y0143185D01*
X0269374Y0143193D01*
X0269214Y0143205D01*
X0269054Y0143221D01*
X0268894Y0143241D01*
X0268735Y0143265D01*
X0268577Y0143293D01*
X0268419Y0143324D01*
X0268263Y0143360D01*
X0268107Y0143399D01*
X0267952Y0143442D01*
X0267798Y0143489D01*
X0267645Y0143540D01*
X0267494Y0143595D01*
X0267344Y0143653D01*
X0267196Y0143715D01*
X0267049Y0143781D01*
X0266904Y0143850D01*
X0266761Y0143923D01*
X0266619Y0143999D01*
X0266480Y0144079D01*
X0266342Y0144162D01*
X0266207Y0144249D01*
X0266073Y0144339D01*
X0265942Y0144432D01*
X0265814Y0144528D01*
X0265688Y0144628D01*
X0265564Y0144731D01*
X0265443Y0144836D01*
X0265324Y0144945D01*
X0265208Y0145056D01*
X0265095Y0145171D01*
X0264985Y0145288D01*
X0264878Y0145408D01*
X0264774Y0145530D01*
X0264673Y0145655D01*
X0264575Y0145783D01*
X0264480Y0145913D01*
X0264388Y0146045D01*
X0264300Y0146179D01*
X0264215Y0146316D01*
X0264133Y0146454D01*
X0264055Y0146595D01*
X0263981Y0146737D01*
X0263910Y0146881D01*
X0263842Y0147027D01*
X0263779Y0147175D01*
X0263718Y0147324D01*
X0263662Y0147475D01*
X0263609Y0147627D01*
X0263560Y0147780D01*
X0263515Y0147934D01*
X0263474Y0148089D01*
X0263436Y0148246D01*
X0263403Y0148403D01*
X0263373Y0148561D01*
X0263347Y0148720D01*
X0263326Y0148879D01*
X0263308Y0149039D01*
X0263294Y0149199D01*
X0263284Y0149360D01*
X0263278Y0149520D01*
X0263276Y0149681D01*
D19*
X0360587Y0158618D03*
X0360587Y0168618D03*
X0394681Y0138854D03*
X0404681Y0138854D03*
X0360587Y0136807D03*
X0360587Y0126807D03*
X0298382Y0071925D03*
X0288382Y0071925D03*
X0071138Y0058894D03*
X0061138Y0058894D03*
X0143185Y0306925D03*
X0153185Y0306925D03*
X0218303Y0310862D03*
X0228303Y0310862D03*
X0403972Y0279366D03*
X0413972Y0279366D03*
D20*
X0328539Y0293185D03*
X0318539Y0293185D03*
X0317280Y0310980D03*
X0327280Y0310980D03*
D21*
X0329878Y0255035D03*
X0329878Y0245035D03*
X0329878Y0235035D03*
X0329878Y0225035D03*
X0329878Y0215035D03*
X0329878Y0205035D03*
X0379878Y0215035D03*
X0379878Y0225035D03*
X0379878Y0245035D03*
X0379878Y0255035D03*
X0253894Y0109366D03*
X0253894Y0099366D03*
X0253894Y0079366D03*
X0253894Y0069366D03*
X0203894Y0069366D03*
X0203894Y0059366D03*
X0203894Y0079366D03*
X0203894Y0089366D03*
X0203894Y0099366D03*
X0203894Y0109366D03*
X0066098Y0256217D03*
X0066098Y0266217D03*
X0066098Y0276217D03*
X0066098Y0286217D03*
X0066098Y0296217D03*
X0066098Y0306217D03*
X0116098Y0306217D03*
X0116098Y0296217D03*
X0116098Y0276217D03*
X0116098Y0266217D03*
D22*
X0116098Y0246217D03*
X0066098Y0246217D03*
X0066098Y0316217D03*
X0329878Y0265035D03*
X0329878Y0195035D03*
X0379878Y0195035D03*
X0203894Y0119366D03*
X0203894Y0049366D03*
X0253894Y0049366D03*
D23*
X0253894Y0059366D03*
X0253894Y0089366D03*
X0253894Y0119366D03*
X0379878Y0205035D03*
X0379878Y0235035D03*
X0379878Y0265035D03*
X0116098Y0256217D03*
X0116098Y0286217D03*
X0116098Y0316217D03*
D24*
X0349681Y0066020D03*
D25*
X0367004Y0067594D03*
D26*
X0397555Y0076799D02*
X0397555Y0082799D01*
X0407555Y0082799D02*
X0407555Y0076799D01*
X0417555Y0076799D02*
X0417555Y0082799D01*
X0416492Y0104358D02*
X0416492Y0110358D01*
X0406492Y0110358D02*
X0406492Y0104358D01*
X0322004Y0055240D02*
X0322004Y0049240D01*
X0312004Y0049240D02*
X0312004Y0055240D01*
X0291571Y0055240D02*
X0291571Y0049240D01*
X0281571Y0049240D02*
X0281571Y0055240D01*
X0271571Y0055240D02*
X0271571Y0049240D01*
X0051413Y0104358D02*
X0051413Y0110358D01*
X0041413Y0110358D02*
X0041413Y0104358D01*
X0031413Y0104358D02*
X0031413Y0110358D01*
X0032476Y0082799D02*
X0032476Y0076799D01*
X0042476Y0076799D02*
X0042476Y0082799D01*
X0043028Y0222469D02*
X0043028Y0228469D01*
X0053028Y0228469D02*
X0053028Y0222469D01*
X0063028Y0222469D02*
X0063028Y0228469D01*
X0073028Y0228469D02*
X0073028Y0222469D01*
X0083028Y0222469D02*
X0083028Y0228469D01*
X0093028Y0228469D02*
X0093028Y0222469D01*
X0103028Y0222469D02*
X0103028Y0228469D01*
X0113028Y0228469D02*
X0113028Y0222469D01*
X0123028Y0222469D02*
X0123028Y0228469D01*
X0133028Y0228469D02*
X0133028Y0222469D01*
X0143028Y0222469D02*
X0143028Y0228469D01*
X0153028Y0228469D02*
X0153028Y0222469D01*
X0163028Y0222469D02*
X0163028Y0228469D01*
X0173028Y0228469D02*
X0173028Y0222469D01*
X0183028Y0222469D02*
X0183028Y0228469D01*
X0193028Y0228469D02*
X0193028Y0222469D01*
X0203028Y0222469D02*
X0203028Y0228469D01*
X0213028Y0228469D02*
X0213028Y0222469D01*
X0223028Y0222469D02*
X0223028Y0228469D01*
X0244012Y0305146D02*
X0244012Y0311146D01*
X0254012Y0311146D02*
X0254012Y0305146D01*
X0264012Y0305146D02*
X0264012Y0311146D01*
X0280508Y0311146D02*
X0280508Y0305146D01*
X0290508Y0305146D02*
X0290508Y0311146D01*
X0397555Y0256028D02*
X0397555Y0250028D01*
X0407555Y0250028D02*
X0407555Y0256028D01*
X0417555Y0256028D02*
X0417555Y0250028D01*
X0416492Y0224531D02*
X0416492Y0218531D01*
X0406492Y0218531D02*
X0406492Y0224531D01*
X0051413Y0265776D02*
X0051413Y0271776D01*
X0041413Y0271776D02*
X0041413Y0265776D01*
X0031413Y0265776D02*
X0031413Y0271776D01*
X0032476Y0244217D02*
X0032476Y0238217D01*
X0042476Y0238217D02*
X0042476Y0244217D01*
X0033028Y0228469D02*
X0033028Y0222469D01*
D27*
X0037476Y0308146D03*
X0037476Y0052240D03*
X0411492Y0052240D03*
X0411492Y0308146D03*
D28*
X0386228Y0287592D03*
X0323228Y0274992D03*
X0312428Y0259692D03*
X0301628Y0257892D03*
X0307028Y0239892D03*
X0316028Y0223692D03*
X0335828Y0208392D03*
X0289028Y0193092D03*
X0262028Y0180492D03*
X0234128Y0175992D03*
X0230528Y0166092D03*
X0219728Y0182292D03*
X0208928Y0187692D03*
X0203528Y0177792D03*
X0199028Y0170592D03*
X0195428Y0185892D03*
X0181028Y0177792D03*
X0159428Y0158892D03*
X0149528Y0153492D03*
X0106328Y0162492D03*
X0088328Y0180492D03*
X0062228Y0158892D03*
X0049628Y0151692D03*
X0036128Y0151692D03*
X0039728Y0162492D03*
X0039728Y0167892D03*
X0032528Y0188592D03*
X0044228Y0195792D03*
X0030728Y0212892D03*
X0082028Y0238992D03*
X0093728Y0255192D03*
X0143228Y0255192D03*
X0152228Y0237192D03*
X0156728Y0233592D03*
X0165728Y0246192D03*
X0197228Y0261492D03*
X0228728Y0239892D03*
X0235928Y0231792D03*
X0234128Y0226392D03*
X0253028Y0230892D03*
X0256628Y0234492D03*
X0277328Y0235392D03*
X0282728Y0220992D03*
X0248528Y0211092D03*
X0216128Y0207492D03*
X0162128Y0208392D03*
X0155828Y0215592D03*
X0147728Y0218292D03*
X0124328Y0193092D03*
X0141428Y0189492D03*
X0214328Y0153492D03*
X0218828Y0142692D03*
X0217028Y0137292D03*
X0220628Y0124692D03*
X0230528Y0118392D03*
X0221528Y0114792D03*
X0235028Y0128292D03*
X0275528Y0121092D03*
X0280928Y0131892D03*
X0260228Y0088692D03*
X0246728Y0089592D03*
X0193628Y0114792D03*
X0183728Y0110292D03*
X0193628Y0128292D03*
X0129728Y0116592D03*
X0065828Y0121992D03*
X0058628Y0135492D03*
X0030728Y0139092D03*
X0050528Y0088692D03*
X0186428Y0069792D03*
X0340328Y0155292D03*
X0403328Y0145392D03*
X0386228Y0097692D03*
X0356528Y0088692D03*
X0411428Y0199392D03*
X0280028Y0271392D03*
X0272828Y0288492D03*
X0238628Y0283992D03*
X0213428Y0301992D03*
X0209828Y0292992D03*
X0254828Y0258792D03*
X0254828Y0253392D03*
X0273728Y0251592D03*
X0153128Y0282192D03*
D29*
X0156465Y0280841D02*
X0156465Y0278060D01*
X0158926Y0275599D01*
X0162405Y0275599D01*
X0164198Y0277392D01*
X0167222Y0277392D01*
X0167222Y0275951D01*
X0167968Y0274150D01*
X0169346Y0272771D01*
X0171147Y0272025D01*
X0173097Y0272025D01*
X0174898Y0272771D01*
X0176276Y0274150D01*
X0177022Y0275951D01*
X0177022Y0277900D01*
X0176276Y0279701D01*
X0174898Y0281079D01*
X0173097Y0281825D01*
X0171147Y0281825D01*
X0170585Y0281592D01*
X0164812Y0281592D01*
X0162405Y0283999D01*
X0159691Y0283999D01*
X0145328Y0298362D01*
X0145328Y0302139D01*
X0148085Y0304896D01*
X0148085Y0308955D01*
X0147248Y0309792D01*
X0148840Y0309792D01*
X0148085Y0309038D01*
X0148085Y0306925D01*
X0148085Y0304813D01*
X0151073Y0301825D01*
X0153185Y0301825D01*
X0153185Y0306925D01*
X0153185Y0306925D01*
X0153185Y0301825D01*
X0155298Y0301825D01*
X0158285Y0304813D01*
X0158285Y0306925D01*
X0153185Y0306925D01*
X0148085Y0306925D01*
X0153185Y0306925D01*
X0153185Y0306925D01*
X0153185Y0306925D01*
X0158285Y0306925D01*
X0158285Y0309038D01*
X0157531Y0309792D01*
X0167901Y0309792D01*
X0167760Y0309598D01*
X0167396Y0308883D01*
X0167148Y0308119D01*
X0167022Y0307327D01*
X0167022Y0307225D01*
X0171822Y0307225D01*
X0171822Y0306625D01*
X0172422Y0306625D01*
X0172422Y0297225D01*
X0177222Y0297225D01*
X0177222Y0297327D01*
X0177096Y0298119D01*
X0176848Y0298883D01*
X0176484Y0299598D01*
X0176012Y0300248D01*
X0175444Y0300815D01*
X0174795Y0301287D01*
X0174080Y0301652D01*
X0173316Y0301900D01*
X0173155Y0301925D01*
X0173316Y0301951D01*
X0174080Y0302199D01*
X0174795Y0302563D01*
X0175444Y0303035D01*
X0176012Y0303603D01*
X0176484Y0304252D01*
X0176848Y0304967D01*
X0177096Y0305731D01*
X0177222Y0306524D01*
X0177222Y0306625D01*
X0172422Y0306625D01*
X0172422Y0307225D01*
X0177222Y0307225D01*
X0177222Y0307327D01*
X0177096Y0308119D01*
X0176848Y0308883D01*
X0176484Y0309598D01*
X0176343Y0309792D01*
X0198059Y0309792D01*
X0197968Y0309701D01*
X0197222Y0307900D01*
X0197222Y0305951D01*
X0197968Y0304150D01*
X0198025Y0304092D01*
X0186458Y0304092D01*
X0176126Y0293760D01*
X0176484Y0294252D01*
X0176848Y0294967D01*
X0177096Y0295731D01*
X0177222Y0296524D01*
X0177222Y0296625D01*
X0172422Y0296625D01*
X0172422Y0291825D01*
X0172523Y0291825D01*
X0173316Y0291951D01*
X0174080Y0292199D01*
X0174795Y0292563D01*
X0175287Y0292921D01*
X0173871Y0291505D01*
X0173097Y0291825D01*
X0171147Y0291825D01*
X0170343Y0291492D01*
X0164865Y0291492D01*
X0164865Y0291539D01*
X0162405Y0293999D01*
X0158926Y0293999D01*
X0156465Y0291539D01*
X0156465Y0288060D01*
X0158926Y0285599D01*
X0162405Y0285599D01*
X0164098Y0287292D01*
X0167222Y0287292D01*
X0167222Y0285951D01*
X0167968Y0284150D01*
X0169346Y0282771D01*
X0171147Y0282025D01*
X0173097Y0282025D01*
X0174898Y0282771D01*
X0176276Y0284150D01*
X0177022Y0285951D01*
X0177022Y0287900D01*
X0176783Y0288477D01*
X0188198Y0299892D01*
X0198159Y0299892D01*
X0197968Y0299701D01*
X0197222Y0297900D01*
X0197222Y0295951D01*
X0197950Y0294192D01*
X0196358Y0294192D01*
X0173729Y0271563D01*
X0173097Y0271825D01*
X0171147Y0271825D01*
X0170826Y0271692D01*
X0164712Y0271692D01*
X0162405Y0273999D01*
X0158926Y0273999D01*
X0156465Y0271539D01*
X0156465Y0268060D01*
X0158926Y0265599D01*
X0162405Y0265599D01*
X0164298Y0267492D01*
X0167222Y0267492D01*
X0167222Y0265951D01*
X0167968Y0264150D01*
X0169346Y0262771D01*
X0171147Y0262025D01*
X0173097Y0262025D01*
X0174898Y0262771D01*
X0176276Y0264150D01*
X0177022Y0265951D01*
X0177022Y0267900D01*
X0176724Y0268618D01*
X0198098Y0289992D01*
X0198259Y0289992D01*
X0197968Y0289701D01*
X0197222Y0287900D01*
X0197222Y0285951D01*
X0197968Y0284150D01*
X0198892Y0283226D01*
X0196358Y0280692D01*
X0195128Y0279462D01*
X0195128Y0264483D01*
X0194176Y0263531D01*
X0193628Y0262208D01*
X0193628Y0260776D01*
X0194176Y0259453D01*
X0195189Y0258440D01*
X0196512Y0257892D01*
X0197222Y0257892D01*
X0197222Y0255951D01*
X0197968Y0254150D01*
X0198425Y0253692D01*
X0175819Y0253692D01*
X0176276Y0254150D01*
X0177022Y0255951D01*
X0177022Y0257900D01*
X0176276Y0259701D01*
X0174898Y0261079D01*
X0173097Y0261825D01*
X0171147Y0261825D01*
X0170453Y0261537D01*
X0170198Y0261792D01*
X0164612Y0261792D01*
X0162405Y0263999D01*
X0158926Y0263999D01*
X0156465Y0261539D01*
X0156465Y0258060D01*
X0157233Y0257292D01*
X0146220Y0257292D01*
X0145268Y0258244D01*
X0143944Y0258792D01*
X0142512Y0258792D01*
X0141189Y0258244D01*
X0140237Y0257292D01*
X0134098Y0257292D01*
X0134865Y0258060D01*
X0134865Y0261539D01*
X0132728Y0263676D01*
X0132728Y0265923D01*
X0134865Y0268060D01*
X0134865Y0271539D01*
X0132728Y0273676D01*
X0132728Y0275923D01*
X0134865Y0278060D01*
X0134865Y0281539D01*
X0132728Y0283676D01*
X0132728Y0285923D01*
X0134865Y0288060D01*
X0134865Y0291539D01*
X0132405Y0293999D01*
X0128926Y0293999D01*
X0126465Y0291539D01*
X0126465Y0288060D01*
X0128528Y0285997D01*
X0128528Y0283602D01*
X0126465Y0281539D01*
X0126465Y0278060D01*
X0128528Y0275997D01*
X0128528Y0273602D01*
X0126465Y0271539D01*
X0126465Y0268060D01*
X0128528Y0265997D01*
X0128528Y0263602D01*
X0126465Y0261539D01*
X0126465Y0261425D01*
X0122828Y0265062D01*
X0122828Y0269562D01*
X0120128Y0272262D01*
X0119564Y0272826D01*
X0120208Y0273470D01*
X0120946Y0275252D01*
X0120946Y0277181D01*
X0120208Y0278963D01*
X0118845Y0280326D01*
X0117063Y0281065D01*
X0115134Y0281065D01*
X0113352Y0280326D01*
X0111988Y0278963D01*
X0111250Y0277181D01*
X0111250Y0275252D01*
X0111979Y0273492D01*
X0083498Y0273492D01*
X0111698Y0301692D01*
X0112732Y0302726D01*
X0113352Y0302107D01*
X0115134Y0301369D01*
X0117063Y0301369D01*
X0118845Y0302107D01*
X0120208Y0303470D01*
X0120217Y0303492D01*
X0128858Y0303492D01*
X0149528Y0282822D01*
X0149528Y0281476D01*
X0150076Y0280153D01*
X0151089Y0279140D01*
X0152412Y0278592D01*
X0153844Y0278592D01*
X0155168Y0279140D01*
X0156180Y0280153D01*
X0156465Y0280841D01*
X0156465Y0279466D02*
X0155493Y0279466D01*
X0156658Y0277867D02*
X0134673Y0277867D01*
X0134865Y0279466D02*
X0150763Y0279466D01*
X0149699Y0281064D02*
X0134865Y0281064D01*
X0133741Y0282663D02*
X0149528Y0282663D01*
X0148089Y0284261D02*
X0132728Y0284261D01*
X0132728Y0285860D02*
X0146491Y0285860D01*
X0144892Y0287458D02*
X0134264Y0287458D01*
X0134865Y0289057D02*
X0143294Y0289057D01*
X0141695Y0290655D02*
X0134865Y0290655D01*
X0134150Y0292254D02*
X0140097Y0292254D01*
X0138498Y0293852D02*
X0132552Y0293852D01*
X0128779Y0293852D02*
X0120367Y0293852D01*
X0120208Y0293470D02*
X0120946Y0295252D01*
X0120946Y0297181D01*
X0120208Y0298963D01*
X0118845Y0300326D01*
X0117063Y0301065D01*
X0115134Y0301065D01*
X0113352Y0300326D01*
X0111988Y0298963D01*
X0111250Y0297181D01*
X0111250Y0295252D01*
X0111988Y0293470D01*
X0113352Y0292107D01*
X0115134Y0291369D01*
X0117063Y0291369D01*
X0118845Y0292107D01*
X0120208Y0293470D01*
X0118992Y0292254D02*
X0127180Y0292254D01*
X0126465Y0290655D02*
X0118516Y0290655D01*
X0118107Y0291065D02*
X0114090Y0291065D01*
X0111250Y0288225D01*
X0111250Y0284208D01*
X0114090Y0281369D01*
X0118107Y0281369D01*
X0120946Y0284208D01*
X0120946Y0288225D01*
X0118107Y0291065D01*
X0120114Y0289057D02*
X0126465Y0289057D01*
X0127066Y0287458D02*
X0120946Y0287458D01*
X0120946Y0285860D02*
X0128528Y0285860D01*
X0128528Y0284261D02*
X0120946Y0284261D01*
X0119401Y0282663D02*
X0127589Y0282663D01*
X0126465Y0281064D02*
X0117063Y0281064D01*
X0115134Y0281064D02*
X0091070Y0281064D01*
X0089472Y0279466D02*
X0112492Y0279466D01*
X0111535Y0277867D02*
X0087873Y0277867D01*
X0086275Y0276269D02*
X0111250Y0276269D01*
X0111491Y0274670D02*
X0084676Y0274670D01*
X0081998Y0269292D02*
X0112318Y0269292D01*
X0111988Y0268963D01*
X0111250Y0267181D01*
X0111250Y0265252D01*
X0111988Y0263470D01*
X0113352Y0262107D01*
X0115134Y0261369D01*
X0117063Y0261369D01*
X0117642Y0261608D01*
X0139328Y0239922D01*
X0139959Y0239292D01*
X0085628Y0239292D01*
X0085628Y0239708D01*
X0085080Y0241031D01*
X0084068Y0242044D01*
X0083065Y0242459D01*
X0092437Y0251831D01*
X0093012Y0251592D01*
X0094444Y0251592D01*
X0095768Y0252140D01*
X0096780Y0253153D01*
X0097328Y0254476D01*
X0097328Y0255908D01*
X0097004Y0256692D01*
X0111250Y0256692D01*
X0111250Y0254208D01*
X0114090Y0251369D01*
X0118107Y0251369D01*
X0120946Y0254208D01*
X0120946Y0258225D01*
X0118107Y0261065D01*
X0114090Y0261065D01*
X0113918Y0260892D01*
X0091058Y0260892D01*
X0089828Y0259662D01*
X0073058Y0242892D01*
X0071146Y0242892D01*
X0071146Y0245934D01*
X0066381Y0245934D01*
X0066381Y0246499D01*
X0071146Y0246499D01*
X0071146Y0249702D01*
X0071024Y0250159D01*
X0070787Y0250570D01*
X0070452Y0250905D01*
X0070041Y0251142D01*
X0069583Y0251265D01*
X0066381Y0251265D01*
X0066381Y0246499D01*
X0065816Y0246499D01*
X0065816Y0245934D01*
X0066381Y0245934D01*
X0066381Y0241615D01*
X0056384Y0231618D01*
X0055633Y0232368D01*
X0053943Y0233068D01*
X0052113Y0233068D01*
X0050422Y0232368D01*
X0049128Y0231074D01*
X0048428Y0229384D01*
X0048428Y0223661D01*
X0047628Y0222861D01*
X0047628Y0229384D01*
X0046927Y0231074D01*
X0045804Y0232198D01*
X0061050Y0247444D01*
X0061050Y0246499D01*
X0065816Y0246499D01*
X0065816Y0251265D01*
X0063428Y0251265D01*
X0063428Y0252075D01*
X0065134Y0251369D01*
X0067063Y0251369D01*
X0068845Y0252107D01*
X0070208Y0253470D01*
X0070946Y0255252D01*
X0070946Y0257181D01*
X0070636Y0257930D01*
X0081998Y0269292D01*
X0080982Y0268276D02*
X0111704Y0268276D01*
X0111250Y0266678D02*
X0079384Y0266678D01*
X0077785Y0265079D02*
X0111322Y0265079D01*
X0111984Y0263481D02*
X0076187Y0263481D01*
X0074588Y0261882D02*
X0113894Y0261882D01*
X0118887Y0260284D02*
X0118967Y0260284D01*
X0120486Y0258685D02*
X0120565Y0258685D01*
X0120946Y0257087D02*
X0122164Y0257087D01*
X0120946Y0255488D02*
X0123762Y0255488D01*
X0125361Y0253890D02*
X0120628Y0253890D01*
X0119029Y0252291D02*
X0126959Y0252291D01*
X0128558Y0250693D02*
X0120664Y0250693D01*
X0120787Y0250570D02*
X0120452Y0250905D01*
X0120041Y0251142D01*
X0119583Y0251265D01*
X0116381Y0251265D01*
X0116381Y0246499D01*
X0121146Y0246499D01*
X0121146Y0249702D01*
X0121024Y0250159D01*
X0120787Y0250570D01*
X0121146Y0249094D02*
X0130156Y0249094D01*
X0131755Y0247496D02*
X0121146Y0247496D01*
X0121146Y0245934D02*
X0116381Y0245934D01*
X0116381Y0246499D01*
X0115816Y0246499D01*
X0115816Y0245934D01*
X0116381Y0245934D01*
X0116381Y0241169D01*
X0119583Y0241169D01*
X0120041Y0241291D01*
X0120452Y0241528D01*
X0120787Y0241863D01*
X0121024Y0242274D01*
X0121146Y0242732D01*
X0121146Y0245934D01*
X0121146Y0245897D02*
X0133354Y0245897D01*
X0134952Y0244299D02*
X0121146Y0244299D01*
X0121138Y0242700D02*
X0136551Y0242700D01*
X0138149Y0241102D02*
X0085010Y0241102D01*
X0085628Y0239503D02*
X0139748Y0239503D01*
X0116381Y0242700D02*
X0115816Y0242700D01*
X0115816Y0241169D02*
X0115816Y0245934D01*
X0111050Y0245934D01*
X0111050Y0242732D01*
X0111173Y0242274D01*
X0111410Y0241863D01*
X0111745Y0241528D01*
X0112156Y0241291D01*
X0112613Y0241169D01*
X0115816Y0241169D01*
X0115816Y0244299D02*
X0116381Y0244299D01*
X0116381Y0245897D02*
X0115816Y0245897D01*
X0115816Y0246499D02*
X0111050Y0246499D01*
X0111050Y0249702D01*
X0111173Y0250159D01*
X0111410Y0250570D01*
X0111745Y0250905D01*
X0112156Y0251142D01*
X0112613Y0251265D01*
X0115816Y0251265D01*
X0115816Y0246499D01*
X0115816Y0247496D02*
X0116381Y0247496D01*
X0116381Y0249094D02*
X0115816Y0249094D01*
X0115816Y0250693D02*
X0116381Y0250693D01*
X0113168Y0252291D02*
X0095919Y0252291D01*
X0097085Y0253890D02*
X0111569Y0253890D01*
X0111250Y0255488D02*
X0097328Y0255488D01*
X0091299Y0250693D02*
X0111533Y0250693D01*
X0111050Y0249094D02*
X0089700Y0249094D01*
X0088102Y0247496D02*
X0111050Y0247496D01*
X0111050Y0245897D02*
X0086503Y0245897D01*
X0084905Y0244299D02*
X0111050Y0244299D01*
X0111059Y0242700D02*
X0083306Y0242700D01*
X0077662Y0247496D02*
X0071146Y0247496D01*
X0071146Y0249094D02*
X0079261Y0249094D01*
X0080859Y0250693D02*
X0070664Y0250693D01*
X0069029Y0252291D02*
X0082458Y0252291D01*
X0084056Y0253890D02*
X0070382Y0253890D01*
X0070946Y0255488D02*
X0085655Y0255488D01*
X0087253Y0257087D02*
X0070946Y0257087D01*
X0071391Y0258685D02*
X0088852Y0258685D01*
X0090450Y0260284D02*
X0072990Y0260284D01*
X0062963Y0262496D02*
X0059228Y0258762D01*
X0059228Y0251562D01*
X0047076Y0239410D01*
X0047076Y0245132D01*
X0046376Y0246822D01*
X0045082Y0248116D01*
X0043484Y0248778D01*
X0052628Y0257922D01*
X0052628Y0259662D01*
X0052628Y0261300D01*
X0054019Y0261876D01*
X0055313Y0263170D01*
X0056013Y0264861D01*
X0056013Y0272691D01*
X0055313Y0274381D01*
X0054019Y0275675D01*
X0052328Y0276376D01*
X0050498Y0276376D01*
X0049028Y0275767D01*
X0049028Y0275922D01*
X0061932Y0288826D01*
X0061250Y0287181D01*
X0061250Y0285252D01*
X0061988Y0283470D01*
X0063352Y0282107D01*
X0065134Y0281369D01*
X0067063Y0281369D01*
X0068845Y0282107D01*
X0070208Y0283470D01*
X0070946Y0285252D01*
X0070946Y0287181D01*
X0070208Y0288963D01*
X0068845Y0290326D01*
X0067063Y0291065D01*
X0065134Y0291065D01*
X0063489Y0290383D01*
X0064668Y0291562D01*
X0065134Y0291369D01*
X0067063Y0291369D01*
X0068845Y0292107D01*
X0070208Y0293470D01*
X0070946Y0295252D01*
X0070946Y0297181D01*
X0070208Y0298963D01*
X0068845Y0300326D01*
X0067063Y0301065D01*
X0065134Y0301065D01*
X0063660Y0300454D01*
X0064738Y0301532D01*
X0065134Y0301369D01*
X0067063Y0301369D01*
X0068845Y0302107D01*
X0070208Y0303470D01*
X0070590Y0304392D01*
X0094059Y0304392D01*
X0070358Y0280692D01*
X0069419Y0279752D01*
X0068845Y0280326D01*
X0067063Y0281065D01*
X0065134Y0281065D01*
X0063352Y0280326D01*
X0061988Y0278963D01*
X0061250Y0277181D01*
X0061250Y0275252D01*
X0061988Y0273470D01*
X0063352Y0272107D01*
X0065134Y0271369D01*
X0067063Y0271369D01*
X0068845Y0272107D01*
X0069128Y0272390D01*
X0069128Y0272262D01*
X0067677Y0270810D01*
X0067063Y0271065D01*
X0065134Y0271065D01*
X0063352Y0270326D01*
X0061988Y0268963D01*
X0061250Y0267181D01*
X0061250Y0265252D01*
X0061988Y0263470D01*
X0062963Y0262496D01*
X0062349Y0261882D02*
X0054025Y0261882D01*
X0052628Y0260284D02*
X0060750Y0260284D01*
X0059228Y0258685D02*
X0052628Y0258685D01*
X0051793Y0257087D02*
X0059228Y0257087D01*
X0059228Y0255488D02*
X0050194Y0255488D01*
X0048596Y0253890D02*
X0059228Y0253890D01*
X0059228Y0252291D02*
X0046997Y0252291D01*
X0045399Y0250693D02*
X0058359Y0250693D01*
X0056761Y0249094D02*
X0043800Y0249094D01*
X0045703Y0247496D02*
X0055162Y0247496D01*
X0053563Y0245897D02*
X0046759Y0245897D01*
X0047076Y0244299D02*
X0051965Y0244299D01*
X0050366Y0242700D02*
X0047076Y0242700D01*
X0047076Y0241102D02*
X0048768Y0241102D01*
X0047169Y0239503D02*
X0047076Y0239503D01*
X0049912Y0236306D02*
X0061072Y0236306D01*
X0059474Y0234708D02*
X0048314Y0234708D01*
X0046715Y0233109D02*
X0057875Y0233109D01*
X0062671Y0237905D02*
X0051511Y0237905D01*
X0053109Y0239503D02*
X0064269Y0239503D01*
X0065868Y0241102D02*
X0054708Y0241102D01*
X0056306Y0242700D02*
X0061059Y0242700D01*
X0061050Y0242732D02*
X0061173Y0242274D01*
X0061410Y0241863D01*
X0061745Y0241528D01*
X0062156Y0241291D01*
X0062613Y0241169D01*
X0065816Y0241169D01*
X0065816Y0245934D01*
X0061050Y0245934D01*
X0061050Y0242732D01*
X0061050Y0244299D02*
X0057905Y0244299D01*
X0059503Y0245897D02*
X0061050Y0245897D01*
X0065816Y0245897D02*
X0066381Y0245897D01*
X0066381Y0244299D02*
X0065816Y0244299D01*
X0065816Y0242700D02*
X0066381Y0242700D01*
X0071146Y0244299D02*
X0074465Y0244299D01*
X0076063Y0245897D02*
X0071146Y0245897D01*
X0066381Y0247496D02*
X0065816Y0247496D01*
X0065816Y0249094D02*
X0066381Y0249094D01*
X0066381Y0250693D02*
X0065816Y0250693D01*
X0061984Y0263481D02*
X0055442Y0263481D01*
X0056013Y0265079D02*
X0061322Y0265079D01*
X0061250Y0266678D02*
X0056013Y0266678D01*
X0056013Y0268276D02*
X0061704Y0268276D01*
X0062901Y0269875D02*
X0056013Y0269875D01*
X0056013Y0271473D02*
X0064881Y0271473D01*
X0067316Y0271473D02*
X0068340Y0271473D01*
X0062387Y0273072D02*
X0055855Y0273072D01*
X0055024Y0274670D02*
X0061491Y0274670D01*
X0061250Y0276269D02*
X0052586Y0276269D01*
X0050973Y0277867D02*
X0061535Y0277867D01*
X0062492Y0279466D02*
X0052572Y0279466D01*
X0054170Y0281064D02*
X0065134Y0281064D01*
X0067063Y0281064D02*
X0070731Y0281064D01*
X0069401Y0282663D02*
X0072329Y0282663D01*
X0073928Y0284261D02*
X0070536Y0284261D01*
X0070946Y0285860D02*
X0075526Y0285860D01*
X0077125Y0287458D02*
X0070831Y0287458D01*
X0070114Y0289057D02*
X0078723Y0289057D01*
X0080322Y0290655D02*
X0068050Y0290655D01*
X0068992Y0292254D02*
X0081920Y0292254D01*
X0083519Y0293852D02*
X0070367Y0293852D01*
X0070946Y0295451D02*
X0085117Y0295451D01*
X0086716Y0297049D02*
X0070946Y0297049D01*
X0070339Y0298648D02*
X0088314Y0298648D01*
X0089913Y0300246D02*
X0068925Y0300246D01*
X0068213Y0301845D02*
X0091511Y0301845D01*
X0093110Y0303444D02*
X0070182Y0303444D01*
X0070362Y0308592D02*
X0070208Y0308963D01*
X0068845Y0310326D01*
X0067063Y0311065D01*
X0065134Y0311065D01*
X0063352Y0310326D01*
X0061988Y0308963D01*
X0061250Y0307181D01*
X0061250Y0305252D01*
X0061622Y0304355D01*
X0033257Y0275991D01*
X0032328Y0276376D01*
X0030498Y0276376D01*
X0028808Y0275675D01*
X0027514Y0274381D01*
X0027028Y0273209D01*
X0027028Y0301655D01*
X0027429Y0301017D01*
X0028291Y0299937D01*
X0029267Y0298960D01*
X0030348Y0298098D01*
X0031517Y0297363D01*
X0032762Y0296764D01*
X0034066Y0296308D01*
X0035413Y0296000D01*
X0036676Y0295858D01*
X0036676Y0307346D01*
X0038276Y0307346D01*
X0038276Y0295858D01*
X0039540Y0296000D01*
X0040887Y0296308D01*
X0042191Y0296764D01*
X0043435Y0297363D01*
X0044605Y0298098D01*
X0045685Y0298960D01*
X0046662Y0299937D01*
X0047524Y0301017D01*
X0048259Y0302187D01*
X0048858Y0303431D01*
X0049314Y0304735D01*
X0049622Y0306082D01*
X0049764Y0307346D01*
X0038276Y0307346D01*
X0038276Y0308946D01*
X0036676Y0308946D01*
X0036676Y0320433D01*
X0035413Y0320291D01*
X0034066Y0319984D01*
X0032762Y0319527D01*
X0031517Y0318928D01*
X0030348Y0318193D01*
X0029267Y0317332D01*
X0028291Y0316355D01*
X0027429Y0315275D01*
X0027028Y0314637D01*
X0027028Y0322531D01*
X0109497Y0322531D01*
X0095558Y0308592D01*
X0070362Y0308592D01*
X0069334Y0309838D02*
X0096804Y0309838D01*
X0098402Y0311436D02*
X0070292Y0311436D01*
X0070452Y0311528D02*
X0070787Y0311863D01*
X0071024Y0312274D01*
X0071146Y0312732D01*
X0071146Y0315934D01*
X0066381Y0315934D01*
X0066381Y0316499D01*
X0071146Y0316499D01*
X0071146Y0319702D01*
X0071024Y0320159D01*
X0070787Y0320570D01*
X0070452Y0320905D01*
X0070041Y0321142D01*
X0069583Y0321265D01*
X0066381Y0321265D01*
X0066381Y0316499D01*
X0065816Y0316499D01*
X0065816Y0315934D01*
X0066381Y0315934D01*
X0066381Y0311169D01*
X0069583Y0311169D01*
X0070041Y0311291D01*
X0070452Y0311528D01*
X0071146Y0313035D02*
X0100001Y0313035D01*
X0101599Y0314633D02*
X0071146Y0314633D01*
X0071146Y0317830D02*
X0104797Y0317830D01*
X0106395Y0319429D02*
X0071146Y0319429D01*
X0070240Y0321027D02*
X0107994Y0321027D01*
X0103198Y0316232D02*
X0066381Y0316232D01*
X0065816Y0316232D02*
X0046760Y0316232D01*
X0046662Y0316355D02*
X0045685Y0317332D01*
X0044605Y0318193D01*
X0043435Y0318928D01*
X0042191Y0319527D01*
X0040887Y0319984D01*
X0039540Y0320291D01*
X0038276Y0320433D01*
X0038276Y0308946D01*
X0049764Y0308946D01*
X0049622Y0310209D01*
X0049314Y0311556D01*
X0048858Y0312860D01*
X0048259Y0314105D01*
X0047524Y0315275D01*
X0046662Y0316355D01*
X0047927Y0314633D02*
X0061050Y0314633D01*
X0061050Y0315934D02*
X0061050Y0312732D01*
X0061173Y0312274D01*
X0061410Y0311863D01*
X0061745Y0311528D01*
X0062156Y0311291D01*
X0062613Y0311169D01*
X0065816Y0311169D01*
X0065816Y0315934D01*
X0061050Y0315934D01*
X0061050Y0316499D02*
X0065816Y0316499D01*
X0065816Y0321265D01*
X0062613Y0321265D01*
X0062156Y0321142D01*
X0061745Y0320905D01*
X0061410Y0320570D01*
X0061173Y0320159D01*
X0061050Y0319702D01*
X0061050Y0316499D01*
X0061050Y0317830D02*
X0045060Y0317830D01*
X0042396Y0319429D02*
X0061050Y0319429D01*
X0061957Y0321027D02*
X0027028Y0321027D01*
X0027028Y0319429D02*
X0032557Y0319429D01*
X0029893Y0317830D02*
X0027028Y0317830D01*
X0027028Y0316232D02*
X0028192Y0316232D01*
X0036676Y0316232D02*
X0038276Y0316232D01*
X0038276Y0317830D02*
X0036676Y0317830D01*
X0036676Y0319429D02*
X0038276Y0319429D01*
X0038276Y0314633D02*
X0036676Y0314633D01*
X0036676Y0313035D02*
X0038276Y0313035D01*
X0038276Y0311436D02*
X0036676Y0311436D01*
X0036676Y0309838D02*
X0038276Y0309838D01*
X0038276Y0308239D02*
X0061689Y0308239D01*
X0061250Y0306641D02*
X0049685Y0306641D01*
X0049384Y0305042D02*
X0061337Y0305042D01*
X0060710Y0303444D02*
X0048862Y0303444D01*
X0048044Y0301845D02*
X0059111Y0301845D01*
X0057513Y0300246D02*
X0046909Y0300246D01*
X0045294Y0298648D02*
X0055914Y0298648D01*
X0054316Y0297049D02*
X0042783Y0297049D01*
X0038276Y0297049D02*
X0036676Y0297049D01*
X0036676Y0298648D02*
X0038276Y0298648D01*
X0038276Y0300246D02*
X0036676Y0300246D01*
X0036676Y0301845D02*
X0038276Y0301845D01*
X0038276Y0303444D02*
X0036676Y0303444D01*
X0036676Y0305042D02*
X0038276Y0305042D01*
X0038276Y0306641D02*
X0036676Y0306641D01*
X0028043Y0300246D02*
X0027028Y0300246D01*
X0027028Y0298648D02*
X0029658Y0298648D01*
X0032169Y0297049D02*
X0027028Y0297049D01*
X0027028Y0295451D02*
X0052717Y0295451D01*
X0051119Y0293852D02*
X0027028Y0293852D01*
X0027028Y0292254D02*
X0049520Y0292254D01*
X0047922Y0290655D02*
X0027028Y0290655D01*
X0027028Y0289057D02*
X0046323Y0289057D01*
X0044725Y0287458D02*
X0027028Y0287458D01*
X0027028Y0285860D02*
X0043126Y0285860D01*
X0041528Y0284261D02*
X0027028Y0284261D01*
X0027028Y0282663D02*
X0039929Y0282663D01*
X0038331Y0281064D02*
X0027028Y0281064D01*
X0027028Y0279466D02*
X0036732Y0279466D01*
X0035134Y0277867D02*
X0027028Y0277867D01*
X0027028Y0276269D02*
X0030241Y0276269D01*
X0032586Y0276269D02*
X0033535Y0276269D01*
X0036278Y0273072D02*
X0036788Y0273072D01*
X0036732Y0272900D02*
X0036613Y0272153D01*
X0036613Y0268976D01*
X0041213Y0268976D01*
X0041213Y0276576D01*
X0041036Y0276576D01*
X0040289Y0276457D01*
X0039571Y0276224D01*
X0039284Y0276078D01*
X0061861Y0298655D01*
X0061250Y0297181D01*
X0061250Y0295252D01*
X0061593Y0294426D01*
X0044828Y0277662D01*
X0044828Y0275149D01*
X0044540Y0275437D01*
X0043929Y0275881D01*
X0043256Y0276224D01*
X0042537Y0276457D01*
X0041791Y0276576D01*
X0041613Y0276576D01*
X0041613Y0268976D01*
X0041213Y0268976D01*
X0041213Y0268576D01*
X0036613Y0268576D01*
X0036613Y0265398D01*
X0036732Y0264652D01*
X0036965Y0263933D01*
X0037308Y0263260D01*
X0037752Y0262649D01*
X0038286Y0262114D01*
X0038898Y0261670D01*
X0039571Y0261327D01*
X0040041Y0261175D01*
X0030428Y0251562D01*
X0030428Y0248347D01*
X0029871Y0248116D01*
X0028577Y0246822D01*
X0027876Y0245132D01*
X0027876Y0237302D01*
X0028577Y0235611D01*
X0029871Y0234317D01*
X0031561Y0233617D01*
X0033391Y0233617D01*
X0035082Y0234317D01*
X0035828Y0235063D01*
X0035828Y0232367D01*
X0035543Y0232574D01*
X0034870Y0232917D01*
X0034152Y0233150D01*
X0033405Y0233268D01*
X0033228Y0233268D01*
X0033228Y0225669D01*
X0032828Y0225669D01*
X0032828Y0233268D01*
X0032650Y0233268D01*
X0031904Y0233150D01*
X0031185Y0232917D01*
X0030512Y0232574D01*
X0029901Y0232130D01*
X0029366Y0231595D01*
X0028922Y0230984D01*
X0028579Y0230311D01*
X0028346Y0229593D01*
X0028228Y0228846D01*
X0028228Y0225669D01*
X0032827Y0225669D01*
X0032827Y0225268D01*
X0028228Y0225268D01*
X0028228Y0222091D01*
X0028346Y0221344D01*
X0028579Y0220626D01*
X0028922Y0219953D01*
X0029366Y0219342D01*
X0029901Y0218807D01*
X0030512Y0218363D01*
X0031185Y0218020D01*
X0031904Y0217787D01*
X0032551Y0217684D01*
X0031358Y0216492D01*
X0030012Y0216492D01*
X0028689Y0215944D01*
X0027676Y0214931D01*
X0027128Y0213608D01*
X0027128Y0212176D01*
X0027676Y0210853D01*
X0028689Y0209840D01*
X0029691Y0209425D01*
X0027028Y0206762D01*
X0027028Y0264342D01*
X0027514Y0263170D01*
X0028808Y0261876D01*
X0030498Y0261176D01*
X0032328Y0261176D01*
X0034019Y0261876D01*
X0035313Y0263170D01*
X0036013Y0264861D01*
X0036013Y0272691D01*
X0035979Y0272773D01*
X0037111Y0273905D01*
X0036965Y0273618D01*
X0036732Y0272900D01*
X0036613Y0271473D02*
X0036013Y0271473D01*
X0036013Y0269875D02*
X0036613Y0269875D01*
X0036613Y0268276D02*
X0036013Y0268276D01*
X0036013Y0266678D02*
X0036613Y0266678D01*
X0036664Y0265079D02*
X0036013Y0265079D01*
X0035442Y0263481D02*
X0037195Y0263481D01*
X0038606Y0261882D02*
X0034025Y0261882D01*
X0037552Y0258685D02*
X0027028Y0258685D01*
X0027028Y0257087D02*
X0035953Y0257087D01*
X0034355Y0255488D02*
X0027028Y0255488D01*
X0027028Y0253890D02*
X0032756Y0253890D01*
X0031158Y0252291D02*
X0027028Y0252291D01*
X0027028Y0250693D02*
X0030428Y0250693D01*
X0030428Y0249094D02*
X0027028Y0249094D01*
X0027028Y0247496D02*
X0029250Y0247496D01*
X0028193Y0245897D02*
X0027028Y0245897D01*
X0027028Y0244299D02*
X0027876Y0244299D01*
X0027876Y0242700D02*
X0027028Y0242700D01*
X0027028Y0241102D02*
X0027876Y0241102D01*
X0027876Y0239503D02*
X0027028Y0239503D01*
X0027028Y0237905D02*
X0027876Y0237905D01*
X0028289Y0236306D02*
X0027028Y0236306D01*
X0027028Y0234708D02*
X0029480Y0234708D01*
X0031777Y0233109D02*
X0027028Y0233109D01*
X0027028Y0231511D02*
X0029305Y0231511D01*
X0028450Y0229912D02*
X0027028Y0229912D01*
X0027028Y0228313D02*
X0028228Y0228313D01*
X0028228Y0226715D02*
X0027028Y0226715D01*
X0027028Y0225116D02*
X0028228Y0225116D01*
X0028228Y0223518D02*
X0027028Y0223518D01*
X0027028Y0221919D02*
X0028255Y0221919D01*
X0028735Y0220321D02*
X0027028Y0220321D01*
X0027028Y0218722D02*
X0030017Y0218722D01*
X0031990Y0217124D02*
X0027028Y0217124D01*
X0027028Y0215525D02*
X0028270Y0215525D01*
X0027260Y0213927D02*
X0027028Y0213927D01*
X0027028Y0212328D02*
X0027128Y0212328D01*
X0027028Y0210730D02*
X0027799Y0210730D01*
X0027028Y0209131D02*
X0029398Y0209131D01*
X0027799Y0207533D02*
X0027028Y0207533D01*
X0047628Y0223518D02*
X0048284Y0223518D01*
X0048428Y0225116D02*
X0047628Y0225116D01*
X0047628Y0226715D02*
X0048428Y0226715D01*
X0048428Y0228313D02*
X0047628Y0228313D01*
X0047409Y0229912D02*
X0048646Y0229912D01*
X0049564Y0231511D02*
X0046491Y0231511D01*
X0035828Y0233109D02*
X0034279Y0233109D01*
X0033228Y0233109D02*
X0032828Y0233109D01*
X0032828Y0231511D02*
X0033228Y0231511D01*
X0033228Y0229912D02*
X0032828Y0229912D01*
X0032828Y0228313D02*
X0033228Y0228313D01*
X0033228Y0226715D02*
X0032828Y0226715D01*
X0035473Y0234708D02*
X0035828Y0234708D01*
X0039150Y0260284D02*
X0027028Y0260284D01*
X0027028Y0261882D02*
X0028801Y0261882D01*
X0027385Y0263481D02*
X0027028Y0263481D01*
X0027028Y0274670D02*
X0027803Y0274670D01*
X0039475Y0276269D02*
X0039709Y0276269D01*
X0041213Y0276269D02*
X0041613Y0276269D01*
X0043118Y0276269D02*
X0044828Y0276269D01*
X0045034Y0277867D02*
X0041073Y0277867D01*
X0042672Y0279466D02*
X0046632Y0279466D01*
X0048231Y0281064D02*
X0044270Y0281064D01*
X0045869Y0282663D02*
X0049829Y0282663D01*
X0051428Y0284261D02*
X0047467Y0284261D01*
X0049066Y0285860D02*
X0053026Y0285860D01*
X0054625Y0287458D02*
X0050664Y0287458D01*
X0052263Y0289057D02*
X0056223Y0289057D01*
X0057822Y0290655D02*
X0053861Y0290655D01*
X0055460Y0292254D02*
X0059420Y0292254D01*
X0061019Y0293852D02*
X0057059Y0293852D01*
X0058657Y0295451D02*
X0061250Y0295451D01*
X0061250Y0297049D02*
X0060256Y0297049D01*
X0061854Y0298648D02*
X0061858Y0298648D01*
X0063761Y0290655D02*
X0064146Y0290655D01*
X0061365Y0287458D02*
X0060564Y0287458D01*
X0061250Y0285860D02*
X0058966Y0285860D01*
X0057367Y0284261D02*
X0061661Y0284261D01*
X0062796Y0282663D02*
X0055769Y0282663D01*
X0050241Y0276269D02*
X0049375Y0276269D01*
X0041613Y0274670D02*
X0041213Y0274670D01*
X0041213Y0273072D02*
X0041613Y0273072D01*
X0041613Y0271473D02*
X0041213Y0271473D01*
X0041213Y0269875D02*
X0041613Y0269875D01*
X0049664Y0309838D02*
X0062863Y0309838D01*
X0061905Y0311436D02*
X0049342Y0311436D01*
X0048774Y0313035D02*
X0061050Y0313035D01*
X0065816Y0313035D02*
X0066381Y0313035D01*
X0066381Y0314633D02*
X0065816Y0314633D01*
X0065816Y0311436D02*
X0066381Y0311436D01*
X0066381Y0317830D02*
X0065816Y0317830D01*
X0065816Y0319429D02*
X0066381Y0319429D01*
X0066381Y0321027D02*
X0065816Y0321027D01*
X0103859Y0293852D02*
X0111830Y0293852D01*
X0111250Y0295451D02*
X0105457Y0295451D01*
X0107056Y0297049D02*
X0111250Y0297049D01*
X0111858Y0298648D02*
X0108654Y0298648D01*
X0110253Y0300246D02*
X0113272Y0300246D01*
X0113984Y0301845D02*
X0111851Y0301845D01*
X0111698Y0301692D02*
X0111698Y0301692D01*
X0118213Y0301845D02*
X0130506Y0301845D01*
X0132104Y0300246D02*
X0118925Y0300246D01*
X0120339Y0298648D02*
X0133703Y0298648D01*
X0135301Y0297049D02*
X0120946Y0297049D01*
X0120946Y0295451D02*
X0136900Y0295451D01*
X0145328Y0298648D02*
X0167319Y0298648D01*
X0167396Y0298883D02*
X0167148Y0298119D01*
X0167022Y0297327D01*
X0167022Y0297225D01*
X0171822Y0297225D01*
X0171822Y0296625D01*
X0172422Y0296625D01*
X0172422Y0297225D01*
X0171822Y0297225D01*
X0171822Y0302025D01*
X0171822Y0306625D01*
X0167022Y0306625D01*
X0167022Y0306524D01*
X0167148Y0305731D01*
X0167396Y0304967D01*
X0167760Y0304252D01*
X0168232Y0303603D01*
X0168800Y0303035D01*
X0169449Y0302563D01*
X0170164Y0302199D01*
X0170928Y0301951D01*
X0171089Y0301925D01*
X0170928Y0301900D01*
X0170164Y0301652D01*
X0169449Y0301287D01*
X0168800Y0300815D01*
X0168232Y0300248D01*
X0167760Y0299598D01*
X0167396Y0298883D01*
X0168231Y0300246D02*
X0145328Y0300246D01*
X0145328Y0301845D02*
X0151053Y0301845D01*
X0153185Y0301845D02*
X0153185Y0301845D01*
X0153185Y0303444D02*
X0153185Y0303444D01*
X0153185Y0305042D02*
X0153185Y0305042D01*
X0153185Y0306641D02*
X0153185Y0306641D01*
X0149454Y0303444D02*
X0146633Y0303444D01*
X0148085Y0305042D02*
X0148085Y0305042D01*
X0148085Y0306641D02*
X0148085Y0306641D01*
X0148085Y0308239D02*
X0148085Y0308239D01*
X0155317Y0301845D02*
X0170760Y0301845D01*
X0171822Y0301845D02*
X0172422Y0301845D01*
X0173484Y0301845D02*
X0184211Y0301845D01*
X0182613Y0300246D02*
X0176013Y0300246D01*
X0176925Y0298648D02*
X0181014Y0298648D01*
X0179416Y0297049D02*
X0172422Y0297049D01*
X0171822Y0297049D02*
X0146641Y0297049D01*
X0148239Y0295451D02*
X0167239Y0295451D01*
X0167148Y0295731D02*
X0167396Y0294967D01*
X0167760Y0294252D01*
X0168232Y0293603D01*
X0168800Y0293035D01*
X0169449Y0292563D01*
X0170164Y0292199D01*
X0170928Y0291951D01*
X0171721Y0291825D01*
X0171822Y0291825D01*
X0171822Y0296625D01*
X0167022Y0296625D01*
X0167022Y0296524D01*
X0167148Y0295731D01*
X0168051Y0293852D02*
X0162552Y0293852D01*
X0164150Y0292254D02*
X0170056Y0292254D01*
X0171822Y0292254D02*
X0172422Y0292254D01*
X0172422Y0293852D02*
X0171822Y0293852D01*
X0171822Y0295451D02*
X0172422Y0295451D01*
X0172422Y0298648D02*
X0171822Y0298648D01*
X0171822Y0300246D02*
X0172422Y0300246D01*
X0172422Y0303444D02*
X0171822Y0303444D01*
X0171822Y0305042D02*
X0172422Y0305042D01*
X0172422Y0306641D02*
X0197222Y0306641D01*
X0197363Y0308239D02*
X0177058Y0308239D01*
X0176873Y0305042D02*
X0197598Y0305042D01*
X0197532Y0298648D02*
X0186954Y0298648D01*
X0185356Y0297049D02*
X0197222Y0297049D01*
X0197429Y0295451D02*
X0183757Y0295451D01*
X0182159Y0293852D02*
X0196019Y0293852D01*
X0194420Y0292254D02*
X0180560Y0292254D01*
X0178961Y0290655D02*
X0192822Y0290655D01*
X0191223Y0289057D02*
X0177363Y0289057D01*
X0177022Y0287458D02*
X0189625Y0287458D01*
X0188026Y0285860D02*
X0176984Y0285860D01*
X0176322Y0284261D02*
X0186428Y0284261D01*
X0184829Y0282663D02*
X0174636Y0282663D01*
X0174913Y0281064D02*
X0183231Y0281064D01*
X0181632Y0279466D02*
X0176373Y0279466D01*
X0177022Y0277867D02*
X0180034Y0277867D01*
X0178435Y0276269D02*
X0177022Y0276269D01*
X0176837Y0274670D02*
X0176492Y0274670D01*
X0175238Y0273072D02*
X0175198Y0273072D01*
X0177981Y0269875D02*
X0195128Y0269875D01*
X0195128Y0271473D02*
X0179579Y0271473D01*
X0181178Y0273072D02*
X0195128Y0273072D01*
X0195128Y0274670D02*
X0182776Y0274670D01*
X0184375Y0276269D02*
X0195128Y0276269D01*
X0195128Y0277867D02*
X0185973Y0277867D01*
X0187572Y0279466D02*
X0195132Y0279466D01*
X0196731Y0281064D02*
X0189170Y0281064D01*
X0190769Y0282663D02*
X0198329Y0282663D01*
X0197922Y0284261D02*
X0192367Y0284261D01*
X0193966Y0285860D02*
X0197260Y0285860D01*
X0197222Y0287458D02*
X0195564Y0287458D01*
X0197163Y0289057D02*
X0197701Y0289057D01*
X0185810Y0303444D02*
X0175853Y0303444D01*
X0171822Y0306641D02*
X0158285Y0306641D01*
X0158285Y0308239D02*
X0167186Y0308239D01*
X0167371Y0305042D02*
X0158285Y0305042D01*
X0156916Y0303444D02*
X0168391Y0303444D01*
X0177005Y0295451D02*
X0177817Y0295451D01*
X0176219Y0293852D02*
X0176193Y0293852D01*
X0174620Y0292254D02*
X0174188Y0292254D01*
X0167260Y0285860D02*
X0162666Y0285860D01*
X0163741Y0282663D02*
X0169608Y0282663D01*
X0167922Y0284261D02*
X0159429Y0284261D01*
X0158665Y0285860D02*
X0157830Y0285860D01*
X0157066Y0287458D02*
X0156232Y0287458D01*
X0156465Y0289057D02*
X0154633Y0289057D01*
X0153035Y0290655D02*
X0156465Y0290655D01*
X0157180Y0292254D02*
X0151436Y0292254D01*
X0149838Y0293852D02*
X0158779Y0293852D01*
X0158256Y0276269D02*
X0133075Y0276269D01*
X0132728Y0274670D02*
X0167752Y0274670D01*
X0167222Y0276269D02*
X0163075Y0276269D01*
X0163332Y0273072D02*
X0169046Y0273072D01*
X0167222Y0266678D02*
X0163484Y0266678D01*
X0162924Y0263481D02*
X0168637Y0263481D01*
X0167583Y0265079D02*
X0132728Y0265079D01*
X0132924Y0263481D02*
X0158407Y0263481D01*
X0156809Y0261882D02*
X0134522Y0261882D01*
X0134865Y0260284D02*
X0156465Y0260284D01*
X0156465Y0258685D02*
X0144203Y0258685D01*
X0142254Y0258685D02*
X0134865Y0258685D01*
X0128407Y0263481D02*
X0124410Y0263481D01*
X0122828Y0265079D02*
X0128528Y0265079D01*
X0127847Y0266678D02*
X0122828Y0266678D01*
X0122828Y0268276D02*
X0126465Y0268276D01*
X0126465Y0269875D02*
X0122516Y0269875D01*
X0120917Y0271473D02*
X0126465Y0271473D01*
X0127998Y0273072D02*
X0119810Y0273072D01*
X0120705Y0274670D02*
X0128528Y0274670D01*
X0128256Y0276269D02*
X0120946Y0276269D01*
X0120662Y0277867D02*
X0126658Y0277867D01*
X0126465Y0279466D02*
X0119705Y0279466D01*
X0112796Y0282663D02*
X0092669Y0282663D01*
X0094267Y0284261D02*
X0111250Y0284261D01*
X0111250Y0285860D02*
X0095866Y0285860D01*
X0097464Y0287458D02*
X0111250Y0287458D01*
X0112083Y0289057D02*
X0099063Y0289057D01*
X0100661Y0290655D02*
X0113681Y0290655D01*
X0113205Y0292254D02*
X0102260Y0292254D01*
X0120182Y0303444D02*
X0128907Y0303444D01*
X0133332Y0273072D02*
X0157998Y0273072D01*
X0156465Y0271473D02*
X0134865Y0271473D01*
X0134865Y0269875D02*
X0156465Y0269875D01*
X0156465Y0268276D02*
X0134865Y0268276D01*
X0133484Y0266678D02*
X0157847Y0266678D01*
X0164522Y0261882D02*
X0193628Y0261882D01*
X0193832Y0260284D02*
X0175693Y0260284D01*
X0176697Y0258685D02*
X0194944Y0258685D01*
X0197222Y0257087D02*
X0177022Y0257087D01*
X0176831Y0255488D02*
X0197414Y0255488D01*
X0198228Y0253890D02*
X0176016Y0253890D01*
X0176538Y0249492D02*
X0197882Y0249492D01*
X0197222Y0247900D01*
X0197222Y0245951D01*
X0197968Y0244150D01*
X0198325Y0243792D01*
X0176150Y0243792D01*
X0176484Y0244252D01*
X0176848Y0244967D01*
X0177096Y0245731D01*
X0177222Y0246524D01*
X0177222Y0246625D01*
X0172422Y0246625D01*
X0172422Y0247225D01*
X0177222Y0247225D01*
X0177222Y0247327D01*
X0177096Y0248119D01*
X0176848Y0248883D01*
X0176538Y0249492D01*
X0176741Y0249094D02*
X0197717Y0249094D01*
X0197222Y0247496D02*
X0177195Y0247496D01*
X0177123Y0245897D02*
X0197244Y0245897D01*
X0197906Y0244299D02*
X0176508Y0244299D01*
X0175607Y0263481D02*
X0194155Y0263481D01*
X0195128Y0265079D02*
X0176661Y0265079D01*
X0177022Y0266678D02*
X0195128Y0266678D01*
X0195128Y0268276D02*
X0176866Y0268276D01*
X0126809Y0261882D02*
X0126008Y0261882D01*
X0177022Y0319392D02*
X0177022Y0320888D01*
X0176085Y0321825D01*
X0170465Y0321825D01*
X0169760Y0322531D01*
X0409636Y0322531D01*
X0409636Y0320314D01*
X0409429Y0320291D01*
X0408082Y0319984D01*
X0406778Y0319527D01*
X0405533Y0318928D01*
X0404363Y0318193D01*
X0403283Y0317332D01*
X0402306Y0316355D01*
X0401445Y0315275D01*
X0400710Y0314105D01*
X0400111Y0312860D01*
X0399654Y0311556D01*
X0399347Y0310209D01*
X0399204Y0308946D01*
X0409636Y0308946D01*
X0409636Y0307346D01*
X0399204Y0307346D01*
X0399347Y0306082D01*
X0399654Y0304735D01*
X0400111Y0303431D01*
X0400710Y0302187D01*
X0401445Y0301017D01*
X0402306Y0299937D01*
X0403283Y0298960D01*
X0404363Y0298098D01*
X0405533Y0297363D01*
X0406778Y0296764D01*
X0408082Y0296308D01*
X0409429Y0296000D01*
X0409636Y0295977D01*
X0409636Y0287692D01*
X0410723Y0286605D01*
X0421940Y0286605D01*
X0421940Y0267450D01*
X0415124Y0274266D01*
X0416085Y0274266D01*
X0419072Y0277254D01*
X0419072Y0279366D01*
X0413973Y0279366D01*
X0413973Y0279366D01*
X0419072Y0279366D01*
X0419072Y0281479D01*
X0416085Y0284466D01*
X0413972Y0284466D01*
X0411860Y0284466D01*
X0410192Y0282798D01*
X0408128Y0284862D01*
X0406898Y0286092D01*
X0389504Y0286092D01*
X0389828Y0286876D01*
X0389828Y0288308D01*
X0389280Y0289631D01*
X0388268Y0290644D01*
X0386944Y0291192D01*
X0385512Y0291192D01*
X0384189Y0290644D01*
X0383237Y0289692D01*
X0342098Y0289692D01*
X0332528Y0299262D01*
X0331298Y0300492D01*
X0285098Y0300492D01*
X0286877Y0302271D01*
X0287902Y0301246D01*
X0289593Y0300546D01*
X0291423Y0300546D01*
X0293114Y0301246D01*
X0294408Y0302540D01*
X0295108Y0304231D01*
X0295108Y0312061D01*
X0294408Y0313751D01*
X0293114Y0315045D01*
X0291423Y0315746D01*
X0289593Y0315746D01*
X0287902Y0315045D01*
X0287024Y0314167D01*
X0286298Y0314892D01*
X0283598Y0317592D01*
X0277358Y0317592D01*
X0270158Y0310392D01*
X0268612Y0310392D01*
X0268612Y0312061D01*
X0267911Y0313751D01*
X0266617Y0315045D01*
X0264927Y0315746D01*
X0263097Y0315746D01*
X0261406Y0315045D01*
X0260112Y0313751D01*
X0259412Y0312061D01*
X0259412Y0304231D01*
X0260112Y0302540D01*
X0260360Y0302292D01*
X0257872Y0302292D01*
X0258117Y0302630D01*
X0258460Y0303303D01*
X0258694Y0304022D01*
X0258812Y0304768D01*
X0258812Y0307946D01*
X0254212Y0307946D01*
X0254212Y0308346D01*
X0253812Y0308346D01*
X0253812Y0315946D01*
X0253634Y0315946D01*
X0252888Y0315827D01*
X0252169Y0315594D01*
X0251496Y0315251D01*
X0250885Y0314807D01*
X0250351Y0314273D01*
X0249906Y0313661D01*
X0249563Y0312988D01*
X0249330Y0312270D01*
X0249212Y0311523D01*
X0249212Y0308346D01*
X0253812Y0308346D01*
X0253812Y0307946D01*
X0249212Y0307946D01*
X0249212Y0304768D01*
X0249330Y0304022D01*
X0249563Y0303303D01*
X0249906Y0302630D01*
X0250152Y0302292D01*
X0247664Y0302292D01*
X0247911Y0302540D01*
X0248612Y0304231D01*
X0248612Y0312061D01*
X0247911Y0313751D01*
X0246617Y0315045D01*
X0244927Y0315746D01*
X0243097Y0315746D01*
X0241406Y0315045D01*
X0240112Y0313751D01*
X0239412Y0312061D01*
X0239412Y0304231D01*
X0240112Y0302540D01*
X0240360Y0302292D01*
X0233198Y0302292D01*
X0229728Y0305762D01*
X0230416Y0305762D01*
X0233403Y0308750D01*
X0233403Y0310862D01*
X0228303Y0310862D01*
X0228303Y0310862D01*
X0228303Y0315962D01*
X0226191Y0315962D01*
X0224659Y0314431D01*
X0222728Y0316362D01*
X0221498Y0317592D01*
X0207158Y0317592D01*
X0207022Y0317456D01*
X0207022Y0317900D01*
X0206276Y0319701D01*
X0204898Y0321079D01*
X0203097Y0321825D01*
X0201147Y0321825D01*
X0199346Y0321079D01*
X0197968Y0319701D01*
X0197840Y0319392D01*
X0177022Y0319392D01*
X0177022Y0319429D02*
X0197855Y0319429D01*
X0199294Y0321027D02*
X0176883Y0321027D01*
X0204950Y0321027D02*
X0409636Y0321027D01*
X0406573Y0319429D02*
X0206389Y0319429D01*
X0207022Y0317830D02*
X0403908Y0317830D01*
X0402208Y0316232D02*
X0328451Y0316232D01*
X0328334Y0316280D02*
X0326225Y0316280D01*
X0324277Y0315473D01*
X0322786Y0313983D01*
X0322395Y0313036D01*
X0322377Y0313092D01*
X0321984Y0313863D01*
X0321475Y0314563D01*
X0320863Y0315175D01*
X0320162Y0315684D01*
X0319391Y0316077D01*
X0318567Y0316345D01*
X0317712Y0316480D01*
X0317480Y0316480D01*
X0317480Y0311180D01*
X0317080Y0311180D01*
X0317079Y0311180D02*
X0317079Y0310780D01*
X0311780Y0310780D01*
X0311780Y0310547D01*
X0311915Y0309692D01*
X0312182Y0308869D01*
X0312576Y0308098D01*
X0313084Y0307397D01*
X0313697Y0306785D01*
X0314397Y0306276D01*
X0315168Y0305883D01*
X0315992Y0305616D01*
X0316847Y0305480D01*
X0317080Y0305480D01*
X0317080Y0310780D01*
X0317480Y0310780D01*
X0317480Y0305480D01*
X0317712Y0305480D01*
X0318567Y0305616D01*
X0319391Y0305883D01*
X0320162Y0306276D01*
X0320863Y0306785D01*
X0321475Y0307397D01*
X0321984Y0308098D01*
X0322377Y0308869D01*
X0322395Y0308924D01*
X0322786Y0307978D01*
X0324277Y0306487D01*
X0326225Y0305680D01*
X0328334Y0305680D01*
X0330282Y0306487D01*
X0331773Y0307978D01*
X0332580Y0309926D01*
X0332580Y0312035D01*
X0331773Y0313983D01*
X0330282Y0315473D01*
X0328334Y0316280D01*
X0326108Y0316232D02*
X0318916Y0316232D01*
X0317480Y0316232D02*
X0317080Y0316232D01*
X0317080Y0316480D02*
X0316847Y0316480D01*
X0315992Y0316345D01*
X0315168Y0316077D01*
X0314397Y0315684D01*
X0313697Y0315175D01*
X0313084Y0314563D01*
X0312576Y0313863D01*
X0312182Y0313092D01*
X0311915Y0312268D01*
X0311780Y0311413D01*
X0311780Y0311180D01*
X0317079Y0311180D01*
X0317080Y0311180D02*
X0317080Y0316480D01*
X0315643Y0316232D02*
X0284959Y0316232D01*
X0286298Y0314892D02*
X0286298Y0314892D01*
X0286557Y0314633D02*
X0287490Y0314633D01*
X0293526Y0314633D02*
X0313154Y0314633D01*
X0312164Y0313035D02*
X0294704Y0313035D01*
X0295108Y0311436D02*
X0311783Y0311436D01*
X0311892Y0309838D02*
X0295108Y0309838D01*
X0295108Y0308239D02*
X0312503Y0308239D01*
X0313896Y0306641D02*
X0295108Y0306641D01*
X0295108Y0305042D02*
X0354359Y0305042D01*
X0354031Y0305370D02*
X0355409Y0303992D01*
X0357210Y0303246D01*
X0359160Y0303246D01*
X0360961Y0303992D01*
X0362339Y0305370D01*
X0363085Y0307171D01*
X0363085Y0309120D01*
X0362339Y0310921D01*
X0360961Y0312300D01*
X0359160Y0313046D01*
X0357210Y0313046D01*
X0355409Y0312300D01*
X0354031Y0310921D01*
X0353285Y0309120D01*
X0353285Y0307171D01*
X0354031Y0305370D01*
X0353505Y0306641D02*
X0330435Y0306641D01*
X0331881Y0308239D02*
X0353285Y0308239D01*
X0353582Y0309838D02*
X0332543Y0309838D01*
X0332580Y0311436D02*
X0354546Y0311436D01*
X0357184Y0313035D02*
X0332165Y0313035D01*
X0331122Y0314633D02*
X0401042Y0314633D01*
X0400195Y0313035D02*
X0379186Y0313035D01*
X0379160Y0313046D02*
X0377210Y0313046D01*
X0375409Y0312300D01*
X0374031Y0310921D01*
X0373285Y0309120D01*
X0373285Y0307171D01*
X0374031Y0305370D01*
X0375409Y0303992D01*
X0377210Y0303246D01*
X0379160Y0303246D01*
X0380961Y0303992D01*
X0382339Y0305370D01*
X0383085Y0307171D01*
X0383085Y0309120D01*
X0382339Y0310921D01*
X0380961Y0312300D01*
X0379160Y0313046D01*
X0377184Y0313035D02*
X0369186Y0313035D01*
X0369160Y0313046D02*
X0367210Y0313046D01*
X0365409Y0312300D01*
X0364031Y0310921D01*
X0363285Y0309120D01*
X0363285Y0307171D01*
X0364031Y0305370D01*
X0365409Y0303992D01*
X0367210Y0303246D01*
X0369160Y0303246D01*
X0370961Y0303992D01*
X0372339Y0305370D01*
X0373085Y0307171D01*
X0373085Y0309120D01*
X0372339Y0310921D01*
X0370961Y0312300D01*
X0369160Y0313046D01*
X0367184Y0313035D02*
X0359186Y0313035D01*
X0361824Y0311436D02*
X0364546Y0311436D01*
X0363582Y0309838D02*
X0362788Y0309838D01*
X0363085Y0308239D02*
X0363285Y0308239D01*
X0363505Y0306641D02*
X0362865Y0306641D01*
X0362011Y0305042D02*
X0364359Y0305042D01*
X0366733Y0303444D02*
X0359637Y0303444D01*
X0356733Y0303444D02*
X0294782Y0303444D01*
X0293713Y0301845D02*
X0400925Y0301845D01*
X0400106Y0303444D02*
X0379637Y0303444D01*
X0382011Y0305042D02*
X0399584Y0305042D01*
X0399284Y0306641D02*
X0382865Y0306641D01*
X0383085Y0308239D02*
X0409636Y0308239D01*
X0399305Y0309838D02*
X0382788Y0309838D01*
X0381824Y0311436D02*
X0399627Y0311436D01*
X0402059Y0300246D02*
X0331544Y0300246D01*
X0333142Y0298648D02*
X0403674Y0298648D01*
X0406185Y0297049D02*
X0334741Y0297049D01*
X0336339Y0295451D02*
X0409636Y0295451D01*
X0409636Y0293852D02*
X0337938Y0293852D01*
X0339536Y0292254D02*
X0409636Y0292254D01*
X0409636Y0290655D02*
X0388240Y0290655D01*
X0389518Y0289057D02*
X0409636Y0289057D01*
X0409870Y0287458D02*
X0389828Y0287458D01*
X0384217Y0290655D02*
X0341135Y0290655D01*
X0318339Y0292985D02*
X0313039Y0292985D01*
X0313039Y0292752D01*
X0313175Y0291897D01*
X0313442Y0291074D01*
X0313835Y0290302D01*
X0314344Y0289602D01*
X0314956Y0288990D01*
X0315657Y0288481D01*
X0316428Y0288088D01*
X0317251Y0287820D01*
X0317714Y0287747D01*
X0316958Y0286992D01*
X0276104Y0286992D01*
X0276428Y0287776D01*
X0276428Y0289122D01*
X0283598Y0296292D01*
X0313998Y0296292D01*
X0313835Y0296068D01*
X0313442Y0295296D01*
X0313175Y0294473D01*
X0313039Y0293618D01*
X0313039Y0293385D01*
X0318339Y0293385D01*
X0318339Y0292985D01*
X0314889Y0289057D02*
X0276428Y0289057D01*
X0276297Y0287458D02*
X0317425Y0287458D01*
X0313655Y0290655D02*
X0277961Y0290655D01*
X0279560Y0292254D02*
X0313118Y0292254D01*
X0313077Y0293852D02*
X0281159Y0293852D01*
X0282757Y0295451D02*
X0313521Y0295451D01*
X0317080Y0306641D02*
X0317480Y0306641D01*
X0317480Y0308239D02*
X0317080Y0308239D01*
X0317080Y0309838D02*
X0317480Y0309838D01*
X0317480Y0311436D02*
X0317080Y0311436D01*
X0317080Y0313035D02*
X0317480Y0313035D01*
X0317480Y0314633D02*
X0317080Y0314633D01*
X0321405Y0314633D02*
X0323437Y0314633D01*
X0322678Y0308239D02*
X0322056Y0308239D01*
X0320663Y0306641D02*
X0324124Y0306641D01*
X0287303Y0301845D02*
X0286451Y0301845D01*
X0272801Y0313035D02*
X0268208Y0313035D01*
X0268612Y0311436D02*
X0271202Y0311436D01*
X0274399Y0314633D02*
X0267030Y0314633D01*
X0260994Y0314633D02*
X0257313Y0314633D01*
X0257139Y0314807D02*
X0256528Y0315251D01*
X0255854Y0315594D01*
X0255136Y0315827D01*
X0254390Y0315946D01*
X0254212Y0315946D01*
X0254212Y0308346D01*
X0258812Y0308346D01*
X0258812Y0311523D01*
X0258694Y0312270D01*
X0258460Y0312988D01*
X0258117Y0313661D01*
X0257673Y0314273D01*
X0257139Y0314807D01*
X0258437Y0313035D02*
X0259815Y0313035D01*
X0259412Y0311436D02*
X0258812Y0311436D01*
X0258812Y0309838D02*
X0259412Y0309838D01*
X0259412Y0308239D02*
X0254212Y0308239D01*
X0253812Y0308239D02*
X0248612Y0308239D01*
X0248612Y0306641D02*
X0249212Y0306641D01*
X0249212Y0305042D02*
X0248612Y0305042D01*
X0248286Y0303444D02*
X0249518Y0303444D01*
X0249212Y0309838D02*
X0248612Y0309838D01*
X0248612Y0311436D02*
X0249212Y0311436D01*
X0249587Y0313035D02*
X0248208Y0313035D01*
X0247030Y0314633D02*
X0250711Y0314633D01*
X0253812Y0314633D02*
X0254212Y0314633D01*
X0254212Y0313035D02*
X0253812Y0313035D01*
X0253812Y0311436D02*
X0254212Y0311436D01*
X0254212Y0309838D02*
X0253812Y0309838D01*
X0258812Y0306641D02*
X0259412Y0306641D01*
X0259412Y0305042D02*
X0258812Y0305042D01*
X0258506Y0303444D02*
X0259738Y0303444D01*
X0239738Y0303444D02*
X0232047Y0303444D01*
X0230448Y0305042D02*
X0239412Y0305042D01*
X0239412Y0306641D02*
X0231294Y0306641D01*
X0232892Y0308239D02*
X0239412Y0308239D01*
X0239412Y0309838D02*
X0233403Y0309838D01*
X0233403Y0310862D02*
X0228303Y0310862D01*
X0228303Y0310862D01*
X0228303Y0315962D01*
X0230416Y0315962D01*
X0233403Y0312975D01*
X0233403Y0310862D01*
X0233403Y0311436D02*
X0239412Y0311436D01*
X0239815Y0313035D02*
X0233343Y0313035D01*
X0231745Y0314633D02*
X0240994Y0314633D01*
X0228303Y0314633D02*
X0228303Y0314633D01*
X0228303Y0313035D02*
X0228303Y0313035D01*
X0228303Y0311436D02*
X0228303Y0311436D01*
X0224862Y0314633D02*
X0224457Y0314633D01*
X0222859Y0316232D02*
X0275998Y0316232D01*
X0303398Y0272892D02*
X0320237Y0272892D01*
X0321189Y0271940D01*
X0322512Y0271392D01*
X0323944Y0271392D01*
X0325268Y0271940D01*
X0326220Y0272892D01*
X0368258Y0272892D01*
X0375030Y0266121D01*
X0375030Y0263027D01*
X0377870Y0260187D01*
X0381886Y0260187D01*
X0384726Y0263027D01*
X0384726Y0267044D01*
X0381886Y0269883D01*
X0377870Y0269883D01*
X0377538Y0269552D01*
X0370598Y0276492D01*
X0399917Y0276492D01*
X0401943Y0274466D01*
X0406002Y0274466D01*
X0407493Y0275957D01*
X0407858Y0275592D01*
X0420128Y0263322D01*
X0420128Y0259941D01*
X0418470Y0260628D01*
X0416640Y0260628D01*
X0414949Y0259927D01*
X0413655Y0258633D01*
X0412955Y0256943D01*
X0412955Y0251589D01*
X0412355Y0250989D01*
X0412355Y0252828D01*
X0407755Y0252828D01*
X0407755Y0253228D01*
X0407355Y0253228D01*
X0407355Y0260828D01*
X0407177Y0260828D01*
X0406431Y0260709D01*
X0405713Y0260476D01*
X0405039Y0260133D01*
X0404428Y0259689D01*
X0403894Y0259155D01*
X0403450Y0258543D01*
X0403107Y0257870D01*
X0402873Y0257152D01*
X0402755Y0256405D01*
X0402755Y0253228D01*
X0407355Y0253228D01*
X0407355Y0252828D01*
X0402755Y0252828D01*
X0402755Y0249650D01*
X0402873Y0248904D01*
X0403107Y0248185D01*
X0403450Y0247512D01*
X0403537Y0247392D01*
X0401425Y0247392D01*
X0401455Y0247422D01*
X0402155Y0249113D01*
X0402155Y0256943D01*
X0401455Y0258633D01*
X0400161Y0259927D01*
X0398470Y0260628D01*
X0396640Y0260628D01*
X0394949Y0259927D01*
X0393655Y0258633D01*
X0392955Y0256943D01*
X0392955Y0249113D01*
X0393655Y0247422D01*
X0393685Y0247392D01*
X0387098Y0247392D01*
X0383828Y0250662D01*
X0383094Y0251396D01*
X0383988Y0252289D01*
X0384726Y0254071D01*
X0384726Y0256000D01*
X0383988Y0257782D01*
X0382624Y0259145D01*
X0380842Y0259883D01*
X0378914Y0259883D01*
X0377132Y0259145D01*
X0375768Y0257782D01*
X0375565Y0257292D01*
X0337598Y0257292D01*
X0334387Y0260503D01*
X0334566Y0260682D01*
X0334803Y0261093D01*
X0334926Y0261550D01*
X0334926Y0264753D01*
X0330161Y0264753D01*
X0330161Y0265318D01*
X0334926Y0265318D01*
X0334926Y0268520D01*
X0334803Y0268978D01*
X0334566Y0269389D01*
X0334231Y0269724D01*
X0333821Y0269961D01*
X0333363Y0270083D01*
X0330161Y0270083D01*
X0330161Y0265318D01*
X0329595Y0265318D01*
X0329595Y0264753D01*
X0324830Y0264753D01*
X0324830Y0261792D01*
X0315420Y0261792D01*
X0314468Y0262744D01*
X0313144Y0263292D01*
X0311712Y0263292D01*
X0310389Y0262744D01*
X0309376Y0261731D01*
X0308961Y0260729D01*
X0305198Y0264492D01*
X0302027Y0264492D01*
X0301630Y0265449D01*
X0300252Y0266827D01*
X0298451Y0267573D01*
X0298079Y0267573D01*
X0303398Y0272892D01*
X0301979Y0271473D02*
X0322316Y0271473D01*
X0324140Y0271473D02*
X0369677Y0271473D01*
X0371276Y0269875D02*
X0333970Y0269875D01*
X0334926Y0268276D02*
X0372874Y0268276D01*
X0374473Y0266678D02*
X0334926Y0266678D01*
X0334926Y0263481D02*
X0375030Y0263481D01*
X0375030Y0265079D02*
X0330161Y0265079D01*
X0329595Y0265079D02*
X0301783Y0265079D01*
X0300401Y0266678D02*
X0324830Y0266678D01*
X0324830Y0265318D02*
X0329595Y0265318D01*
X0329595Y0270083D01*
X0326393Y0270083D01*
X0325935Y0269961D01*
X0325525Y0269724D01*
X0325190Y0269389D01*
X0324953Y0268978D01*
X0324830Y0268520D01*
X0324830Y0265318D01*
X0324830Y0263481D02*
X0306210Y0263481D01*
X0307808Y0261882D02*
X0309527Y0261882D01*
X0315329Y0261882D02*
X0324830Y0261882D01*
X0329595Y0266678D02*
X0330161Y0266678D01*
X0330161Y0268276D02*
X0329595Y0268276D01*
X0329595Y0269875D02*
X0330161Y0269875D01*
X0325786Y0269875D02*
X0300381Y0269875D01*
X0298782Y0268276D02*
X0324830Y0268276D01*
X0334926Y0261882D02*
X0376175Y0261882D01*
X0377774Y0260284D02*
X0334607Y0260284D01*
X0336205Y0258685D02*
X0376672Y0258685D01*
X0381982Y0260284D02*
X0395810Y0260284D01*
X0393707Y0258685D02*
X0383084Y0258685D01*
X0384276Y0257087D02*
X0393015Y0257087D01*
X0392955Y0255488D02*
X0384726Y0255488D01*
X0384651Y0253890D02*
X0392955Y0253890D01*
X0392955Y0252291D02*
X0383989Y0252291D01*
X0383798Y0250693D02*
X0392955Y0250693D01*
X0392963Y0249094D02*
X0385396Y0249094D01*
X0386995Y0247496D02*
X0393625Y0247496D01*
X0401485Y0247496D02*
X0403462Y0247496D01*
X0402843Y0249094D02*
X0402147Y0249094D01*
X0402155Y0250693D02*
X0402755Y0250693D01*
X0402755Y0252291D02*
X0402155Y0252291D01*
X0402155Y0253890D02*
X0402755Y0253890D01*
X0402755Y0255488D02*
X0402155Y0255488D01*
X0402095Y0257087D02*
X0402863Y0257087D01*
X0403553Y0258685D02*
X0401403Y0258685D01*
X0399300Y0260284D02*
X0405335Y0260284D01*
X0407355Y0260284D02*
X0407755Y0260284D01*
X0407755Y0260828D02*
X0407755Y0253228D01*
X0412355Y0253228D01*
X0412355Y0256405D01*
X0412237Y0257152D01*
X0412003Y0257870D01*
X0411660Y0258543D01*
X0411216Y0259155D01*
X0410682Y0259689D01*
X0410071Y0260133D01*
X0409398Y0260476D01*
X0408679Y0260709D01*
X0407933Y0260828D01*
X0407755Y0260828D01*
X0409775Y0260284D02*
X0415810Y0260284D01*
X0413707Y0258685D02*
X0411557Y0258685D01*
X0412247Y0257087D02*
X0413015Y0257087D01*
X0412955Y0255488D02*
X0412355Y0255488D01*
X0412355Y0253890D02*
X0412955Y0253890D01*
X0412955Y0252291D02*
X0412355Y0252291D01*
X0407755Y0253890D02*
X0407355Y0253890D01*
X0407355Y0255488D02*
X0407755Y0255488D01*
X0407755Y0257087D02*
X0407355Y0257087D01*
X0407355Y0258685D02*
X0407755Y0258685D01*
X0419300Y0260284D02*
X0420128Y0260284D01*
X0420128Y0261882D02*
X0383581Y0261882D01*
X0384726Y0263481D02*
X0419970Y0263481D01*
X0418371Y0265079D02*
X0384726Y0265079D01*
X0384726Y0266678D02*
X0416773Y0266678D01*
X0415174Y0268276D02*
X0383493Y0268276D01*
X0381895Y0269875D02*
X0413576Y0269875D01*
X0411977Y0271473D02*
X0375617Y0271473D01*
X0377216Y0269875D02*
X0377861Y0269875D01*
X0374019Y0273072D02*
X0410379Y0273072D01*
X0408780Y0274670D02*
X0406206Y0274670D01*
X0401739Y0274670D02*
X0372420Y0274670D01*
X0370821Y0276269D02*
X0400140Y0276269D01*
X0408729Y0284261D02*
X0411655Y0284261D01*
X0413972Y0284261D02*
X0413972Y0284261D01*
X0413972Y0284466D02*
X0413972Y0279366D01*
X0413972Y0279366D01*
X0413972Y0284466D01*
X0413972Y0282663D02*
X0413972Y0282663D01*
X0413972Y0281064D02*
X0413972Y0281064D01*
X0413972Y0279466D02*
X0413972Y0279466D01*
X0417888Y0282663D02*
X0421940Y0282663D01*
X0421940Y0284261D02*
X0416290Y0284261D01*
X0419072Y0281064D02*
X0421940Y0281064D01*
X0421940Y0279466D02*
X0419072Y0279466D01*
X0419072Y0277867D02*
X0421940Y0277867D01*
X0421940Y0276269D02*
X0418088Y0276269D01*
X0416489Y0274670D02*
X0421940Y0274670D01*
X0421940Y0273072D02*
X0416318Y0273072D01*
X0417917Y0271473D02*
X0421940Y0271473D01*
X0421940Y0269875D02*
X0419516Y0269875D01*
X0421114Y0268276D02*
X0421940Y0268276D01*
X0421940Y0285860D02*
X0407130Y0285860D01*
X0376733Y0303444D02*
X0369637Y0303444D01*
X0372011Y0305042D02*
X0374359Y0305042D01*
X0373505Y0306641D02*
X0372865Y0306641D01*
X0373085Y0308239D02*
X0373285Y0308239D01*
X0373582Y0309838D02*
X0372788Y0309838D01*
X0371824Y0311436D02*
X0374546Y0311436D01*
X0414192Y0246886D02*
X0411728Y0244422D01*
X0410498Y0243192D01*
X0385358Y0243192D01*
X0384654Y0243897D01*
X0383988Y0242289D01*
X0382624Y0240925D01*
X0380842Y0240187D01*
X0378914Y0240187D01*
X0377132Y0240925D01*
X0375768Y0242289D01*
X0375767Y0242292D01*
X0336698Y0242292D01*
X0333428Y0239022D01*
X0333088Y0238682D01*
X0333988Y0237782D01*
X0334726Y0236000D01*
X0334726Y0234071D01*
X0333988Y0232289D01*
X0332624Y0230925D01*
X0330842Y0230187D01*
X0328914Y0230187D01*
X0328404Y0230398D01*
X0327165Y0229159D01*
X0328914Y0229883D01*
X0330842Y0229883D01*
X0331555Y0229588D01*
X0334058Y0232092D01*
X0375965Y0232092D01*
X0375030Y0233027D01*
X0375030Y0237044D01*
X0377870Y0239883D01*
X0381886Y0239883D01*
X0384726Y0237044D01*
X0384726Y0233027D01*
X0383791Y0232092D01*
X0408698Y0232092D01*
X0409928Y0230862D01*
X0413123Y0227668D01*
X0413886Y0228431D01*
X0415577Y0229131D01*
X0417407Y0229131D01*
X0419098Y0228431D01*
X0420128Y0227401D01*
X0420128Y0246114D01*
X0418470Y0245428D01*
X0416640Y0245428D01*
X0414949Y0246128D01*
X0414192Y0246886D01*
X0413203Y0245897D02*
X0415507Y0245897D01*
X0419604Y0245897D02*
X0420128Y0245897D01*
X0420128Y0244299D02*
X0411605Y0244299D01*
X0420128Y0242700D02*
X0384158Y0242700D01*
X0382800Y0241102D02*
X0420128Y0241102D01*
X0420128Y0239503D02*
X0382266Y0239503D01*
X0383865Y0237905D02*
X0420128Y0237905D01*
X0420128Y0236306D02*
X0384726Y0236306D01*
X0384726Y0234708D02*
X0420128Y0234708D01*
X0420128Y0233109D02*
X0384726Y0233109D01*
X0377489Y0239503D02*
X0333909Y0239503D01*
X0333865Y0237905D02*
X0375891Y0237905D01*
X0375030Y0236306D02*
X0334599Y0236306D01*
X0334726Y0234708D02*
X0375030Y0234708D01*
X0375030Y0233109D02*
X0334327Y0233109D01*
X0333477Y0231511D02*
X0333209Y0231511D01*
X0331878Y0229912D02*
X0327918Y0229912D01*
X0335508Y0241102D02*
X0376956Y0241102D01*
X0383498Y0218892D02*
X0401892Y0218892D01*
X0401892Y0217616D01*
X0402592Y0215926D01*
X0403886Y0214632D01*
X0405577Y0213931D01*
X0407407Y0213931D01*
X0409098Y0214632D01*
X0410392Y0215926D01*
X0411092Y0217616D01*
X0411092Y0223759D01*
X0411892Y0222958D01*
X0411892Y0217616D01*
X0412592Y0215926D01*
X0413886Y0214632D01*
X0415577Y0213931D01*
X0415798Y0213931D01*
X0405728Y0203862D01*
X0405728Y0202122D01*
X0405728Y0199362D01*
X0365487Y0159120D01*
X0365487Y0160648D01*
X0362616Y0163518D01*
X0358557Y0163518D01*
X0356031Y0160992D01*
X0336836Y0160992D01*
X0336230Y0162457D01*
X0334851Y0163835D01*
X0333050Y0164581D01*
X0324501Y0164581D01*
X0322700Y0163835D01*
X0322628Y0163763D01*
X0322628Y0176022D01*
X0336698Y0190092D01*
X0337928Y0191322D01*
X0337928Y0205401D01*
X0338880Y0206353D01*
X0339428Y0207676D01*
X0339428Y0209108D01*
X0338880Y0210431D01*
X0337868Y0211444D01*
X0336865Y0211859D01*
X0337598Y0212592D01*
X0375643Y0212592D01*
X0375768Y0212289D01*
X0377132Y0210925D01*
X0378914Y0210187D01*
X0380842Y0210187D01*
X0382624Y0210925D01*
X0383988Y0212289D01*
X0384726Y0214071D01*
X0384726Y0216000D01*
X0383988Y0217782D01*
X0383188Y0218582D01*
X0383498Y0218892D01*
X0383328Y0218722D02*
X0401892Y0218722D01*
X0402096Y0217124D02*
X0384260Y0217124D01*
X0384726Y0215525D02*
X0402993Y0215525D01*
X0409991Y0215525D02*
X0412993Y0215525D01*
X0412096Y0217124D02*
X0410888Y0217124D01*
X0411092Y0218722D02*
X0411892Y0218722D01*
X0411892Y0220321D02*
X0411092Y0220321D01*
X0411092Y0221919D02*
X0411892Y0221919D01*
X0411333Y0223518D02*
X0411092Y0223518D01*
X0412477Y0228313D02*
X0413769Y0228313D01*
X0410878Y0229912D02*
X0420128Y0229912D01*
X0420128Y0231511D02*
X0409280Y0231511D01*
X0419216Y0228313D02*
X0420128Y0228313D01*
X0421940Y0214134D02*
X0421940Y0084233D01*
X0421455Y0085405D01*
X0420161Y0086699D01*
X0418470Y0087399D01*
X0416640Y0087399D01*
X0414949Y0086699D01*
X0413655Y0085405D01*
X0412955Y0083714D01*
X0412955Y0075884D01*
X0413655Y0074194D01*
X0414516Y0073333D01*
X0410877Y0073333D01*
X0411216Y0073672D01*
X0411660Y0074283D01*
X0412003Y0074957D01*
X0412237Y0075675D01*
X0412355Y0076421D01*
X0412355Y0079599D01*
X0407755Y0079599D01*
X0407755Y0079999D01*
X0412355Y0079999D01*
X0412355Y0083177D01*
X0412237Y0083923D01*
X0412003Y0084642D01*
X0411660Y0085315D01*
X0411216Y0085926D01*
X0410682Y0086460D01*
X0410071Y0086905D01*
X0409398Y0087248D01*
X0408679Y0087481D01*
X0407933Y0087599D01*
X0407755Y0087599D01*
X0407755Y0079999D01*
X0407355Y0079999D01*
X0407355Y0079599D01*
X0402755Y0079599D01*
X0402755Y0076421D01*
X0402873Y0075675D01*
X0403107Y0074957D01*
X0403450Y0074283D01*
X0403894Y0073672D01*
X0404233Y0073333D01*
X0400594Y0073333D01*
X0401455Y0074194D01*
X0402155Y0075884D01*
X0402155Y0083714D01*
X0401455Y0085405D01*
X0400161Y0086699D01*
X0398470Y0087399D01*
X0396640Y0087399D01*
X0394949Y0086699D01*
X0393655Y0085405D01*
X0392955Y0083714D01*
X0392955Y0075884D01*
X0393655Y0074194D01*
X0394516Y0073333D01*
X0387260Y0073333D01*
X0386172Y0072246D01*
X0385272Y0071346D01*
X0385272Y0069808D01*
X0386172Y0068908D01*
X0386172Y0041792D01*
X0293698Y0041792D01*
X0293828Y0041922D01*
X0307404Y0055498D01*
X0307404Y0048325D01*
X0308104Y0046634D01*
X0309398Y0045340D01*
X0311089Y0044640D01*
X0312919Y0044640D01*
X0314610Y0045340D01*
X0315904Y0046634D01*
X0316604Y0048325D01*
X0316604Y0056155D01*
X0315926Y0057792D01*
X0318082Y0057792D01*
X0317404Y0056155D01*
X0317404Y0048325D01*
X0318104Y0046634D01*
X0319398Y0045340D01*
X0321089Y0044640D01*
X0322919Y0044640D01*
X0324610Y0045340D01*
X0325904Y0046634D01*
X0326604Y0048325D01*
X0326604Y0056155D01*
X0325904Y0057846D01*
X0324610Y0059140D01*
X0324565Y0059159D01*
X0353061Y0087655D01*
X0353476Y0086653D01*
X0354489Y0085640D01*
X0355812Y0085092D01*
X0357244Y0085092D01*
X0358568Y0085640D01*
X0359580Y0086653D01*
X0360128Y0087976D01*
X0360128Y0089322D01*
X0375398Y0104592D01*
X0401892Y0104592D01*
X0401892Y0103443D01*
X0402592Y0101753D01*
X0403886Y0100459D01*
X0405577Y0099758D01*
X0407407Y0099758D01*
X0409098Y0100459D01*
X0410392Y0101753D01*
X0411092Y0103443D01*
X0411092Y0111273D01*
X0410392Y0112964D01*
X0409098Y0114258D01*
X0407407Y0114958D01*
X0405577Y0114958D01*
X0403886Y0114258D01*
X0402592Y0112964D01*
X0401892Y0111273D01*
X0401892Y0108792D01*
X0374198Y0108792D01*
X0400865Y0135458D01*
X0402569Y0133754D01*
X0404681Y0133754D01*
X0404681Y0138854D01*
X0404681Y0138854D01*
X0404681Y0133754D01*
X0406794Y0133754D01*
X0409781Y0136742D01*
X0409781Y0138854D01*
X0404681Y0138854D01*
X0404681Y0138854D01*
X0409781Y0138854D01*
X0409781Y0140967D01*
X0406794Y0143954D01*
X0406629Y0143954D01*
X0406928Y0144676D01*
X0406928Y0146108D01*
X0406380Y0147431D01*
X0405368Y0148444D01*
X0404044Y0148992D01*
X0402612Y0148992D01*
X0401289Y0148444D01*
X0400276Y0147431D01*
X0399728Y0146108D01*
X0399728Y0144762D01*
X0398858Y0143892D01*
X0397716Y0142749D01*
X0397328Y0143137D01*
X0397328Y0182322D01*
X0410798Y0195792D01*
X0412144Y0195792D01*
X0413468Y0196340D01*
X0414480Y0197353D01*
X0415028Y0198676D01*
X0415028Y0200108D01*
X0414480Y0201431D01*
X0413468Y0202444D01*
X0412144Y0202992D01*
X0410798Y0202992D01*
X0421940Y0214134D01*
X0421940Y0213927D02*
X0421733Y0213927D01*
X0421940Y0212328D02*
X0420134Y0212328D01*
X0418536Y0210730D02*
X0421940Y0210730D01*
X0421940Y0209131D02*
X0416937Y0209131D01*
X0415339Y0207533D02*
X0421940Y0207533D01*
X0421940Y0205934D02*
X0413740Y0205934D01*
X0412142Y0204336D02*
X0421940Y0204336D01*
X0421940Y0202737D02*
X0412760Y0202737D01*
X0414601Y0201139D02*
X0421940Y0201139D01*
X0421940Y0199540D02*
X0415028Y0199540D01*
X0414724Y0197942D02*
X0421940Y0197942D01*
X0421940Y0196343D02*
X0413471Y0196343D01*
X0409751Y0194745D02*
X0421940Y0194745D01*
X0421940Y0193146D02*
X0408152Y0193146D01*
X0406554Y0191548D02*
X0421940Y0191548D01*
X0421940Y0189949D02*
X0404955Y0189949D01*
X0403357Y0188351D02*
X0421940Y0188351D01*
X0421940Y0186752D02*
X0401758Y0186752D01*
X0400160Y0185154D02*
X0421940Y0185154D01*
X0421940Y0183555D02*
X0398561Y0183555D01*
X0397328Y0181957D02*
X0421940Y0181957D01*
X0421940Y0180358D02*
X0397328Y0180358D01*
X0397328Y0178760D02*
X0421940Y0178760D01*
X0421940Y0177161D02*
X0397328Y0177161D01*
X0397328Y0175563D02*
X0421940Y0175563D01*
X0421940Y0173964D02*
X0397328Y0173964D01*
X0397328Y0172366D02*
X0421940Y0172366D01*
X0421940Y0170767D02*
X0397328Y0170767D01*
X0397328Y0169169D02*
X0421940Y0169169D01*
X0421940Y0167570D02*
X0397328Y0167570D01*
X0397328Y0165972D02*
X0421940Y0165972D01*
X0421940Y0164373D02*
X0397328Y0164373D01*
X0397328Y0162775D02*
X0421940Y0162775D01*
X0421940Y0161176D02*
X0397328Y0161176D01*
X0397328Y0159577D02*
X0421940Y0159577D01*
X0421940Y0157979D02*
X0397328Y0157979D01*
X0397328Y0156380D02*
X0421940Y0156380D01*
X0421940Y0154782D02*
X0397328Y0154782D01*
X0397328Y0153183D02*
X0421940Y0153183D01*
X0421940Y0151585D02*
X0397328Y0151585D01*
X0397328Y0149986D02*
X0421940Y0149986D01*
X0421940Y0148388D02*
X0405424Y0148388D01*
X0406646Y0146789D02*
X0421940Y0146789D01*
X0421940Y0145191D02*
X0406928Y0145191D01*
X0407156Y0143592D02*
X0421940Y0143592D01*
X0421940Y0141994D02*
X0408754Y0141994D01*
X0409781Y0140395D02*
X0421940Y0140395D01*
X0421940Y0138797D02*
X0409781Y0138797D01*
X0409781Y0137198D02*
X0421940Y0137198D01*
X0421940Y0135600D02*
X0408639Y0135600D01*
X0407041Y0134001D02*
X0421940Y0134001D01*
X0421940Y0132403D02*
X0397809Y0132403D01*
X0399407Y0134001D02*
X0402322Y0134001D01*
X0404681Y0134001D02*
X0404681Y0134001D01*
X0404681Y0135600D02*
X0404681Y0135600D01*
X0404681Y0137198D02*
X0404681Y0137198D01*
X0404681Y0138797D02*
X0404681Y0138797D01*
X0398559Y0143592D02*
X0397328Y0143592D01*
X0397328Y0145191D02*
X0399728Y0145191D01*
X0400011Y0146789D02*
X0397328Y0146789D01*
X0397328Y0148388D02*
X0401233Y0148388D01*
X0393128Y0148388D02*
X0360694Y0148388D01*
X0362292Y0149986D02*
X0393128Y0149986D01*
X0393128Y0151585D02*
X0363891Y0151585D01*
X0365490Y0153183D02*
X0393128Y0153183D01*
X0393128Y0154782D02*
X0367088Y0154782D01*
X0368687Y0156380D02*
X0393128Y0156380D01*
X0393128Y0157979D02*
X0370285Y0157979D01*
X0371884Y0159577D02*
X0393128Y0159577D01*
X0393128Y0161176D02*
X0373482Y0161176D01*
X0375081Y0162775D02*
X0393128Y0162775D01*
X0393128Y0164373D02*
X0376679Y0164373D01*
X0378278Y0165972D02*
X0393128Y0165972D01*
X0393128Y0167570D02*
X0379876Y0167570D01*
X0381475Y0169169D02*
X0393128Y0169169D01*
X0393128Y0170767D02*
X0383073Y0170767D01*
X0384672Y0172366D02*
X0393128Y0172366D01*
X0393128Y0173964D02*
X0386270Y0173964D01*
X0387869Y0175563D02*
X0393128Y0175563D01*
X0393128Y0177161D02*
X0389467Y0177161D01*
X0391066Y0178760D02*
X0393128Y0178760D01*
X0393128Y0180358D02*
X0392664Y0180358D01*
X0393128Y0180822D02*
X0393128Y0143754D01*
X0392651Y0143754D01*
X0389781Y0140884D01*
X0389781Y0136825D01*
X0392651Y0133954D01*
X0393421Y0133954D01*
X0321458Y0061992D01*
X0307958Y0061992D01*
X0296171Y0050204D01*
X0296171Y0056155D01*
X0295471Y0057846D01*
X0294177Y0059140D01*
X0292486Y0059840D01*
X0290656Y0059840D01*
X0288965Y0059140D01*
X0287671Y0057846D01*
X0286971Y0056155D01*
X0286971Y0048325D01*
X0287671Y0046634D01*
X0288965Y0045340D01*
X0290048Y0044892D01*
X0283610Y0044892D01*
X0284087Y0045135D01*
X0284698Y0045579D01*
X0285232Y0046113D01*
X0285676Y0046724D01*
X0286019Y0047398D01*
X0286253Y0048116D01*
X0286371Y0048862D01*
X0286371Y0052040D01*
X0281771Y0052040D01*
X0281771Y0052440D01*
X0286371Y0052440D01*
X0286371Y0055618D01*
X0286253Y0056364D01*
X0286019Y0057083D01*
X0285676Y0057756D01*
X0285232Y0058367D01*
X0284698Y0058901D01*
X0284087Y0059345D01*
X0283413Y0059688D01*
X0282695Y0059922D01*
X0281949Y0060040D01*
X0281771Y0060040D01*
X0281771Y0052440D01*
X0281371Y0052440D01*
X0281371Y0052040D01*
X0276771Y0052040D01*
X0276771Y0048862D01*
X0276889Y0048116D01*
X0277123Y0047398D01*
X0277466Y0046724D01*
X0277910Y0046113D01*
X0278444Y0045579D01*
X0279055Y0045135D01*
X0279531Y0044892D01*
X0273094Y0044892D01*
X0274177Y0045340D01*
X0275471Y0046634D01*
X0276171Y0048325D01*
X0276171Y0056155D01*
X0275471Y0057846D01*
X0274177Y0059140D01*
X0272486Y0059840D01*
X0270656Y0059840D01*
X0268965Y0059140D01*
X0267671Y0057846D01*
X0266971Y0056155D01*
X0266971Y0048325D01*
X0267671Y0046634D01*
X0268965Y0045340D01*
X0270048Y0044892D01*
X0258461Y0044892D01*
X0258582Y0045013D01*
X0258819Y0045423D01*
X0258942Y0045881D01*
X0258942Y0049083D01*
X0254176Y0049083D01*
X0254176Y0049649D01*
X0258942Y0049649D01*
X0258942Y0052851D01*
X0258819Y0053309D01*
X0258582Y0053719D01*
X0258254Y0054048D01*
X0341198Y0136992D01*
X0342428Y0138222D01*
X0342428Y0152301D01*
X0343380Y0153253D01*
X0343928Y0154576D01*
X0343928Y0156008D01*
X0343604Y0156792D01*
X0355687Y0156792D01*
X0355687Y0156588D01*
X0358557Y0153718D01*
X0360084Y0153718D01*
X0286928Y0080562D01*
X0286928Y0076825D01*
X0286352Y0076825D01*
X0283482Y0073955D01*
X0283482Y0069896D01*
X0286352Y0067025D01*
X0290412Y0067025D01*
X0293282Y0069896D01*
X0293282Y0073955D01*
X0291128Y0076108D01*
X0291128Y0078822D01*
X0393128Y0180822D01*
X0389922Y0183555D02*
X0330161Y0183555D01*
X0328563Y0181957D02*
X0388323Y0181957D01*
X0386725Y0180358D02*
X0326964Y0180358D01*
X0325366Y0178760D02*
X0385126Y0178760D01*
X0383528Y0177161D02*
X0323767Y0177161D01*
X0322628Y0175563D02*
X0381929Y0175563D01*
X0380330Y0173964D02*
X0322628Y0173964D01*
X0322628Y0172366D02*
X0357122Y0172366D01*
X0358474Y0173718D02*
X0355487Y0170731D01*
X0355487Y0168618D01*
X0355487Y0166506D01*
X0358474Y0163518D01*
X0360587Y0163518D01*
X0362699Y0163518D01*
X0365687Y0166506D01*
X0365687Y0168618D01*
X0360587Y0168618D01*
X0360587Y0168618D01*
X0365687Y0168618D01*
X0365687Y0170731D01*
X0362699Y0173718D01*
X0360587Y0173718D01*
X0360587Y0168618D01*
X0360587Y0163518D01*
X0360587Y0168618D01*
X0360587Y0168618D01*
X0360587Y0168618D01*
X0360587Y0173718D01*
X0358474Y0173718D01*
X0360587Y0172366D02*
X0360587Y0172366D01*
X0360587Y0170767D02*
X0360587Y0170767D01*
X0360587Y0169169D02*
X0360587Y0169169D01*
X0360586Y0168618D02*
X0355487Y0168618D01*
X0360586Y0168618D01*
X0360586Y0168618D01*
X0360587Y0167570D02*
X0360587Y0167570D01*
X0360587Y0165972D02*
X0360587Y0165972D01*
X0360587Y0164373D02*
X0360587Y0164373D01*
X0363554Y0164373D02*
X0370739Y0164373D01*
X0369141Y0162775D02*
X0363360Y0162775D01*
X0364958Y0161176D02*
X0367542Y0161176D01*
X0365944Y0159577D02*
X0365487Y0159577D01*
X0357813Y0162775D02*
X0335912Y0162775D01*
X0336760Y0161176D02*
X0356215Y0161176D01*
X0357619Y0164373D02*
X0333553Y0164373D01*
X0323999Y0164373D02*
X0322628Y0164373D01*
X0322628Y0165972D02*
X0356021Y0165972D01*
X0355487Y0167570D02*
X0322628Y0167570D01*
X0322628Y0169169D02*
X0355487Y0169169D01*
X0355523Y0170767D02*
X0322628Y0170767D01*
X0318428Y0170767D02*
X0287528Y0170767D01*
X0287528Y0169169D02*
X0318428Y0169169D01*
X0318428Y0167570D02*
X0287528Y0167570D01*
X0287528Y0165972D02*
X0318428Y0165972D01*
X0318428Y0164373D02*
X0287528Y0164373D01*
X0287528Y0162775D02*
X0318428Y0162775D01*
X0318428Y0161176D02*
X0287528Y0161176D01*
X0287528Y0159577D02*
X0318428Y0159577D01*
X0318428Y0158862D02*
X0287528Y0127962D01*
X0287528Y0189817D01*
X0288312Y0189492D01*
X0289744Y0189492D01*
X0291068Y0190040D01*
X0292080Y0191053D01*
X0292628Y0192376D01*
X0292628Y0193808D01*
X0292080Y0195131D01*
X0291128Y0196083D01*
X0291128Y0203022D01*
X0293158Y0205052D01*
X0292576Y0203648D01*
X0292576Y0201699D01*
X0293322Y0199898D01*
X0294701Y0198519D01*
X0296502Y0197773D01*
X0298451Y0197773D01*
X0300252Y0198519D01*
X0301630Y0199898D01*
X0302376Y0201699D01*
X0302376Y0203648D01*
X0302165Y0204159D01*
X0306098Y0208092D01*
X0326079Y0208092D01*
X0325768Y0207782D01*
X0325030Y0206000D01*
X0325030Y0204071D01*
X0325768Y0202289D01*
X0327132Y0200925D01*
X0328914Y0200187D01*
X0330842Y0200187D01*
X0332624Y0200925D01*
X0333728Y0202030D01*
X0333728Y0199986D01*
X0333363Y0200083D01*
X0330161Y0200083D01*
X0330161Y0195318D01*
X0329595Y0195318D01*
X0329595Y0194753D01*
X0324830Y0194753D01*
X0324830Y0191550D01*
X0324953Y0191093D01*
X0325190Y0190682D01*
X0325525Y0190347D01*
X0325935Y0190110D01*
X0326393Y0189987D01*
X0329595Y0189987D01*
X0329595Y0194753D01*
X0330161Y0194753D01*
X0330161Y0189987D01*
X0330654Y0189987D01*
X0318428Y0177762D01*
X0318428Y0158862D01*
X0317545Y0157979D02*
X0287528Y0157979D01*
X0287528Y0156380D02*
X0315947Y0156380D01*
X0314348Y0154782D02*
X0287528Y0154782D01*
X0287528Y0153183D02*
X0312750Y0153183D01*
X0311151Y0151585D02*
X0287528Y0151585D01*
X0287528Y0149986D02*
X0309553Y0149986D01*
X0307954Y0148388D02*
X0287528Y0148388D01*
X0287528Y0146789D02*
X0306356Y0146789D01*
X0304757Y0145191D02*
X0287528Y0145191D01*
X0287528Y0143592D02*
X0303159Y0143592D01*
X0301560Y0141994D02*
X0287528Y0141994D01*
X0287528Y0140395D02*
X0299962Y0140395D01*
X0298363Y0138797D02*
X0287528Y0138797D01*
X0287528Y0137198D02*
X0296765Y0137198D01*
X0295166Y0135600D02*
X0287528Y0135600D01*
X0287528Y0134001D02*
X0293568Y0134001D01*
X0291969Y0132403D02*
X0287528Y0132403D01*
X0287528Y0130804D02*
X0290371Y0130804D01*
X0288772Y0129206D02*
X0287528Y0129206D01*
X0283328Y0129201D02*
X0283328Y0126462D01*
X0278995Y0122129D01*
X0278580Y0123131D01*
X0277568Y0124144D01*
X0276244Y0124692D01*
X0274898Y0124692D01*
X0234128Y0165462D01*
X0234128Y0166808D01*
X0233580Y0168131D01*
X0233219Y0168492D01*
X0237698Y0168492D01*
X0252095Y0182889D01*
X0252095Y0180225D01*
X0254556Y0177765D01*
X0258035Y0177765D01*
X0258902Y0178632D01*
X0258976Y0178453D01*
X0259989Y0177440D01*
X0261312Y0176892D01*
X0262744Y0176892D01*
X0264068Y0177440D01*
X0265080Y0178453D01*
X0265628Y0179776D01*
X0265628Y0181208D01*
X0265080Y0182531D01*
X0264128Y0183483D01*
X0264128Y0198809D01*
X0264154Y0198783D01*
X0264803Y0198311D01*
X0265519Y0197947D01*
X0266282Y0197699D01*
X0267075Y0197573D01*
X0267176Y0197573D01*
X0267176Y0202373D01*
X0267776Y0202373D01*
X0267776Y0197573D01*
X0267878Y0197573D01*
X0268671Y0197699D01*
X0269434Y0197947D01*
X0270149Y0198311D01*
X0270799Y0198783D01*
X0271366Y0199351D01*
X0271838Y0200000D01*
X0272203Y0200716D01*
X0272451Y0201479D01*
X0272576Y0202272D01*
X0272576Y0202373D01*
X0267776Y0202373D01*
X0267776Y0202973D01*
X0267176Y0202973D01*
X0267176Y0207773D01*
X0267075Y0207773D01*
X0266282Y0207648D01*
X0265519Y0207400D01*
X0264803Y0207035D01*
X0264154Y0206563D01*
X0264128Y0206538D01*
X0264128Y0209092D01*
X0264701Y0208519D01*
X0266502Y0207773D01*
X0268451Y0207773D01*
X0270252Y0208519D01*
X0271630Y0209898D01*
X0272376Y0211699D01*
X0272376Y0213648D01*
X0272282Y0213876D01*
X0279128Y0220722D01*
X0279128Y0220276D01*
X0279676Y0218953D01*
X0280689Y0217940D01*
X0282012Y0217392D01*
X0282459Y0217392D01*
X0280058Y0214992D01*
X0278828Y0213762D01*
X0278828Y0156601D01*
X0278818Y0156619D01*
X0276714Y0158723D01*
X0274137Y0160211D01*
X0271263Y0160981D01*
X0268288Y0160981D01*
X0265414Y0160211D01*
X0262837Y0158723D01*
X0260733Y0156619D01*
X0259246Y0154043D01*
X0258476Y0151169D01*
X0258476Y0148193D01*
X0259246Y0145319D01*
X0260733Y0142743D01*
X0262837Y0140639D01*
X0265414Y0139151D01*
X0268288Y0138381D01*
X0271263Y0138381D01*
X0274137Y0139151D01*
X0276714Y0140639D01*
X0278818Y0142743D01*
X0278828Y0142761D01*
X0278828Y0134883D01*
X0277876Y0133931D01*
X0277328Y0132608D01*
X0277328Y0131176D01*
X0277876Y0129853D01*
X0278889Y0128840D01*
X0280212Y0128292D01*
X0281644Y0128292D01*
X0282968Y0128840D01*
X0283328Y0129201D01*
X0283328Y0127607D02*
X0271983Y0127607D01*
X0273582Y0126009D02*
X0282875Y0126009D01*
X0281277Y0124410D02*
X0276925Y0124410D01*
X0278713Y0122812D02*
X0279678Y0122812D01*
X0283522Y0118016D02*
X0306383Y0118016D01*
X0307981Y0119615D02*
X0285121Y0119615D01*
X0286719Y0121213D02*
X0309580Y0121213D01*
X0311178Y0122812D02*
X0288318Y0122812D01*
X0289916Y0124410D02*
X0312777Y0124410D01*
X0314375Y0126009D02*
X0291515Y0126009D01*
X0293113Y0127607D02*
X0315974Y0127607D01*
X0317572Y0129206D02*
X0294712Y0129206D01*
X0296310Y0130804D02*
X0319171Y0130804D01*
X0320769Y0132403D02*
X0297909Y0132403D01*
X0299507Y0134001D02*
X0322368Y0134001D01*
X0322700Y0135527D02*
X0323544Y0135178D01*
X0258729Y0070362D01*
X0258004Y0072112D01*
X0257261Y0072855D01*
X0257828Y0073422D01*
X0265928Y0081522D01*
X0265928Y0091362D01*
X0264698Y0092592D01*
X0258742Y0098549D01*
X0258742Y0100330D01*
X0258095Y0101892D01*
X0267398Y0101892D01*
X0321398Y0155892D01*
X0321867Y0156360D01*
X0322700Y0155527D01*
X0324501Y0154781D01*
X0333050Y0154781D01*
X0334851Y0155527D01*
X0336116Y0156792D01*
X0337053Y0156792D01*
X0336728Y0156008D01*
X0336728Y0154576D01*
X0337276Y0153253D01*
X0338228Y0152301D01*
X0338228Y0139962D01*
X0336976Y0138709D01*
X0336976Y0140656D01*
X0336230Y0142457D01*
X0334851Y0143835D01*
X0333050Y0144581D01*
X0324501Y0144581D01*
X0322700Y0143835D01*
X0321322Y0142457D01*
X0320576Y0140656D01*
X0320576Y0138706D01*
X0321322Y0136905D01*
X0322700Y0135527D01*
X0322627Y0135600D02*
X0301106Y0135600D01*
X0302704Y0137198D02*
X0321200Y0137198D01*
X0320576Y0138797D02*
X0304303Y0138797D01*
X0305901Y0140395D02*
X0320576Y0140395D01*
X0321130Y0141994D02*
X0307500Y0141994D01*
X0309098Y0143592D02*
X0322457Y0143592D01*
X0323054Y0145191D02*
X0310697Y0145191D01*
X0312295Y0146789D02*
X0321273Y0146789D01*
X0321114Y0147008D02*
X0321586Y0146359D01*
X0322153Y0145791D01*
X0322803Y0145319D01*
X0323518Y0144955D01*
X0324281Y0144707D01*
X0325074Y0144581D01*
X0328476Y0144581D01*
X0328476Y0149381D01*
X0329076Y0149381D01*
X0329076Y0149981D01*
X0337176Y0149981D01*
X0337176Y0150082D01*
X0337050Y0150875D01*
X0336802Y0151639D01*
X0336437Y0152354D01*
X0335966Y0153004D01*
X0335398Y0153571D01*
X0334749Y0154043D01*
X0334033Y0154407D01*
X0333270Y0154656D01*
X0332477Y0154781D01*
X0329076Y0154781D01*
X0329076Y0149981D01*
X0328476Y0149981D01*
X0328476Y0154781D01*
X0325074Y0154781D01*
X0324281Y0154656D01*
X0323518Y0154407D01*
X0322803Y0154043D01*
X0322153Y0153571D01*
X0321586Y0153004D01*
X0321114Y0152354D01*
X0320749Y0151639D01*
X0320501Y0150875D01*
X0320376Y0150082D01*
X0320376Y0149981D01*
X0328476Y0149981D01*
X0328476Y0149381D01*
X0320376Y0149381D01*
X0320376Y0149280D01*
X0320501Y0148487D01*
X0320749Y0147723D01*
X0321114Y0147008D01*
X0320533Y0148388D02*
X0313894Y0148388D01*
X0315492Y0149986D02*
X0320376Y0149986D01*
X0320732Y0151585D02*
X0317091Y0151585D01*
X0318690Y0153183D02*
X0321765Y0153183D01*
X0320288Y0154782D02*
X0324499Y0154782D01*
X0328476Y0153183D02*
X0329076Y0153183D01*
X0329076Y0151585D02*
X0328476Y0151585D01*
X0328476Y0149986D02*
X0329076Y0149986D01*
X0329076Y0149381D02*
X0337176Y0149381D01*
X0337176Y0149280D01*
X0337050Y0148487D01*
X0336802Y0147723D01*
X0336437Y0147008D01*
X0335966Y0146359D01*
X0335398Y0145791D01*
X0334749Y0145319D01*
X0334033Y0144955D01*
X0333270Y0144707D01*
X0332477Y0144581D01*
X0329076Y0144581D01*
X0329076Y0149381D01*
X0329076Y0148388D02*
X0328476Y0148388D01*
X0328476Y0146789D02*
X0329076Y0146789D01*
X0329076Y0145191D02*
X0328476Y0145191D01*
X0334497Y0145191D02*
X0338228Y0145191D01*
X0338228Y0146789D02*
X0336279Y0146789D01*
X0337018Y0148388D02*
X0338228Y0148388D01*
X0338228Y0149986D02*
X0337176Y0149986D01*
X0336819Y0151585D02*
X0338228Y0151585D01*
X0337346Y0153183D02*
X0335786Y0153183D01*
X0336728Y0154782D02*
X0333052Y0154782D01*
X0335705Y0156380D02*
X0336883Y0156380D01*
X0342428Y0151585D02*
X0357951Y0151585D01*
X0356353Y0149986D02*
X0342428Y0149986D01*
X0342428Y0148388D02*
X0354754Y0148388D01*
X0353156Y0146789D02*
X0342428Y0146789D01*
X0342428Y0145191D02*
X0351557Y0145191D01*
X0349959Y0143592D02*
X0342428Y0143592D01*
X0342428Y0141994D02*
X0348360Y0141994D01*
X0346762Y0140395D02*
X0342428Y0140395D01*
X0342428Y0138797D02*
X0345163Y0138797D01*
X0343565Y0137198D02*
X0341404Y0137198D01*
X0341966Y0135600D02*
X0339806Y0135600D01*
X0340368Y0134001D02*
X0338207Y0134001D01*
X0338769Y0132403D02*
X0336609Y0132403D01*
X0337171Y0130804D02*
X0335010Y0130804D01*
X0335572Y0129206D02*
X0333412Y0129206D01*
X0333974Y0127607D02*
X0331813Y0127607D01*
X0332375Y0126009D02*
X0330215Y0126009D01*
X0330777Y0124410D02*
X0328616Y0124410D01*
X0329178Y0122812D02*
X0327018Y0122812D01*
X0327580Y0121213D02*
X0325419Y0121213D01*
X0325981Y0119615D02*
X0323821Y0119615D01*
X0324383Y0118016D02*
X0322222Y0118016D01*
X0322784Y0116418D02*
X0320624Y0116418D01*
X0321186Y0114819D02*
X0319025Y0114819D01*
X0319587Y0113221D02*
X0317427Y0113221D01*
X0317989Y0111622D02*
X0315828Y0111622D01*
X0316390Y0110024D02*
X0314230Y0110024D01*
X0314792Y0108425D02*
X0312631Y0108425D01*
X0313193Y0106827D02*
X0311033Y0106827D01*
X0311595Y0105228D02*
X0309434Y0105228D01*
X0309996Y0103630D02*
X0307836Y0103630D01*
X0308397Y0102031D02*
X0306237Y0102031D01*
X0306799Y0100433D02*
X0304639Y0100433D01*
X0305200Y0098834D02*
X0303040Y0098834D01*
X0303602Y0097236D02*
X0301442Y0097236D01*
X0302003Y0095637D02*
X0299843Y0095637D01*
X0300405Y0094039D02*
X0298245Y0094039D01*
X0298806Y0092440D02*
X0296646Y0092440D01*
X0297208Y0090842D02*
X0295048Y0090842D01*
X0295609Y0089243D02*
X0293449Y0089243D01*
X0294011Y0087644D02*
X0291851Y0087644D01*
X0292412Y0086046D02*
X0290252Y0086046D01*
X0290814Y0084447D02*
X0288654Y0084447D01*
X0289215Y0082849D02*
X0287055Y0082849D01*
X0287617Y0081250D02*
X0285456Y0081250D01*
X0286928Y0079652D02*
X0283858Y0079652D01*
X0282259Y0078053D02*
X0286928Y0078053D01*
X0285982Y0076455D02*
X0280661Y0076455D01*
X0279062Y0074856D02*
X0284383Y0074856D01*
X0283482Y0073258D02*
X0277464Y0073258D01*
X0275865Y0071659D02*
X0283482Y0071659D01*
X0283482Y0070061D02*
X0274267Y0070061D01*
X0272668Y0068462D02*
X0284915Y0068462D01*
X0291849Y0068462D02*
X0294632Y0068462D01*
X0293282Y0069813D02*
X0296269Y0066825D01*
X0298382Y0066825D01*
X0300494Y0066825D01*
X0303482Y0069813D01*
X0303482Y0071925D01*
X0298382Y0071925D01*
X0298382Y0066825D01*
X0298382Y0071925D01*
X0298382Y0071925D01*
X0298382Y0071925D01*
X0303482Y0071925D01*
X0303482Y0074038D01*
X0300494Y0077025D01*
X0298382Y0077025D01*
X0298382Y0071925D01*
X0293282Y0071925D01*
X0293282Y0069813D01*
X0293282Y0070061D02*
X0293282Y0070061D01*
X0293282Y0071659D02*
X0293282Y0071659D01*
X0293282Y0071925D02*
X0298382Y0071925D01*
X0298382Y0071925D01*
X0298382Y0071925D01*
X0298382Y0077025D01*
X0296269Y0077025D01*
X0293282Y0074038D01*
X0293282Y0071925D01*
X0293282Y0073258D02*
X0293282Y0073258D01*
X0294101Y0074856D02*
X0292380Y0074856D01*
X0291128Y0076455D02*
X0295699Y0076455D01*
X0298382Y0076455D02*
X0298382Y0076455D01*
X0298382Y0074856D02*
X0298382Y0074856D01*
X0298382Y0073258D02*
X0298382Y0073258D01*
X0298382Y0071659D02*
X0298382Y0071659D01*
X0298382Y0070061D02*
X0298382Y0070061D01*
X0298382Y0068462D02*
X0298382Y0068462D01*
X0298382Y0066864D02*
X0298382Y0066864D01*
X0300533Y0066864D02*
X0326330Y0066864D01*
X0324732Y0065265D02*
X0269471Y0065265D01*
X0267873Y0063667D02*
X0323133Y0063667D01*
X0321535Y0062068D02*
X0266274Y0062068D01*
X0264676Y0060470D02*
X0306436Y0060470D01*
X0304838Y0058871D02*
X0294445Y0058871D01*
X0295708Y0057273D02*
X0303239Y0057273D01*
X0301641Y0055674D02*
X0296171Y0055674D01*
X0296171Y0054076D02*
X0300042Y0054076D01*
X0298444Y0052477D02*
X0296171Y0052477D01*
X0296171Y0050879D02*
X0296845Y0050879D01*
X0299588Y0047682D02*
X0307670Y0047682D01*
X0307404Y0049280D02*
X0301186Y0049280D01*
X0302785Y0050879D02*
X0307404Y0050879D01*
X0307404Y0052477D02*
X0304383Y0052477D01*
X0305982Y0054076D02*
X0307404Y0054076D01*
X0308656Y0046083D02*
X0297989Y0046083D01*
X0296391Y0044485D02*
X0386172Y0044485D01*
X0386172Y0046083D02*
X0325352Y0046083D01*
X0326337Y0047682D02*
X0386172Y0047682D01*
X0386172Y0049280D02*
X0326604Y0049280D01*
X0326604Y0050879D02*
X0386172Y0050879D01*
X0386172Y0052477D02*
X0326604Y0052477D01*
X0326604Y0054076D02*
X0386172Y0054076D01*
X0386172Y0055674D02*
X0326604Y0055674D01*
X0326141Y0057273D02*
X0340725Y0057273D01*
X0340662Y0057336D02*
X0340997Y0057001D01*
X0341408Y0056764D01*
X0341865Y0056641D01*
X0348881Y0056641D01*
X0348881Y0065220D01*
X0340302Y0065220D01*
X0340302Y0058204D01*
X0340425Y0057746D01*
X0340662Y0057336D01*
X0340302Y0058871D02*
X0324878Y0058871D01*
X0325876Y0060470D02*
X0340302Y0060470D01*
X0340302Y0062068D02*
X0327474Y0062068D01*
X0329073Y0063667D02*
X0340302Y0063667D01*
X0340302Y0066820D02*
X0348881Y0066820D01*
X0348881Y0075398D01*
X0341865Y0075398D01*
X0341408Y0075276D01*
X0340997Y0075039D01*
X0340662Y0074704D01*
X0340425Y0074293D01*
X0340302Y0073835D01*
X0340302Y0066820D01*
X0340302Y0066864D02*
X0332270Y0066864D01*
X0333868Y0068462D02*
X0340302Y0068462D01*
X0340302Y0070061D02*
X0335467Y0070061D01*
X0337065Y0071659D02*
X0340302Y0071659D01*
X0340302Y0073258D02*
X0338664Y0073258D01*
X0340262Y0074856D02*
X0340815Y0074856D01*
X0341861Y0076455D02*
X0364410Y0076455D01*
X0365178Y0076773D02*
X0361805Y0075376D01*
X0359223Y0072794D01*
X0359060Y0072401D01*
X0359060Y0073835D01*
X0358937Y0074293D01*
X0358700Y0074704D01*
X0358365Y0075039D01*
X0357955Y0075276D01*
X0357497Y0075398D01*
X0350481Y0075398D01*
X0350481Y0066820D01*
X0348881Y0066820D01*
X0348881Y0065220D01*
X0350481Y0065220D01*
X0350481Y0056641D01*
X0357497Y0056641D01*
X0357955Y0056764D01*
X0358365Y0057001D01*
X0358700Y0057336D01*
X0358937Y0057746D01*
X0359060Y0058204D01*
X0359060Y0062788D01*
X0359223Y0062395D01*
X0361805Y0059813D01*
X0365178Y0058416D01*
X0368830Y0058416D01*
X0372203Y0059813D01*
X0374785Y0062395D01*
X0376183Y0065769D01*
X0376183Y0069420D01*
X0374877Y0072571D01*
X0388328Y0086022D01*
X0388328Y0094701D01*
X0389280Y0095653D01*
X0389828Y0096976D01*
X0389828Y0098408D01*
X0389280Y0099731D01*
X0388268Y0100744D01*
X0386944Y0101292D01*
X0385512Y0101292D01*
X0384189Y0100744D01*
X0383176Y0099731D01*
X0382628Y0098408D01*
X0382628Y0096976D01*
X0383176Y0095653D01*
X0384128Y0094701D01*
X0384128Y0087762D01*
X0371877Y0075511D01*
X0368830Y0076773D01*
X0365178Y0076773D01*
X0361285Y0074856D02*
X0358547Y0074856D01*
X0359060Y0073258D02*
X0359687Y0073258D01*
X0350481Y0073258D02*
X0348881Y0073258D01*
X0348881Y0074856D02*
X0350481Y0074856D01*
X0350481Y0071659D02*
X0348881Y0071659D01*
X0348881Y0070061D02*
X0350481Y0070061D01*
X0350481Y0068462D02*
X0348881Y0068462D01*
X0348881Y0066864D02*
X0350481Y0066864D01*
X0348881Y0065265D02*
X0330671Y0065265D01*
X0327929Y0068462D02*
X0302132Y0068462D01*
X0303482Y0070061D02*
X0329527Y0070061D01*
X0331126Y0071659D02*
X0303482Y0071659D01*
X0303482Y0073258D02*
X0332724Y0073258D01*
X0334323Y0074856D02*
X0302663Y0074856D01*
X0301065Y0076455D02*
X0335921Y0076455D01*
X0337520Y0078053D02*
X0291128Y0078053D01*
X0291958Y0079652D02*
X0339118Y0079652D01*
X0340717Y0081250D02*
X0293556Y0081250D01*
X0295155Y0082849D02*
X0342315Y0082849D01*
X0343914Y0084447D02*
X0296754Y0084447D01*
X0298352Y0086046D02*
X0345512Y0086046D01*
X0347111Y0087644D02*
X0299951Y0087644D01*
X0301549Y0089243D02*
X0348709Y0089243D01*
X0350308Y0090842D02*
X0303148Y0090842D01*
X0304746Y0092440D02*
X0351906Y0092440D01*
X0353505Y0094039D02*
X0306345Y0094039D01*
X0307943Y0095637D02*
X0355103Y0095637D01*
X0356702Y0097236D02*
X0309542Y0097236D01*
X0311140Y0098834D02*
X0358300Y0098834D01*
X0359899Y0100433D02*
X0312739Y0100433D01*
X0314337Y0102031D02*
X0361497Y0102031D01*
X0363096Y0103630D02*
X0315936Y0103630D01*
X0317534Y0105228D02*
X0364695Y0105228D01*
X0366293Y0106827D02*
X0319133Y0106827D01*
X0320731Y0108425D02*
X0367892Y0108425D01*
X0369490Y0110024D02*
X0322330Y0110024D01*
X0323928Y0111622D02*
X0371089Y0111622D01*
X0372687Y0113221D02*
X0325527Y0113221D01*
X0327125Y0114819D02*
X0374286Y0114819D01*
X0375884Y0116418D02*
X0328724Y0116418D01*
X0330322Y0118016D02*
X0377483Y0118016D01*
X0379081Y0119615D02*
X0331921Y0119615D01*
X0333519Y0121213D02*
X0380680Y0121213D01*
X0382278Y0122812D02*
X0363521Y0122812D01*
X0362616Y0121907D02*
X0365487Y0124777D01*
X0365487Y0128837D01*
X0362616Y0131707D01*
X0358557Y0131707D01*
X0355687Y0128837D01*
X0355687Y0124777D01*
X0358557Y0121907D01*
X0362616Y0121907D01*
X0365119Y0124410D02*
X0383877Y0124410D01*
X0385475Y0126009D02*
X0365487Y0126009D01*
X0365487Y0127607D02*
X0387074Y0127607D01*
X0388672Y0129206D02*
X0365118Y0129206D01*
X0363519Y0130804D02*
X0390271Y0130804D01*
X0391869Y0132403D02*
X0363395Y0132403D01*
X0362699Y0131707D02*
X0365687Y0134695D01*
X0365687Y0136807D01*
X0360587Y0136807D01*
X0360587Y0136807D01*
X0365687Y0136807D01*
X0365687Y0138920D01*
X0362699Y0141907D01*
X0360587Y0141907D01*
X0360587Y0136807D01*
X0360587Y0131707D01*
X0362699Y0131707D01*
X0360587Y0131707D02*
X0360587Y0136807D01*
X0360587Y0136807D01*
X0360587Y0136807D01*
X0360587Y0141907D01*
X0358474Y0141907D01*
X0355487Y0138920D01*
X0355487Y0136807D01*
X0355487Y0134695D01*
X0358474Y0131707D01*
X0360587Y0131707D01*
X0360587Y0132403D02*
X0360587Y0132403D01*
X0360587Y0134001D02*
X0360587Y0134001D01*
X0360587Y0135600D02*
X0360587Y0135600D01*
X0360586Y0136807D02*
X0355487Y0136807D01*
X0360586Y0136807D01*
X0360586Y0136807D01*
X0360587Y0137198D02*
X0360587Y0137198D01*
X0360587Y0138797D02*
X0360587Y0138797D01*
X0360587Y0140395D02*
X0360587Y0140395D01*
X0364211Y0140395D02*
X0389781Y0140395D01*
X0389781Y0138797D02*
X0365687Y0138797D01*
X0365687Y0137198D02*
X0389781Y0137198D01*
X0391006Y0135600D02*
X0365687Y0135600D01*
X0364993Y0134001D02*
X0392604Y0134001D01*
X0396210Y0130804D02*
X0421940Y0130804D01*
X0421940Y0129206D02*
X0394612Y0129206D01*
X0393013Y0127607D02*
X0421940Y0127607D01*
X0421940Y0126009D02*
X0391415Y0126009D01*
X0389816Y0124410D02*
X0421940Y0124410D01*
X0421940Y0122812D02*
X0388218Y0122812D01*
X0386619Y0121213D02*
X0421940Y0121213D01*
X0421940Y0119615D02*
X0385021Y0119615D01*
X0383422Y0118016D02*
X0421940Y0118016D01*
X0421940Y0116418D02*
X0381824Y0116418D01*
X0380225Y0114819D02*
X0405241Y0114819D01*
X0407743Y0114819D02*
X0415241Y0114819D01*
X0415577Y0114958D02*
X0413886Y0114258D01*
X0412592Y0112964D01*
X0411892Y0111273D01*
X0411892Y0103443D01*
X0412592Y0101753D01*
X0413886Y0100459D01*
X0415577Y0099758D01*
X0417407Y0099758D01*
X0419098Y0100459D01*
X0420392Y0101753D01*
X0421092Y0103443D01*
X0421092Y0111273D01*
X0420392Y0112964D01*
X0419098Y0114258D01*
X0417407Y0114958D01*
X0415577Y0114958D01*
X0417743Y0114819D02*
X0421940Y0114819D01*
X0421940Y0113221D02*
X0420135Y0113221D01*
X0420948Y0111622D02*
X0421940Y0111622D01*
X0421940Y0110024D02*
X0421092Y0110024D01*
X0421092Y0108425D02*
X0421940Y0108425D01*
X0421940Y0106827D02*
X0421092Y0106827D01*
X0421092Y0105228D02*
X0421940Y0105228D01*
X0421940Y0103630D02*
X0421092Y0103630D01*
X0420507Y0102031D02*
X0421940Y0102031D01*
X0421940Y0100433D02*
X0419035Y0100433D01*
X0421940Y0098834D02*
X0389652Y0098834D01*
X0389828Y0097236D02*
X0421940Y0097236D01*
X0421940Y0095637D02*
X0389264Y0095637D01*
X0388328Y0094039D02*
X0421940Y0094039D01*
X0421940Y0092440D02*
X0388328Y0092440D01*
X0388328Y0090842D02*
X0421940Y0090842D01*
X0421940Y0089243D02*
X0388328Y0089243D01*
X0388328Y0087644D02*
X0421940Y0087644D01*
X0421940Y0086046D02*
X0420814Y0086046D01*
X0421851Y0084447D02*
X0421940Y0084447D01*
X0414297Y0086046D02*
X0411097Y0086046D01*
X0412067Y0084447D02*
X0413259Y0084447D01*
X0412955Y0082849D02*
X0412355Y0082849D01*
X0412355Y0081250D02*
X0412955Y0081250D01*
X0412955Y0079652D02*
X0407755Y0079652D01*
X0407355Y0079652D02*
X0402155Y0079652D01*
X0402755Y0079999D02*
X0407355Y0079999D01*
X0407355Y0087599D01*
X0407177Y0087599D01*
X0406431Y0087481D01*
X0405713Y0087248D01*
X0405039Y0086905D01*
X0404428Y0086460D01*
X0403894Y0085926D01*
X0403450Y0085315D01*
X0403107Y0084642D01*
X0402873Y0083923D01*
X0402755Y0083177D01*
X0402755Y0079999D01*
X0402755Y0081250D02*
X0402155Y0081250D01*
X0402155Y0082849D02*
X0402755Y0082849D01*
X0403044Y0084447D02*
X0401851Y0084447D01*
X0400814Y0086046D02*
X0404014Y0086046D01*
X0407355Y0086046D02*
X0407755Y0086046D01*
X0407755Y0084447D02*
X0407355Y0084447D01*
X0407355Y0082849D02*
X0407755Y0082849D01*
X0407755Y0081250D02*
X0407355Y0081250D01*
X0402755Y0078053D02*
X0402155Y0078053D01*
X0402155Y0076455D02*
X0402755Y0076455D01*
X0403158Y0074856D02*
X0401729Y0074856D01*
X0393381Y0074856D02*
X0377162Y0074856D01*
X0375564Y0073258D02*
X0387184Y0073258D01*
X0385586Y0071659D02*
X0375255Y0071659D01*
X0375917Y0070061D02*
X0385272Y0070061D01*
X0386172Y0068462D02*
X0376183Y0068462D01*
X0376183Y0066864D02*
X0386172Y0066864D01*
X0386172Y0065265D02*
X0375974Y0065265D01*
X0375312Y0063667D02*
X0386172Y0063667D01*
X0386172Y0062068D02*
X0374458Y0062068D01*
X0372860Y0060470D02*
X0386172Y0060470D01*
X0386172Y0058871D02*
X0369929Y0058871D01*
X0364078Y0058871D02*
X0359060Y0058871D01*
X0359060Y0060470D02*
X0361148Y0060470D01*
X0359549Y0062068D02*
X0359060Y0062068D01*
X0358637Y0057273D02*
X0386172Y0057273D01*
X0389884Y0057273D02*
X0400264Y0057273D01*
X0400111Y0056955D02*
X0399654Y0055651D01*
X0399347Y0054304D01*
X0399204Y0053040D01*
X0409667Y0053040D01*
X0409636Y0053009D01*
X0409636Y0051440D01*
X0399204Y0051440D01*
X0399347Y0050177D01*
X0399654Y0048830D01*
X0400111Y0047526D01*
X0400710Y0046281D01*
X0401445Y0045111D01*
X0402306Y0044031D01*
X0403283Y0043054D01*
X0404363Y0042193D01*
X0405001Y0041792D01*
X0389884Y0041792D01*
X0389884Y0068721D01*
X0421940Y0068721D01*
X0421940Y0058731D01*
X0421539Y0059369D01*
X0420678Y0060449D01*
X0419701Y0061426D01*
X0418621Y0062287D01*
X0417451Y0063022D01*
X0416207Y0063622D01*
X0414903Y0064078D01*
X0413556Y0064385D01*
X0412292Y0064528D01*
X0412292Y0054096D01*
X0412261Y0054096D01*
X0410723Y0054096D01*
X0410692Y0054065D01*
X0410692Y0064528D01*
X0409429Y0064385D01*
X0408082Y0064078D01*
X0406778Y0063622D01*
X0405533Y0063022D01*
X0404363Y0062287D01*
X0403283Y0061426D01*
X0402306Y0060449D01*
X0401445Y0059369D01*
X0400710Y0058199D01*
X0400111Y0056955D01*
X0399663Y0055674D02*
X0389884Y0055674D01*
X0389884Y0054076D02*
X0399321Y0054076D01*
X0399268Y0050879D02*
X0389884Y0050879D01*
X0389884Y0052477D02*
X0409636Y0052477D01*
X0410692Y0054076D02*
X0410703Y0054076D01*
X0410692Y0055674D02*
X0412292Y0055674D01*
X0412292Y0057273D02*
X0410692Y0057273D01*
X0410692Y0058871D02*
X0412292Y0058871D01*
X0412292Y0060470D02*
X0410692Y0060470D01*
X0410692Y0062068D02*
X0412292Y0062068D01*
X0412292Y0063667D02*
X0410692Y0063667D01*
X0406906Y0063667D02*
X0389884Y0063667D01*
X0389884Y0065265D02*
X0421940Y0065265D01*
X0421940Y0063667D02*
X0416078Y0063667D01*
X0418896Y0062068D02*
X0421940Y0062068D01*
X0421940Y0060470D02*
X0420657Y0060470D01*
X0421852Y0058871D02*
X0421940Y0058871D01*
X0421940Y0066864D02*
X0389884Y0066864D01*
X0389884Y0068462D02*
X0421940Y0068462D01*
X0413381Y0074856D02*
X0411952Y0074856D01*
X0412355Y0076455D02*
X0412955Y0076455D01*
X0412955Y0078053D02*
X0412355Y0078053D01*
X0392955Y0078053D02*
X0380359Y0078053D01*
X0378761Y0076455D02*
X0392955Y0076455D01*
X0392955Y0079652D02*
X0381958Y0079652D01*
X0383556Y0081250D02*
X0392955Y0081250D01*
X0392955Y0082849D02*
X0385155Y0082849D01*
X0386754Y0084447D02*
X0393259Y0084447D01*
X0394297Y0086046D02*
X0388328Y0086046D01*
X0384011Y0087644D02*
X0359991Y0087644D01*
X0360128Y0089243D02*
X0384128Y0089243D01*
X0384128Y0090842D02*
X0361648Y0090842D01*
X0363246Y0092440D02*
X0384128Y0092440D01*
X0384128Y0094039D02*
X0364845Y0094039D01*
X0366443Y0095637D02*
X0383192Y0095637D01*
X0382628Y0097236D02*
X0368042Y0097236D01*
X0369640Y0098834D02*
X0382805Y0098834D01*
X0383878Y0100433D02*
X0371239Y0100433D01*
X0372837Y0102031D02*
X0402477Y0102031D01*
X0401892Y0103630D02*
X0374436Y0103630D01*
X0375430Y0110024D02*
X0401892Y0110024D01*
X0402037Y0111622D02*
X0377028Y0111622D01*
X0378627Y0113221D02*
X0402849Y0113221D01*
X0410135Y0113221D02*
X0412849Y0113221D01*
X0412037Y0111622D02*
X0410948Y0111622D01*
X0411092Y0110024D02*
X0411892Y0110024D01*
X0411892Y0108425D02*
X0411092Y0108425D01*
X0411092Y0106827D02*
X0411892Y0106827D01*
X0411892Y0105228D02*
X0411092Y0105228D01*
X0411092Y0103630D02*
X0411892Y0103630D01*
X0412477Y0102031D02*
X0410507Y0102031D01*
X0409035Y0100433D02*
X0413949Y0100433D01*
X0403949Y0100433D02*
X0388579Y0100433D01*
X0382412Y0086046D02*
X0358973Y0086046D01*
X0354083Y0086046D02*
X0351452Y0086046D01*
X0349854Y0084447D02*
X0380814Y0084447D01*
X0379215Y0082849D02*
X0348255Y0082849D01*
X0346656Y0081250D02*
X0377617Y0081250D01*
X0376018Y0079652D02*
X0345058Y0079652D01*
X0343459Y0078053D02*
X0374420Y0078053D01*
X0372821Y0076455D02*
X0369598Y0076455D01*
X0353066Y0087644D02*
X0353051Y0087644D01*
X0350481Y0063667D02*
X0348881Y0063667D01*
X0348881Y0062068D02*
X0350481Y0062068D01*
X0350481Y0060470D02*
X0348881Y0060470D01*
X0348881Y0058871D02*
X0350481Y0058871D01*
X0350481Y0057273D02*
X0348881Y0057273D01*
X0317867Y0057273D02*
X0316141Y0057273D01*
X0316604Y0055674D02*
X0317404Y0055674D01*
X0317404Y0054076D02*
X0316604Y0054076D01*
X0316604Y0052477D02*
X0317404Y0052477D01*
X0317404Y0050879D02*
X0316604Y0050879D01*
X0316604Y0049280D02*
X0317404Y0049280D01*
X0317670Y0047682D02*
X0316337Y0047682D01*
X0315352Y0046083D02*
X0318656Y0046083D01*
X0294792Y0042886D02*
X0386172Y0042886D01*
X0389884Y0042886D02*
X0403494Y0042886D01*
X0401945Y0044485D02*
X0389884Y0044485D01*
X0389884Y0046083D02*
X0400834Y0046083D01*
X0400056Y0047682D02*
X0389884Y0047682D01*
X0389884Y0049280D02*
X0399551Y0049280D01*
X0401132Y0058871D02*
X0389884Y0058871D01*
X0389884Y0060470D02*
X0402327Y0060470D01*
X0404089Y0062068D02*
X0389884Y0062068D01*
X0357652Y0122812D02*
X0335118Y0122812D01*
X0336716Y0124410D02*
X0356054Y0124410D01*
X0355687Y0126009D02*
X0338315Y0126009D01*
X0339913Y0127607D02*
X0355687Y0127607D01*
X0356056Y0129206D02*
X0341512Y0129206D01*
X0343110Y0130804D02*
X0357654Y0130804D01*
X0357778Y0132403D02*
X0344709Y0132403D01*
X0346307Y0134001D02*
X0356180Y0134001D01*
X0355487Y0135600D02*
X0347906Y0135600D01*
X0349504Y0137198D02*
X0355487Y0137198D01*
X0355487Y0138797D02*
X0351103Y0138797D01*
X0352701Y0140395D02*
X0356962Y0140395D01*
X0354300Y0141994D02*
X0390891Y0141994D01*
X0392490Y0143592D02*
X0355898Y0143592D01*
X0357497Y0145191D02*
X0393128Y0145191D01*
X0393128Y0146789D02*
X0359095Y0146789D01*
X0359550Y0153183D02*
X0343311Y0153183D01*
X0343928Y0154782D02*
X0357493Y0154782D01*
X0355895Y0156380D02*
X0343774Y0156380D01*
X0338228Y0143592D02*
X0335094Y0143592D01*
X0336421Y0141994D02*
X0338228Y0141994D01*
X0338228Y0140395D02*
X0336976Y0140395D01*
X0336976Y0138797D02*
X0337063Y0138797D01*
X0304784Y0116418D02*
X0281924Y0116418D01*
X0280325Y0114819D02*
X0303186Y0114819D01*
X0301587Y0113221D02*
X0278727Y0113221D01*
X0277128Y0111622D02*
X0299989Y0111622D01*
X0298390Y0110024D02*
X0275530Y0110024D01*
X0273931Y0108425D02*
X0296792Y0108425D01*
X0295193Y0106827D02*
X0272333Y0106827D01*
X0270734Y0105228D02*
X0293595Y0105228D01*
X0291996Y0103630D02*
X0269136Y0103630D01*
X0267537Y0102031D02*
X0290397Y0102031D01*
X0288799Y0100433D02*
X0258699Y0100433D01*
X0258742Y0098834D02*
X0287200Y0098834D01*
X0285602Y0097236D02*
X0260055Y0097236D01*
X0261653Y0095637D02*
X0284003Y0095637D01*
X0282405Y0094039D02*
X0263252Y0094039D01*
X0264850Y0092440D02*
X0280806Y0092440D01*
X0279208Y0090842D02*
X0265928Y0090842D01*
X0265928Y0089243D02*
X0277609Y0089243D01*
X0276011Y0087644D02*
X0265928Y0087644D01*
X0265928Y0086046D02*
X0274412Y0086046D01*
X0272814Y0084447D02*
X0265928Y0084447D01*
X0265928Y0082849D02*
X0271215Y0082849D01*
X0269617Y0081250D02*
X0265657Y0081250D01*
X0264058Y0079652D02*
X0268018Y0079652D01*
X0266420Y0078053D02*
X0262459Y0078053D01*
X0260861Y0076455D02*
X0264821Y0076455D01*
X0263223Y0074856D02*
X0259262Y0074856D01*
X0257664Y0073258D02*
X0261624Y0073258D01*
X0260026Y0071659D02*
X0258191Y0071659D01*
X0271070Y0066864D02*
X0296231Y0066864D01*
X0288697Y0058871D02*
X0284728Y0058871D01*
X0285922Y0057273D02*
X0287434Y0057273D01*
X0286971Y0055674D02*
X0286362Y0055674D01*
X0286371Y0054076D02*
X0286971Y0054076D01*
X0286971Y0052477D02*
X0286371Y0052477D01*
X0286371Y0050879D02*
X0286971Y0050879D01*
X0286971Y0049280D02*
X0286371Y0049280D01*
X0286112Y0047682D02*
X0287237Y0047682D01*
X0288222Y0046083D02*
X0285202Y0046083D01*
X0281771Y0052477D02*
X0281371Y0052477D01*
X0281371Y0052440D02*
X0281371Y0060040D01*
X0281193Y0060040D01*
X0280447Y0059922D01*
X0279728Y0059688D01*
X0279055Y0059345D01*
X0278444Y0058901D01*
X0277910Y0058367D01*
X0277466Y0057756D01*
X0277123Y0057083D01*
X0276889Y0056364D01*
X0276771Y0055618D01*
X0276771Y0052440D01*
X0281371Y0052440D01*
X0281371Y0054076D02*
X0281771Y0054076D01*
X0281771Y0055674D02*
X0281371Y0055674D01*
X0281371Y0057273D02*
X0281771Y0057273D01*
X0281771Y0058871D02*
X0281371Y0058871D01*
X0278414Y0058871D02*
X0274445Y0058871D01*
X0275708Y0057273D02*
X0277219Y0057273D01*
X0276780Y0055674D02*
X0276171Y0055674D01*
X0276171Y0054076D02*
X0276771Y0054076D01*
X0276771Y0052477D02*
X0276171Y0052477D01*
X0276171Y0050879D02*
X0276771Y0050879D01*
X0276771Y0049280D02*
X0276171Y0049280D01*
X0275904Y0047682D02*
X0277030Y0047682D01*
X0277940Y0046083D02*
X0274919Y0046083D01*
X0268222Y0046083D02*
X0258942Y0046083D01*
X0258942Y0047682D02*
X0267237Y0047682D01*
X0266971Y0049280D02*
X0254176Y0049280D01*
X0253611Y0049280D02*
X0248086Y0049280D01*
X0248846Y0049083D02*
X0248846Y0045881D01*
X0248968Y0045423D01*
X0249205Y0045013D01*
X0249326Y0044892D01*
X0243698Y0044892D01*
X0248846Y0050040D01*
X0248846Y0049649D01*
X0253611Y0049649D01*
X0253611Y0049083D01*
X0248846Y0049083D01*
X0248846Y0047682D02*
X0246488Y0047682D01*
X0244889Y0046083D02*
X0248846Y0046083D01*
X0243745Y0050879D02*
X0208942Y0050879D01*
X0208942Y0049649D02*
X0208942Y0052851D01*
X0208819Y0053309D01*
X0208582Y0053719D01*
X0208504Y0053798D01*
X0211598Y0056892D01*
X0249512Y0056892D01*
X0249812Y0056592D01*
X0249458Y0056592D01*
X0248228Y0055362D01*
X0239558Y0046692D01*
X0208942Y0046692D01*
X0208942Y0049083D01*
X0204176Y0049083D01*
X0204176Y0049649D01*
X0208942Y0049649D01*
X0208942Y0047682D02*
X0240548Y0047682D01*
X0242147Y0049280D02*
X0204176Y0049280D01*
X0203611Y0049280D02*
X0065910Y0049280D01*
X0067509Y0047682D02*
X0198846Y0047682D01*
X0198846Y0046692D02*
X0068498Y0046692D01*
X0061197Y0053994D01*
X0063167Y0053994D01*
X0066038Y0056864D01*
X0066038Y0060923D01*
X0063167Y0063794D01*
X0059108Y0063794D01*
X0056238Y0060923D01*
X0056238Y0058952D01*
X0042991Y0072199D01*
X0043391Y0072199D01*
X0045082Y0072900D01*
X0046376Y0074194D01*
X0047076Y0075884D01*
X0047076Y0077592D01*
X0068558Y0077592D01*
X0085328Y0060822D01*
X0086558Y0059592D01*
X0112559Y0059592D01*
X0112248Y0059165D01*
X0111884Y0058450D01*
X0111636Y0057686D01*
X0111510Y0056894D01*
X0111510Y0056792D01*
X0116310Y0056792D01*
X0116310Y0056192D01*
X0111510Y0056192D01*
X0111510Y0056091D01*
X0111636Y0055298D01*
X0111884Y0054534D01*
X0112248Y0053819D01*
X0112720Y0053170D01*
X0113288Y0052602D01*
X0113937Y0052130D01*
X0114653Y0051766D01*
X0115416Y0051518D01*
X0116209Y0051392D01*
X0116310Y0051392D01*
X0116310Y0056192D01*
X0116910Y0056192D01*
X0116910Y0051392D01*
X0117012Y0051392D01*
X0117804Y0051518D01*
X0118568Y0051766D01*
X0119283Y0052130D01*
X0119933Y0052602D01*
X0120500Y0053170D01*
X0120972Y0053819D01*
X0121337Y0054534D01*
X0121585Y0055298D01*
X0121710Y0056091D01*
X0121710Y0056192D01*
X0116910Y0056192D01*
X0116910Y0056792D01*
X0121710Y0056792D01*
X0121710Y0056894D01*
X0121585Y0057686D01*
X0121337Y0058450D01*
X0120972Y0059165D01*
X0120500Y0059815D01*
X0120260Y0060054D01*
X0142298Y0082092D01*
X0143189Y0082983D01*
X0143835Y0082338D01*
X0145636Y0081592D01*
X0147585Y0081592D01*
X0149076Y0082210D01*
X0148061Y0081195D01*
X0147585Y0081392D01*
X0145636Y0081392D01*
X0143835Y0080646D01*
X0142456Y0079268D01*
X0141710Y0077467D01*
X0141710Y0075517D01*
X0142456Y0073716D01*
X0143835Y0072338D01*
X0145636Y0071592D01*
X0147585Y0071592D01*
X0148906Y0072139D01*
X0147990Y0071224D01*
X0147585Y0071392D01*
X0145636Y0071392D01*
X0143835Y0070646D01*
X0142456Y0069268D01*
X0141710Y0067467D01*
X0141710Y0065517D01*
X0142456Y0063716D01*
X0143835Y0062338D01*
X0145636Y0061592D01*
X0147585Y0061592D01*
X0148735Y0062068D01*
X0148734Y0062068D01*
X0148735Y0062068D02*
X0147920Y0061253D01*
X0147585Y0061392D01*
X0145636Y0061392D01*
X0143835Y0060646D01*
X0142456Y0059268D01*
X0141710Y0057467D01*
X0141710Y0055517D01*
X0142456Y0053716D01*
X0143835Y0052338D01*
X0145636Y0051592D01*
X0147585Y0051592D01*
X0149386Y0052338D01*
X0150764Y0053716D01*
X0151510Y0055517D01*
X0151510Y0057467D01*
X0151089Y0058483D01*
X0162428Y0069822D01*
X0162428Y0072192D01*
X0183737Y0072192D01*
X0183376Y0071831D01*
X0182828Y0070508D01*
X0182828Y0069076D01*
X0183376Y0067753D01*
X0184389Y0066740D01*
X0185712Y0066192D01*
X0187058Y0066192D01*
X0199368Y0053882D01*
X0199205Y0053719D01*
X0198968Y0053309D01*
X0198846Y0052851D01*
X0198846Y0049649D01*
X0203611Y0049649D01*
X0203611Y0049083D01*
X0198846Y0049083D01*
X0198846Y0046692D01*
X0198846Y0050879D02*
X0064312Y0050879D01*
X0062713Y0052477D02*
X0113460Y0052477D01*
X0112118Y0054076D02*
X0073532Y0054076D01*
X0073250Y0053794D02*
X0076238Y0056781D01*
X0076238Y0058894D01*
X0076238Y0061006D01*
X0073250Y0063994D01*
X0071138Y0063994D01*
X0071138Y0058894D01*
X0071138Y0058894D01*
X0076238Y0058894D01*
X0071138Y0058894D01*
X0071138Y0058894D01*
X0071138Y0063994D01*
X0069025Y0063994D01*
X0066038Y0061006D01*
X0066038Y0058894D01*
X0071138Y0058894D01*
X0071138Y0058894D01*
X0071138Y0053794D01*
X0073250Y0053794D01*
X0071138Y0053794D02*
X0071138Y0058894D01*
X0071138Y0058894D01*
X0066038Y0058894D01*
X0066038Y0056781D01*
X0069025Y0053794D01*
X0071138Y0053794D01*
X0071138Y0054076D02*
X0071138Y0054076D01*
X0071138Y0055674D02*
X0071138Y0055674D01*
X0071138Y0057273D02*
X0071138Y0057273D01*
X0071138Y0058871D02*
X0071138Y0058871D01*
X0071138Y0060470D02*
X0071138Y0060470D01*
X0071138Y0062068D02*
X0071138Y0062068D01*
X0071138Y0063667D02*
X0071138Y0063667D01*
X0073577Y0063667D02*
X0082484Y0063667D01*
X0084082Y0062068D02*
X0075176Y0062068D01*
X0076238Y0060470D02*
X0085681Y0060470D01*
X0088298Y0063792D02*
X0074050Y0078040D01*
X0074413Y0078040D01*
X0076873Y0080500D01*
X0076873Y0083980D01*
X0075128Y0085725D01*
X0075128Y0088756D01*
X0076873Y0090500D01*
X0076873Y0093980D01*
X0075128Y0095725D01*
X0075128Y0098756D01*
X0076873Y0100500D01*
X0076873Y0103980D01*
X0075128Y0105725D01*
X0075128Y0108756D01*
X0076873Y0110500D01*
X0076873Y0110892D01*
X0098198Y0110892D01*
X0098473Y0111167D01*
X0098473Y0110500D01*
X0100934Y0108040D01*
X0102010Y0108040D01*
X0103610Y0106440D01*
X0100934Y0106440D01*
X0098473Y0103980D01*
X0098473Y0100500D01*
X0100934Y0098040D01*
X0102110Y0098040D01*
X0103710Y0096440D01*
X0100934Y0096440D01*
X0098473Y0093980D01*
X0098473Y0090500D01*
X0100934Y0088040D01*
X0103110Y0088040D01*
X0112288Y0078862D01*
X0111710Y0077467D01*
X0111710Y0075517D01*
X0111737Y0075454D01*
X0106782Y0080409D01*
X0106873Y0080500D01*
X0106873Y0083980D01*
X0104413Y0086440D01*
X0100934Y0086440D01*
X0098473Y0083980D01*
X0098473Y0080500D01*
X0100934Y0078040D01*
X0103210Y0078040D01*
X0112318Y0068933D01*
X0111710Y0067467D01*
X0111710Y0065517D01*
X0112425Y0063792D01*
X0088298Y0063792D01*
X0086825Y0065265D02*
X0111815Y0065265D01*
X0111710Y0066864D02*
X0085226Y0066864D01*
X0083628Y0068462D02*
X0112123Y0068462D01*
X0111190Y0070061D02*
X0082029Y0070061D01*
X0080431Y0071659D02*
X0109591Y0071659D01*
X0107993Y0073258D02*
X0078832Y0073258D01*
X0077234Y0074856D02*
X0106394Y0074856D01*
X0104796Y0076455D02*
X0075635Y0076455D01*
X0074426Y0078053D02*
X0100920Y0078053D01*
X0099322Y0079652D02*
X0076025Y0079652D01*
X0076873Y0081250D02*
X0098473Y0081250D01*
X0098473Y0082849D02*
X0076873Y0082849D01*
X0076406Y0084447D02*
X0098941Y0084447D01*
X0100539Y0086046D02*
X0075128Y0086046D01*
X0075128Y0087644D02*
X0103506Y0087644D01*
X0104807Y0086046D02*
X0105105Y0086046D01*
X0106406Y0084447D02*
X0106703Y0084447D01*
X0106873Y0082849D02*
X0108302Y0082849D01*
X0106873Y0081250D02*
X0109900Y0081250D01*
X0111499Y0079652D02*
X0107538Y0079652D01*
X0109137Y0078053D02*
X0111953Y0078053D01*
X0111710Y0076455D02*
X0110735Y0076455D01*
X0123873Y0063667D02*
X0142506Y0063667D01*
X0141815Y0065265D02*
X0125471Y0065265D01*
X0127070Y0066864D02*
X0141710Y0066864D01*
X0142123Y0068462D02*
X0128668Y0068462D01*
X0130267Y0070061D02*
X0143249Y0070061D01*
X0145473Y0071659D02*
X0131865Y0071659D01*
X0133464Y0073258D02*
X0142915Y0073258D01*
X0141984Y0074856D02*
X0135062Y0074856D01*
X0136661Y0076455D02*
X0141710Y0076455D01*
X0141953Y0078053D02*
X0138259Y0078053D01*
X0139858Y0079652D02*
X0142840Y0079652D01*
X0141456Y0081250D02*
X0145294Y0081250D01*
X0143324Y0082849D02*
X0143055Y0082849D01*
X0147927Y0081250D02*
X0148117Y0081250D01*
X0148426Y0071659D02*
X0147747Y0071659D01*
X0156273Y0063667D02*
X0189584Y0063667D01*
X0191182Y0062068D02*
X0154674Y0062068D01*
X0153076Y0060470D02*
X0192781Y0060470D01*
X0194379Y0058871D02*
X0151477Y0058871D01*
X0151510Y0057273D02*
X0195978Y0057273D01*
X0197576Y0055674D02*
X0151510Y0055674D01*
X0150913Y0054076D02*
X0199175Y0054076D01*
X0198846Y0052477D02*
X0149525Y0052477D01*
X0143695Y0052477D02*
X0119761Y0052477D01*
X0121103Y0054076D02*
X0142307Y0054076D01*
X0141710Y0055674D02*
X0121644Y0055674D01*
X0121650Y0057273D02*
X0141710Y0057273D01*
X0142292Y0058871D02*
X0121122Y0058871D01*
X0120676Y0060470D02*
X0143658Y0060470D01*
X0144486Y0062068D02*
X0122274Y0062068D01*
X0116910Y0055674D02*
X0116310Y0055674D01*
X0116310Y0054076D02*
X0116910Y0054076D01*
X0116910Y0052477D02*
X0116310Y0052477D01*
X0111576Y0055674D02*
X0075131Y0055674D01*
X0076238Y0057273D02*
X0111570Y0057273D01*
X0112099Y0058871D02*
X0076238Y0058871D01*
X0068743Y0054076D02*
X0063249Y0054076D01*
X0064848Y0055674D02*
X0067145Y0055674D01*
X0066038Y0057273D02*
X0066038Y0057273D01*
X0066038Y0058871D02*
X0066038Y0058871D01*
X0066038Y0060470D02*
X0066038Y0060470D01*
X0067100Y0062068D02*
X0064893Y0062068D01*
X0063294Y0063667D02*
X0068698Y0063667D01*
X0076090Y0070061D02*
X0045129Y0070061D01*
X0043531Y0071659D02*
X0074491Y0071659D01*
X0072893Y0073258D02*
X0045440Y0073258D01*
X0046651Y0074856D02*
X0071294Y0074856D01*
X0069696Y0076455D02*
X0047076Y0076455D01*
X0046728Y0068462D02*
X0077688Y0068462D01*
X0079287Y0066864D02*
X0048326Y0066864D01*
X0049925Y0065265D02*
X0080885Y0065265D01*
X0058981Y0063667D02*
X0051523Y0063667D01*
X0053122Y0062068D02*
X0057383Y0062068D01*
X0056238Y0060470D02*
X0054720Y0060470D01*
X0049631Y0054219D02*
X0062059Y0041792D01*
X0043967Y0041792D01*
X0044605Y0042193D01*
X0045685Y0043054D01*
X0046662Y0044031D01*
X0047524Y0045111D01*
X0048259Y0046281D01*
X0048858Y0047526D01*
X0049314Y0048830D01*
X0049622Y0050177D01*
X0049764Y0051440D01*
X0039332Y0051440D01*
X0039332Y0053009D01*
X0039301Y0053040D01*
X0049764Y0053040D01*
X0049631Y0054219D01*
X0049647Y0054076D02*
X0049775Y0054076D01*
X0051373Y0052477D02*
X0039332Y0052477D01*
X0038276Y0054065D02*
X0038245Y0054096D01*
X0036676Y0054096D01*
X0036676Y0064528D01*
X0035413Y0064385D01*
X0034066Y0064078D01*
X0032762Y0063622D01*
X0031517Y0063022D01*
X0030348Y0062287D01*
X0029267Y0061426D01*
X0028291Y0060449D01*
X0027429Y0059369D01*
X0027028Y0058731D01*
X0027028Y0072322D01*
X0027158Y0072192D01*
X0028958Y0070392D01*
X0033458Y0070392D01*
X0039456Y0064395D01*
X0038276Y0064528D01*
X0038276Y0054065D01*
X0038276Y0054076D02*
X0038265Y0054076D01*
X0038276Y0055674D02*
X0036676Y0055674D01*
X0036676Y0057273D02*
X0038276Y0057273D01*
X0038276Y0058871D02*
X0036676Y0058871D01*
X0036676Y0060470D02*
X0038276Y0060470D01*
X0038276Y0062068D02*
X0036676Y0062068D01*
X0036676Y0063667D02*
X0038276Y0063667D01*
X0038585Y0065265D02*
X0027028Y0065265D01*
X0027028Y0063667D02*
X0032891Y0063667D01*
X0030073Y0062068D02*
X0027028Y0062068D01*
X0027028Y0060470D02*
X0028311Y0060470D01*
X0027116Y0058871D02*
X0027028Y0058871D01*
X0027028Y0066864D02*
X0036987Y0066864D01*
X0035388Y0068462D02*
X0027028Y0068462D01*
X0027028Y0070061D02*
X0033790Y0070061D01*
X0027691Y0071659D02*
X0027028Y0071659D01*
X0049701Y0050879D02*
X0052972Y0050879D01*
X0054570Y0049280D02*
X0049417Y0049280D01*
X0048913Y0047682D02*
X0056169Y0047682D01*
X0057767Y0046083D02*
X0048134Y0046083D01*
X0047024Y0044485D02*
X0059366Y0044485D01*
X0060964Y0042886D02*
X0045475Y0042886D01*
X0075616Y0089243D02*
X0099731Y0089243D01*
X0098473Y0090842D02*
X0076873Y0090842D01*
X0076873Y0092440D02*
X0098473Y0092440D01*
X0098532Y0094039D02*
X0076815Y0094039D01*
X0075216Y0095637D02*
X0100130Y0095637D01*
X0100140Y0098834D02*
X0075207Y0098834D01*
X0075128Y0097236D02*
X0102915Y0097236D01*
X0098541Y0100433D02*
X0076805Y0100433D01*
X0076873Y0102031D02*
X0098473Y0102031D01*
X0098473Y0103630D02*
X0076873Y0103630D01*
X0075625Y0105228D02*
X0099721Y0105228D01*
X0100549Y0108425D02*
X0075128Y0108425D01*
X0075128Y0106827D02*
X0103224Y0106827D01*
X0106182Y0109809D02*
X0106873Y0110500D01*
X0106873Y0113980D01*
X0106361Y0114492D01*
X0109058Y0114492D01*
X0113228Y0110322D01*
X0112720Y0109815D01*
X0112248Y0109165D01*
X0111884Y0108450D01*
X0111636Y0107686D01*
X0111510Y0106894D01*
X0111510Y0106792D01*
X0116310Y0106792D01*
X0116310Y0106192D01*
X0111510Y0106192D01*
X0111510Y0106091D01*
X0111636Y0105298D01*
X0111884Y0104534D01*
X0112248Y0103819D01*
X0112453Y0103537D01*
X0106182Y0109809D01*
X0106396Y0110024D02*
X0112929Y0110024D01*
X0111928Y0111622D02*
X0106873Y0111622D01*
X0106873Y0113221D02*
X0110330Y0113221D01*
X0111677Y0117813D02*
X0110798Y0118692D01*
X0100058Y0118692D01*
X0098828Y0117462D01*
X0096458Y0115092D01*
X0075761Y0115092D01*
X0074413Y0116440D01*
X0073146Y0116440D01*
X0086498Y0129792D01*
X0111510Y0129792D01*
X0111510Y0126792D01*
X0116310Y0126792D01*
X0116310Y0126192D01*
X0111510Y0126192D01*
X0111510Y0122955D01*
X0111633Y0122497D01*
X0111870Y0122087D01*
X0112205Y0121752D01*
X0112615Y0121515D01*
X0113073Y0121392D01*
X0115187Y0121392D01*
X0114653Y0121218D01*
X0113937Y0120854D01*
X0113288Y0120382D01*
X0112720Y0119815D01*
X0112248Y0119165D01*
X0111884Y0118450D01*
X0111677Y0117813D01*
X0111743Y0118016D02*
X0111474Y0118016D01*
X0112575Y0119615D02*
X0076321Y0119615D01*
X0077919Y0121213D02*
X0114642Y0121213D01*
X0116310Y0121213D02*
X0116910Y0121213D01*
X0116310Y0121392D02*
X0116310Y0116792D01*
X0116910Y0116792D01*
X0116910Y0126192D01*
X0116310Y0126192D01*
X0116310Y0121392D01*
X0116310Y0122812D02*
X0116910Y0122812D01*
X0116910Y0124410D02*
X0116310Y0124410D01*
X0116310Y0126009D02*
X0116910Y0126009D01*
X0116910Y0126192D02*
X0116910Y0126792D01*
X0121710Y0126792D01*
X0121710Y0129792D01*
X0123398Y0129792D01*
X0124628Y0131022D01*
X0132036Y0138430D01*
X0132606Y0137859D01*
X0134591Y0137037D01*
X0136739Y0137037D01*
X0138724Y0137859D01*
X0140243Y0139378D01*
X0140665Y0140397D01*
X0141087Y0139378D01*
X0142606Y0137859D01*
X0144591Y0137037D01*
X0146739Y0137037D01*
X0147531Y0137365D01*
X0146528Y0136362D01*
X0130358Y0120192D01*
X0129012Y0120192D01*
X0127689Y0119644D01*
X0126676Y0118631D01*
X0126128Y0117308D01*
X0126128Y0115876D01*
X0126676Y0114553D01*
X0127689Y0113540D01*
X0128288Y0113292D01*
X0120589Y0113292D01*
X0120972Y0113819D01*
X0121337Y0114534D01*
X0121585Y0115298D01*
X0121710Y0116091D01*
X0121710Y0116192D01*
X0116910Y0116192D01*
X0116910Y0116792D01*
X0121710Y0116792D01*
X0121710Y0116894D01*
X0121585Y0117686D01*
X0121337Y0118450D01*
X0120972Y0119165D01*
X0120500Y0119815D01*
X0119933Y0120382D01*
X0119283Y0120854D01*
X0118568Y0121218D01*
X0118033Y0121392D01*
X0120147Y0121392D01*
X0120605Y0121515D01*
X0121015Y0121752D01*
X0121351Y0122087D01*
X0121588Y0122497D01*
X0121710Y0122955D01*
X0121710Y0126192D01*
X0116910Y0126192D01*
X0121710Y0126009D02*
X0136175Y0126009D01*
X0137774Y0127607D02*
X0121710Y0127607D01*
X0121710Y0129206D02*
X0139372Y0129206D01*
X0140971Y0130804D02*
X0124410Y0130804D01*
X0126009Y0132403D02*
X0142569Y0132403D01*
X0144168Y0134001D02*
X0127607Y0134001D01*
X0129206Y0135600D02*
X0145766Y0135600D01*
X0147129Y0137198D02*
X0147365Y0137198D01*
X0144202Y0137198D02*
X0137129Y0137198D01*
X0134202Y0137198D02*
X0130804Y0137198D01*
X0139662Y0138797D02*
X0141669Y0138797D01*
X0140666Y0140395D02*
X0140665Y0140395D01*
X0124703Y0137037D02*
X0121658Y0133992D01*
X0084758Y0133992D01*
X0056013Y0105247D01*
X0056013Y0111273D01*
X0055313Y0112964D01*
X0054019Y0114258D01*
X0052628Y0114834D01*
X0052628Y0128262D01*
X0047498Y0133392D01*
X0055637Y0133392D01*
X0056589Y0132440D01*
X0057912Y0131892D01*
X0059344Y0131892D01*
X0060668Y0132440D01*
X0061680Y0133453D01*
X0062228Y0134776D01*
X0062228Y0136208D01*
X0061680Y0137531D01*
X0060668Y0138544D01*
X0059778Y0138913D01*
X0060243Y0139378D01*
X0060665Y0140397D01*
X0061087Y0139378D01*
X0062606Y0137859D01*
X0064591Y0137037D01*
X0066739Y0137037D01*
X0068724Y0137859D01*
X0070243Y0139378D01*
X0070665Y0140397D01*
X0071087Y0139378D01*
X0072606Y0137859D01*
X0074591Y0137037D01*
X0076739Y0137037D01*
X0078724Y0137859D01*
X0080243Y0139378D01*
X0080665Y0140397D01*
X0080841Y0139974D01*
X0066458Y0125592D01*
X0065112Y0125592D01*
X0063789Y0125044D01*
X0062776Y0124031D01*
X0062228Y0122708D01*
X0062228Y0121276D01*
X0062776Y0119953D01*
X0063789Y0118940D01*
X0065112Y0118392D01*
X0066544Y0118392D01*
X0067868Y0118940D01*
X0068880Y0119953D01*
X0069428Y0121276D01*
X0069428Y0122622D01*
X0084062Y0137256D01*
X0084591Y0137037D01*
X0086739Y0137037D01*
X0088724Y0137859D01*
X0090243Y0139378D01*
X0090555Y0140131D01*
X0090876Y0139502D01*
X0091394Y0138789D01*
X0092017Y0138166D01*
X0092730Y0137647D01*
X0093516Y0137247D01*
X0094354Y0136975D01*
X0095225Y0136837D01*
X0095383Y0136837D01*
X0095383Y0142154D01*
X0095948Y0142154D01*
X0095948Y0136837D01*
X0096106Y0136837D01*
X0096977Y0136975D01*
X0097815Y0137247D01*
X0098600Y0137647D01*
X0099313Y0138166D01*
X0099937Y0138789D01*
X0100455Y0139502D01*
X0100776Y0140131D01*
X0101087Y0139378D01*
X0102606Y0137859D01*
X0104591Y0137037D01*
X0106739Y0137037D01*
X0108724Y0137859D01*
X0110243Y0139378D01*
X0110665Y0140397D01*
X0111087Y0139378D01*
X0112606Y0137859D01*
X0114591Y0137037D01*
X0116739Y0137037D01*
X0118724Y0137859D01*
X0120243Y0139378D01*
X0120665Y0140397D01*
X0121087Y0139378D01*
X0122606Y0137859D01*
X0124591Y0137037D01*
X0124703Y0137037D01*
X0124202Y0137198D02*
X0117129Y0137198D01*
X0114202Y0137198D02*
X0107129Y0137198D01*
X0104202Y0137198D02*
X0097664Y0137198D01*
X0095948Y0137198D02*
X0095383Y0137198D01*
X0095383Y0138797D02*
X0095948Y0138797D01*
X0095948Y0140395D02*
X0095383Y0140395D01*
X0095383Y0141994D02*
X0095948Y0141994D01*
X0099943Y0138797D02*
X0101669Y0138797D01*
X0109662Y0138797D02*
X0111669Y0138797D01*
X0110666Y0140395D02*
X0110665Y0140395D01*
X0119662Y0138797D02*
X0121669Y0138797D01*
X0120666Y0140395D02*
X0120665Y0140395D01*
X0123266Y0135600D02*
X0082406Y0135600D01*
X0084004Y0137198D02*
X0084202Y0137198D01*
X0087129Y0137198D02*
X0093666Y0137198D01*
X0091388Y0138797D02*
X0089662Y0138797D01*
X0083169Y0132403D02*
X0079209Y0132403D01*
X0080807Y0134001D02*
X0121668Y0134001D01*
X0111510Y0129206D02*
X0085912Y0129206D01*
X0084313Y0127607D02*
X0111510Y0127607D01*
X0111510Y0126009D02*
X0082715Y0126009D01*
X0081116Y0124410D02*
X0111510Y0124410D01*
X0111549Y0122812D02*
X0079518Y0122812D01*
X0076775Y0126009D02*
X0072815Y0126009D01*
X0074413Y0127607D02*
X0078374Y0127607D01*
X0079972Y0129206D02*
X0076012Y0129206D01*
X0077610Y0130804D02*
X0081571Y0130804D01*
X0076466Y0135600D02*
X0062228Y0135600D01*
X0061907Y0134001D02*
X0074868Y0134001D01*
X0073269Y0132403D02*
X0060577Y0132403D01*
X0056679Y0132403D02*
X0048487Y0132403D01*
X0050086Y0130804D02*
X0071671Y0130804D01*
X0070072Y0129206D02*
X0051685Y0129206D01*
X0052628Y0127607D02*
X0068474Y0127607D01*
X0066875Y0126009D02*
X0052628Y0126009D01*
X0052628Y0124410D02*
X0063155Y0124410D01*
X0062271Y0122812D02*
X0052628Y0122812D01*
X0052628Y0121213D02*
X0062254Y0121213D01*
X0063115Y0119615D02*
X0052628Y0119615D01*
X0052628Y0118016D02*
X0068783Y0118016D01*
X0068542Y0119615D02*
X0070381Y0119615D01*
X0069402Y0121213D02*
X0071980Y0121213D01*
X0073578Y0122812D02*
X0069618Y0122812D01*
X0071216Y0124410D02*
X0075177Y0124410D01*
X0074722Y0118016D02*
X0099383Y0118016D01*
X0097784Y0116418D02*
X0074435Y0116418D01*
X0076396Y0110024D02*
X0098950Y0110024D01*
X0107565Y0108425D02*
X0111876Y0108425D01*
X0111510Y0106827D02*
X0109164Y0106827D01*
X0110762Y0105228D02*
X0111658Y0105228D01*
X0112361Y0103630D02*
X0112386Y0103630D01*
X0113655Y0102335D02*
X0113937Y0102130D01*
X0114653Y0101766D01*
X0115416Y0101518D01*
X0116209Y0101392D01*
X0116310Y0101392D01*
X0116310Y0106192D01*
X0116910Y0106192D01*
X0116910Y0101392D01*
X0117012Y0101392D01*
X0117804Y0101518D01*
X0118568Y0101766D01*
X0119283Y0102130D01*
X0119933Y0102602D01*
X0120500Y0103170D01*
X0120972Y0103819D01*
X0121337Y0104534D01*
X0121585Y0105298D01*
X0121710Y0106091D01*
X0121710Y0106192D01*
X0116910Y0106192D01*
X0116910Y0106792D01*
X0121710Y0106792D01*
X0121710Y0106894D01*
X0121585Y0107686D01*
X0121337Y0108450D01*
X0121009Y0109092D01*
X0129159Y0109092D01*
X0120049Y0099983D01*
X0119386Y0100646D01*
X0117585Y0101392D01*
X0115636Y0101392D01*
X0114902Y0101088D01*
X0113655Y0102335D01*
X0113959Y0102031D02*
X0114132Y0102031D01*
X0116310Y0102031D02*
X0116910Y0102031D01*
X0116910Y0103630D02*
X0116310Y0103630D01*
X0116310Y0105228D02*
X0116910Y0105228D01*
X0119089Y0102031D02*
X0122097Y0102031D01*
X0120834Y0103630D02*
X0123696Y0103630D01*
X0125295Y0105228D02*
X0121562Y0105228D01*
X0121710Y0106827D02*
X0126893Y0106827D01*
X0128492Y0108425D02*
X0121345Y0108425D01*
X0121429Y0114819D02*
X0126566Y0114819D01*
X0126128Y0116418D02*
X0116910Y0116418D01*
X0116910Y0118016D02*
X0116310Y0118016D01*
X0116310Y0119615D02*
X0116910Y0119615D01*
X0118578Y0121213D02*
X0131380Y0121213D01*
X0132978Y0122812D02*
X0121672Y0122812D01*
X0121710Y0124410D02*
X0134577Y0124410D01*
X0127660Y0119615D02*
X0120645Y0119615D01*
X0121477Y0118016D02*
X0126422Y0118016D01*
X0120499Y0100433D02*
X0119599Y0100433D01*
X0162428Y0071659D02*
X0183305Y0071659D01*
X0182828Y0070061D02*
X0162428Y0070061D01*
X0161068Y0068462D02*
X0183083Y0068462D01*
X0184265Y0066864D02*
X0159470Y0066864D01*
X0157871Y0065265D02*
X0187985Y0065265D01*
X0208782Y0054076D02*
X0246942Y0054076D01*
X0248541Y0055674D02*
X0210380Y0055674D01*
X0208942Y0052477D02*
X0245344Y0052477D01*
X0258282Y0054076D02*
X0266971Y0054076D01*
X0266971Y0055674D02*
X0259880Y0055674D01*
X0261479Y0057273D02*
X0267434Y0057273D01*
X0268697Y0058871D02*
X0263077Y0058871D01*
X0266971Y0052477D02*
X0258942Y0052477D01*
X0258942Y0050879D02*
X0266971Y0050879D01*
X0245288Y0086292D02*
X0219698Y0086292D01*
X0208404Y0097586D01*
X0208742Y0098402D01*
X0208742Y0100330D01*
X0208095Y0101892D01*
X0216998Y0101892D01*
X0218228Y0103122D01*
X0229898Y0114792D01*
X0231244Y0114792D01*
X0232568Y0115340D01*
X0233580Y0116353D01*
X0234128Y0117676D01*
X0234128Y0119108D01*
X0233580Y0120431D01*
X0232568Y0121444D01*
X0231244Y0121992D01*
X0229812Y0121992D01*
X0228489Y0121444D01*
X0227476Y0120431D01*
X0226928Y0119108D01*
X0226928Y0117762D01*
X0224995Y0115829D01*
X0224580Y0116831D01*
X0223568Y0117844D01*
X0222244Y0118392D01*
X0220812Y0118392D01*
X0219489Y0117844D01*
X0218537Y0116892D01*
X0208942Y0116892D01*
X0208942Y0119083D01*
X0204176Y0119083D01*
X0204176Y0119649D01*
X0208942Y0119649D01*
X0208942Y0122592D01*
X0217637Y0122592D01*
X0218589Y0121640D01*
X0219912Y0121092D01*
X0221344Y0121092D01*
X0222668Y0121640D01*
X0223680Y0122653D01*
X0224228Y0123976D01*
X0224228Y0125408D01*
X0223904Y0126192D01*
X0232037Y0126192D01*
X0232989Y0125240D01*
X0234312Y0124692D01*
X0235744Y0124692D01*
X0237068Y0125240D01*
X0238080Y0126253D01*
X0238495Y0127255D01*
X0247658Y0118092D01*
X0249046Y0118092D01*
X0249046Y0117358D01*
X0250385Y0116019D01*
X0250028Y0115662D01*
X0244628Y0110262D01*
X0244628Y0092583D01*
X0243676Y0091631D01*
X0243128Y0090308D01*
X0243128Y0088876D01*
X0243676Y0087553D01*
X0244689Y0086540D01*
X0245288Y0086292D01*
X0243638Y0087644D02*
X0218346Y0087644D01*
X0216747Y0089243D02*
X0243128Y0089243D01*
X0243349Y0090842D02*
X0215149Y0090842D01*
X0213550Y0092440D02*
X0244485Y0092440D01*
X0244628Y0094039D02*
X0211952Y0094039D01*
X0210353Y0095637D02*
X0244628Y0095637D01*
X0244628Y0097236D02*
X0208755Y0097236D01*
X0208742Y0098834D02*
X0244628Y0098834D01*
X0244628Y0100433D02*
X0208699Y0100433D01*
X0217137Y0102031D02*
X0244628Y0102031D01*
X0244628Y0103630D02*
X0218736Y0103630D01*
X0220334Y0105228D02*
X0244628Y0105228D01*
X0244628Y0106827D02*
X0221933Y0106827D01*
X0223531Y0108425D02*
X0244628Y0108425D01*
X0244628Y0110024D02*
X0225130Y0110024D01*
X0226728Y0111622D02*
X0245989Y0111622D01*
X0247587Y0113221D02*
X0228327Y0113221D01*
X0231310Y0114819D02*
X0249186Y0114819D01*
X0249986Y0116418D02*
X0233607Y0116418D01*
X0234128Y0118016D02*
X0249046Y0118016D01*
X0246136Y0119615D02*
X0233919Y0119615D01*
X0232798Y0121213D02*
X0244537Y0121213D01*
X0242939Y0122812D02*
X0223746Y0122812D01*
X0224228Y0124410D02*
X0241340Y0124410D01*
X0239742Y0126009D02*
X0237836Y0126009D01*
X0232221Y0126009D02*
X0223980Y0126009D01*
X0221637Y0121213D02*
X0228258Y0121213D01*
X0227138Y0119615D02*
X0204176Y0119615D01*
X0203611Y0119615D02*
X0196021Y0119615D01*
X0197198Y0120792D02*
X0194665Y0118259D01*
X0195668Y0117844D01*
X0196620Y0116892D01*
X0198846Y0116892D01*
X0198846Y0119083D01*
X0203611Y0119083D01*
X0203611Y0119649D01*
X0198846Y0119649D01*
X0198846Y0120792D01*
X0197198Y0120792D01*
X0198846Y0118016D02*
X0195252Y0118016D01*
X0208942Y0118016D02*
X0219905Y0118016D01*
X0219620Y0121213D02*
X0208942Y0121213D01*
X0223152Y0118016D02*
X0226928Y0118016D01*
X0225584Y0116418D02*
X0224752Y0116418D01*
X0255998Y0143592D02*
X0260243Y0143592D01*
X0259320Y0145191D02*
X0254399Y0145191D01*
X0252801Y0146789D02*
X0258852Y0146789D01*
X0258476Y0148388D02*
X0251202Y0148388D01*
X0249604Y0149986D02*
X0258476Y0149986D01*
X0258587Y0151585D02*
X0248005Y0151585D01*
X0246407Y0153183D02*
X0259015Y0153183D01*
X0259672Y0154782D02*
X0244808Y0154782D01*
X0243210Y0156380D02*
X0260595Y0156380D01*
X0262093Y0157979D02*
X0241611Y0157979D01*
X0240013Y0159577D02*
X0264317Y0159577D01*
X0275235Y0159577D02*
X0278828Y0159577D01*
X0278828Y0157979D02*
X0277458Y0157979D01*
X0278828Y0161176D02*
X0238414Y0161176D01*
X0236816Y0162775D02*
X0278828Y0162775D01*
X0278828Y0164373D02*
X0235217Y0164373D01*
X0234128Y0165972D02*
X0278828Y0165972D01*
X0278828Y0167570D02*
X0233813Y0167570D01*
X0238375Y0169169D02*
X0278828Y0169169D01*
X0278828Y0170767D02*
X0239973Y0170767D01*
X0241572Y0172366D02*
X0278828Y0172366D01*
X0278828Y0173964D02*
X0243170Y0173964D01*
X0244769Y0175563D02*
X0278828Y0175563D01*
X0278828Y0177161D02*
X0263394Y0177161D01*
X0265207Y0178760D02*
X0278828Y0178760D01*
X0278828Y0180358D02*
X0265628Y0180358D01*
X0265318Y0181957D02*
X0278828Y0181957D01*
X0278828Y0183555D02*
X0264128Y0183555D01*
X0264128Y0185154D02*
X0278828Y0185154D01*
X0278828Y0186752D02*
X0264128Y0186752D01*
X0264128Y0188351D02*
X0278828Y0188351D01*
X0278828Y0189949D02*
X0264128Y0189949D01*
X0264128Y0191548D02*
X0278828Y0191548D01*
X0278828Y0193146D02*
X0264128Y0193146D01*
X0264128Y0194745D02*
X0278828Y0194745D01*
X0278828Y0196343D02*
X0264128Y0196343D01*
X0264128Y0197942D02*
X0265534Y0197942D01*
X0267176Y0197942D02*
X0267776Y0197942D01*
X0267776Y0199540D02*
X0267176Y0199540D01*
X0267176Y0201139D02*
X0267776Y0201139D01*
X0267776Y0202737D02*
X0278828Y0202737D01*
X0278828Y0201139D02*
X0272340Y0201139D01*
X0271504Y0199540D02*
X0278828Y0199540D01*
X0278828Y0197942D02*
X0269418Y0197942D01*
X0267776Y0202973D02*
X0272576Y0202973D01*
X0272576Y0203075D01*
X0272451Y0203867D01*
X0272203Y0204631D01*
X0271838Y0205346D01*
X0271366Y0205996D01*
X0270799Y0206563D01*
X0270149Y0207035D01*
X0269434Y0207400D01*
X0268671Y0207648D01*
X0267878Y0207773D01*
X0267776Y0207773D01*
X0267776Y0202973D01*
X0267776Y0204336D02*
X0267176Y0204336D01*
X0267176Y0205934D02*
X0267776Y0205934D01*
X0267776Y0207533D02*
X0267176Y0207533D01*
X0265929Y0207533D02*
X0264128Y0207533D01*
X0269024Y0207533D02*
X0278828Y0207533D01*
X0278828Y0209131D02*
X0270864Y0209131D01*
X0271975Y0210730D02*
X0278828Y0210730D01*
X0278828Y0212328D02*
X0272376Y0212328D01*
X0272333Y0213927D02*
X0278993Y0213927D01*
X0280592Y0215525D02*
X0273931Y0215525D01*
X0275530Y0217124D02*
X0282190Y0217124D01*
X0279907Y0218722D02*
X0277128Y0218722D01*
X0278727Y0220321D02*
X0279128Y0220321D01*
X0278828Y0205934D02*
X0271411Y0205934D01*
X0272299Y0204336D02*
X0278828Y0204336D01*
X0291128Y0202737D02*
X0292576Y0202737D01*
X0292442Y0204336D02*
X0292861Y0204336D01*
X0292808Y0201139D02*
X0291128Y0201139D01*
X0291128Y0199540D02*
X0293680Y0199540D01*
X0296095Y0197942D02*
X0291128Y0197942D01*
X0291128Y0196343D02*
X0324830Y0196343D01*
X0324830Y0195318D02*
X0329595Y0195318D01*
X0329595Y0200083D01*
X0326393Y0200083D01*
X0325935Y0199961D01*
X0325525Y0199724D01*
X0325190Y0199389D01*
X0324953Y0198978D01*
X0324830Y0198520D01*
X0324830Y0195318D01*
X0324830Y0194745D02*
X0292240Y0194745D01*
X0292628Y0193146D02*
X0324830Y0193146D01*
X0324831Y0191548D02*
X0292285Y0191548D01*
X0290848Y0189949D02*
X0330616Y0189949D01*
X0330161Y0191548D02*
X0329595Y0191548D01*
X0329595Y0193146D02*
X0330161Y0193146D01*
X0330161Y0194745D02*
X0329595Y0194745D01*
X0329595Y0196343D02*
X0330161Y0196343D01*
X0330161Y0197942D02*
X0329595Y0197942D01*
X0329595Y0199540D02*
X0330161Y0199540D01*
X0332837Y0201139D02*
X0333728Y0201139D01*
X0337928Y0201139D02*
X0376918Y0201139D01*
X0376393Y0200083D02*
X0375935Y0199961D01*
X0375525Y0199724D01*
X0375190Y0199389D01*
X0374953Y0198978D01*
X0374830Y0198520D01*
X0374830Y0195318D01*
X0379595Y0195318D01*
X0379595Y0194753D01*
X0374830Y0194753D01*
X0374830Y0191550D01*
X0374953Y0191093D01*
X0375190Y0190682D01*
X0375525Y0190347D01*
X0375935Y0190110D01*
X0376393Y0189987D01*
X0379595Y0189987D01*
X0379595Y0194753D01*
X0380161Y0194753D01*
X0380161Y0195318D01*
X0384926Y0195318D01*
X0384926Y0198520D01*
X0384803Y0198978D01*
X0384566Y0199389D01*
X0384231Y0199724D01*
X0383821Y0199961D01*
X0383363Y0200083D01*
X0380161Y0200083D01*
X0380161Y0195318D01*
X0379595Y0195318D01*
X0379595Y0200083D01*
X0376393Y0200083D01*
X0375341Y0199540D02*
X0337928Y0199540D01*
X0337928Y0197942D02*
X0374830Y0197942D01*
X0374830Y0196343D02*
X0337928Y0196343D01*
X0337928Y0194745D02*
X0374830Y0194745D01*
X0374830Y0193146D02*
X0337928Y0193146D01*
X0337928Y0191548D02*
X0374831Y0191548D01*
X0379595Y0191548D02*
X0380161Y0191548D01*
X0380161Y0189987D02*
X0383363Y0189987D01*
X0383821Y0190110D01*
X0384231Y0190347D01*
X0384566Y0190682D01*
X0384803Y0191093D01*
X0384926Y0191550D01*
X0384926Y0194753D01*
X0380161Y0194753D01*
X0380161Y0189987D01*
X0380161Y0193146D02*
X0379595Y0193146D01*
X0379595Y0194745D02*
X0380161Y0194745D01*
X0380161Y0196343D02*
X0379595Y0196343D01*
X0379595Y0197942D02*
X0380161Y0197942D01*
X0380161Y0199540D02*
X0379595Y0199540D01*
X0377870Y0200187D02*
X0381886Y0200187D01*
X0384726Y0203027D01*
X0384726Y0207044D01*
X0381886Y0209883D01*
X0377870Y0209883D01*
X0375030Y0207044D01*
X0375030Y0203027D01*
X0377870Y0200187D01*
X0375320Y0202737D02*
X0337928Y0202737D01*
X0337928Y0204336D02*
X0375030Y0204336D01*
X0375030Y0205934D02*
X0338462Y0205934D01*
X0339369Y0207533D02*
X0375519Y0207533D01*
X0377118Y0209131D02*
X0339419Y0209131D01*
X0338582Y0210730D02*
X0377604Y0210730D01*
X0375752Y0212328D02*
X0337334Y0212328D01*
X0325665Y0207533D02*
X0305539Y0207533D01*
X0303940Y0205934D02*
X0325030Y0205934D01*
X0325030Y0204336D02*
X0302342Y0204336D01*
X0302376Y0202737D02*
X0325582Y0202737D01*
X0326918Y0201139D02*
X0302145Y0201139D01*
X0301273Y0199540D02*
X0325341Y0199540D01*
X0324830Y0197942D02*
X0298858Y0197942D01*
X0287528Y0188351D02*
X0329017Y0188351D01*
X0327419Y0186752D02*
X0287528Y0186752D01*
X0287528Y0185154D02*
X0325820Y0185154D01*
X0324222Y0183555D02*
X0287528Y0183555D01*
X0287528Y0181957D02*
X0322623Y0181957D01*
X0321025Y0180358D02*
X0287528Y0180358D01*
X0287528Y0178760D02*
X0319426Y0178760D01*
X0318428Y0177161D02*
X0287528Y0177161D01*
X0287528Y0175563D02*
X0318428Y0175563D01*
X0318428Y0173964D02*
X0287528Y0173964D01*
X0287528Y0172366D02*
X0318428Y0172366D01*
X0331760Y0185154D02*
X0391520Y0185154D01*
X0393119Y0186752D02*
X0333358Y0186752D01*
X0334957Y0188351D02*
X0394717Y0188351D01*
X0396316Y0189949D02*
X0336555Y0189949D01*
X0364052Y0172366D02*
X0378732Y0172366D01*
X0377133Y0170767D02*
X0365650Y0170767D01*
X0365687Y0169169D02*
X0375535Y0169169D01*
X0373936Y0167570D02*
X0365687Y0167570D01*
X0365153Y0165972D02*
X0372338Y0165972D01*
X0384925Y0191548D02*
X0397914Y0191548D01*
X0399513Y0193146D02*
X0384926Y0193146D01*
X0384926Y0194745D02*
X0401111Y0194745D01*
X0402710Y0196343D02*
X0384926Y0196343D01*
X0384926Y0197942D02*
X0404308Y0197942D01*
X0405728Y0199540D02*
X0384415Y0199540D01*
X0382837Y0201139D02*
X0405728Y0201139D01*
X0405728Y0202737D02*
X0384436Y0202737D01*
X0384726Y0204336D02*
X0406202Y0204336D01*
X0407801Y0205934D02*
X0384726Y0205934D01*
X0384237Y0207533D02*
X0409399Y0207533D01*
X0410998Y0209131D02*
X0382638Y0209131D01*
X0382152Y0210730D02*
X0412596Y0210730D01*
X0414195Y0212328D02*
X0384004Y0212328D01*
X0384666Y0213927D02*
X0415793Y0213927D01*
X0278828Y0141994D02*
X0278069Y0141994D01*
X0278828Y0140395D02*
X0276292Y0140395D01*
X0278828Y0138797D02*
X0272815Y0138797D01*
X0266736Y0138797D02*
X0260793Y0138797D01*
X0259195Y0140395D02*
X0263259Y0140395D01*
X0261482Y0141994D02*
X0257596Y0141994D01*
X0262392Y0137198D02*
X0278828Y0137198D01*
X0278828Y0135600D02*
X0263990Y0135600D01*
X0265589Y0134001D02*
X0277946Y0134001D01*
X0277328Y0132403D02*
X0267188Y0132403D01*
X0268786Y0130804D02*
X0277482Y0130804D01*
X0278524Y0129206D02*
X0270385Y0129206D01*
X0260663Y0177161D02*
X0246367Y0177161D01*
X0247966Y0178760D02*
X0253561Y0178760D01*
X0252095Y0180358D02*
X0249564Y0180358D01*
X0251163Y0181957D02*
X0252095Y0181957D01*
X0080666Y0140395D02*
X0080665Y0140395D01*
X0079662Y0138797D02*
X0079663Y0138797D01*
X0078065Y0137198D02*
X0077129Y0137198D01*
X0074202Y0137198D02*
X0067129Y0137198D01*
X0064202Y0137198D02*
X0061818Y0137198D01*
X0061669Y0138797D02*
X0060057Y0138797D01*
X0060665Y0140395D02*
X0060666Y0140395D01*
X0069662Y0138797D02*
X0071669Y0138797D01*
X0070666Y0140395D02*
X0070665Y0140395D01*
X0043928Y0128322D02*
X0043928Y0114464D01*
X0043256Y0114807D01*
X0042537Y0115040D01*
X0041791Y0115158D01*
X0041613Y0115158D01*
X0041613Y0107558D01*
X0041213Y0107558D01*
X0041213Y0107158D01*
X0036613Y0107158D01*
X0036613Y0104677D01*
X0036013Y0105277D01*
X0036013Y0111273D01*
X0035313Y0112964D01*
X0034019Y0114258D01*
X0032328Y0114958D01*
X0030498Y0114958D01*
X0028808Y0114258D01*
X0027514Y0112964D01*
X0027028Y0111792D01*
X0027028Y0142522D01*
X0028048Y0141503D01*
X0027676Y0141131D01*
X0027128Y0139808D01*
X0027128Y0138376D01*
X0027676Y0137053D01*
X0028689Y0136040D01*
X0030012Y0135492D01*
X0031444Y0135492D01*
X0032768Y0136040D01*
X0033780Y0137053D01*
X0034195Y0138055D01*
X0043928Y0128322D01*
X0043928Y0127607D02*
X0027028Y0127607D01*
X0027028Y0126009D02*
X0043928Y0126009D01*
X0043928Y0124410D02*
X0027028Y0124410D01*
X0027028Y0122812D02*
X0043928Y0122812D01*
X0043928Y0121213D02*
X0027028Y0121213D01*
X0027028Y0119615D02*
X0043928Y0119615D01*
X0043928Y0118016D02*
X0027028Y0118016D01*
X0027028Y0116418D02*
X0043928Y0116418D01*
X0043928Y0114819D02*
X0043217Y0114819D01*
X0041613Y0114819D02*
X0041213Y0114819D01*
X0041213Y0115158D02*
X0041036Y0115158D01*
X0040289Y0115040D01*
X0039571Y0114807D01*
X0038898Y0114464D01*
X0038286Y0114019D01*
X0037752Y0113485D01*
X0037308Y0112874D01*
X0036965Y0112201D01*
X0036732Y0111482D01*
X0036613Y0110736D01*
X0036613Y0107558D01*
X0041213Y0107558D01*
X0041213Y0115158D01*
X0039610Y0114819D02*
X0032664Y0114819D01*
X0030163Y0114819D02*
X0027028Y0114819D01*
X0027028Y0113221D02*
X0027770Y0113221D01*
X0035056Y0113221D02*
X0037560Y0113221D01*
X0036777Y0111622D02*
X0035869Y0111622D01*
X0036013Y0110024D02*
X0036613Y0110024D01*
X0036613Y0108425D02*
X0036013Y0108425D01*
X0036013Y0106827D02*
X0036613Y0106827D01*
X0036613Y0105228D02*
X0036062Y0105228D01*
X0041213Y0108425D02*
X0041613Y0108425D01*
X0041613Y0110024D02*
X0041213Y0110024D01*
X0041213Y0111622D02*
X0041613Y0111622D01*
X0041613Y0113221D02*
X0041213Y0113221D01*
X0052664Y0114819D02*
X0065586Y0114819D01*
X0067184Y0116418D02*
X0052628Y0116418D01*
X0055056Y0113221D02*
X0063987Y0113221D01*
X0062389Y0111622D02*
X0055869Y0111622D01*
X0056013Y0110024D02*
X0060790Y0110024D01*
X0059192Y0108425D02*
X0056013Y0108425D01*
X0056013Y0106827D02*
X0057593Y0106827D01*
X0043045Y0129206D02*
X0027028Y0129206D01*
X0027028Y0130804D02*
X0041446Y0130804D01*
X0039848Y0132403D02*
X0027028Y0132403D01*
X0027028Y0134001D02*
X0038249Y0134001D01*
X0036651Y0135600D02*
X0031704Y0135600D01*
X0029752Y0135600D02*
X0027028Y0135600D01*
X0027028Y0137198D02*
X0027616Y0137198D01*
X0027128Y0138797D02*
X0027028Y0138797D01*
X0027028Y0140395D02*
X0027372Y0140395D01*
X0027557Y0141994D02*
X0027028Y0141994D01*
X0033841Y0137198D02*
X0035052Y0137198D01*
D30*
X0096531Y0107358D03*
X0092594Y0075862D03*
X0096531Y0058903D03*
X0234327Y0048303D03*
X0242201Y0051703D03*
X0261886Y0056177D03*
X0245635Y0159043D03*
X0273697Y0162476D03*
X0269760Y0186098D03*
X0309130Y0186098D03*
X0332752Y0182161D03*
X0309130Y0158539D03*
X0356374Y0209720D03*
X0356374Y0237280D03*
X0391807Y0233343D03*
X0407555Y0272713D03*
X0340626Y0296335D03*
X0191020Y0245154D03*
X0187083Y0268776D03*
X0187083Y0276650D03*
X0179209Y0279403D03*
X0183146Y0292398D03*
X0057161Y0280587D03*
X0057161Y0253028D03*
M02*
