G75*
%MOIN*%
%OFA0B0*%
%FSLAX25Y25*%
%IPPOS*%
%LPD*%
%AMOC8*
5,1,8,0,0,1.08239X$1,22.5*
%
%ADD10C,0.00000*%
%ADD11C,0.00512*%
%ADD12C,0.00600*%
%ADD13R,0.03937X0.04331*%
%ADD14C,0.06000*%
%ADD15R,0.08700X0.02400*%
%ADD16C,0.01600*%
D10*
X0021216Y0001256D02*
X0021216Y0064248D01*
X0084208Y0064248D01*
X0084208Y0001256D01*
X0021216Y0001256D01*
D11*
X0005665Y0001256D01*
X0013342Y0001512D02*
X0014365Y0011492D01*
X0014599Y0011492D02*
X0013342Y0001512D01*
X0012318Y0011492D01*
X0012085Y0011492D02*
X0014599Y0011492D01*
X0013854Y0011492D02*
X0013342Y0001512D01*
X0012830Y0011492D01*
X0012085Y0011492D02*
X0013342Y0001512D01*
X0013342Y0063992D01*
X0014365Y0054012D01*
X0014599Y0054012D02*
X0013342Y0063992D01*
X0012318Y0054012D01*
X0012085Y0054012D02*
X0014599Y0054012D01*
X0013854Y0054012D02*
X0013342Y0063992D01*
X0012830Y0054012D01*
X0012085Y0054012D02*
X0013342Y0063992D01*
X0005665Y0064248D02*
X0021216Y0064248D01*
X0021216Y0079799D01*
X0021472Y0072122D02*
X0031452Y0071098D01*
X0031452Y0070865D02*
X0021472Y0072122D01*
X0031452Y0073146D01*
X0031452Y0073379D02*
X0031452Y0070865D01*
X0031452Y0071610D02*
X0021472Y0072122D01*
X0031452Y0072634D01*
X0031452Y0073379D02*
X0021472Y0072122D01*
X0083952Y0072122D01*
X0073972Y0071098D01*
X0073972Y0070865D02*
X0083952Y0072122D01*
X0073972Y0073146D01*
X0073972Y0073379D02*
X0073972Y0070865D01*
X0073972Y0071610D02*
X0083952Y0072122D01*
X0073972Y0072634D01*
X0073972Y0073379D02*
X0083952Y0072122D01*
X0084208Y0079799D02*
X0084208Y0064248D01*
D12*
X0061994Y0075573D02*
X0061934Y0075700D01*
X0061878Y0075829D01*
X0061825Y0075959D01*
X0061775Y0076091D01*
X0061729Y0076224D01*
X0061687Y0076358D01*
X0061648Y0076493D01*
X0061612Y0076630D01*
X0061581Y0076767D01*
X0061553Y0076905D01*
X0061528Y0077043D01*
X0061508Y0077182D01*
X0061491Y0077322D01*
X0061478Y0077462D01*
X0061469Y0077603D01*
X0061463Y0077743D01*
X0061461Y0077884D01*
X0055840Y0075573D02*
X0055780Y0075700D01*
X0055724Y0075829D01*
X0055671Y0075959D01*
X0055621Y0076091D01*
X0055575Y0076224D01*
X0055533Y0076358D01*
X0055494Y0076493D01*
X0055458Y0076630D01*
X0055427Y0076767D01*
X0055399Y0076905D01*
X0055374Y0077043D01*
X0055354Y0077182D01*
X0055337Y0077322D01*
X0055324Y0077462D01*
X0055315Y0077603D01*
X0055309Y0077743D01*
X0055307Y0077884D01*
X0058862Y0077884D02*
X0058860Y0078025D01*
X0058854Y0078165D01*
X0058845Y0078306D01*
X0058832Y0078446D01*
X0058815Y0078586D01*
X0058795Y0078725D01*
X0058770Y0078863D01*
X0058742Y0079001D01*
X0058711Y0079138D01*
X0058675Y0079275D01*
X0058636Y0079410D01*
X0058594Y0079544D01*
X0058548Y0079677D01*
X0058498Y0079809D01*
X0058445Y0079939D01*
X0058389Y0080068D01*
X0058329Y0080195D01*
X0058506Y0079662D02*
X0055662Y0076106D01*
X0057084Y0074683D02*
X0057155Y0074685D01*
X0057226Y0074691D01*
X0057296Y0074700D01*
X0057366Y0074714D01*
X0057435Y0074731D01*
X0057502Y0074751D01*
X0057569Y0074776D01*
X0057634Y0074804D01*
X0057698Y0074835D01*
X0057760Y0074870D01*
X0057820Y0074908D01*
X0057877Y0074949D01*
X0057933Y0074993D01*
X0057986Y0075041D01*
X0058036Y0075091D01*
X0058084Y0075143D01*
X0058129Y0075198D01*
X0058170Y0075256D01*
X0058209Y0075316D01*
X0058244Y0075377D01*
X0058276Y0075441D01*
X0058304Y0075506D01*
X0058329Y0075572D01*
X0057084Y0074683D02*
X0057013Y0074685D01*
X0056942Y0074691D01*
X0056872Y0074700D01*
X0056802Y0074714D01*
X0056733Y0074731D01*
X0056666Y0074751D01*
X0056599Y0074776D01*
X0056534Y0074804D01*
X0056470Y0074835D01*
X0056408Y0074870D01*
X0056348Y0074908D01*
X0056290Y0074949D01*
X0056235Y0074993D01*
X0056182Y0075041D01*
X0056132Y0075091D01*
X0056084Y0075143D01*
X0056039Y0075198D01*
X0055998Y0075256D01*
X0055959Y0075316D01*
X0055924Y0075377D01*
X0055892Y0075441D01*
X0055864Y0075506D01*
X0055839Y0075572D01*
X0058329Y0075573D02*
X0058389Y0075700D01*
X0058445Y0075829D01*
X0058498Y0075959D01*
X0058548Y0076091D01*
X0058594Y0076224D01*
X0058636Y0076358D01*
X0058675Y0076493D01*
X0058711Y0076630D01*
X0058742Y0076767D01*
X0058770Y0076905D01*
X0058795Y0077043D01*
X0058815Y0077182D01*
X0058832Y0077322D01*
X0058845Y0077462D01*
X0058854Y0077603D01*
X0058860Y0077743D01*
X0058862Y0077884D01*
X0064483Y0075573D02*
X0064543Y0075700D01*
X0064599Y0075829D01*
X0064652Y0075959D01*
X0064702Y0076091D01*
X0064748Y0076224D01*
X0064790Y0076358D01*
X0064829Y0076493D01*
X0064865Y0076630D01*
X0064896Y0076767D01*
X0064924Y0076905D01*
X0064949Y0077043D01*
X0064969Y0077182D01*
X0064986Y0077322D01*
X0064999Y0077462D01*
X0065008Y0077603D01*
X0065014Y0077743D01*
X0065016Y0077884D01*
X0061460Y0077884D02*
X0061462Y0078025D01*
X0061468Y0078165D01*
X0061477Y0078306D01*
X0061490Y0078446D01*
X0061507Y0078586D01*
X0061527Y0078725D01*
X0061552Y0078863D01*
X0061580Y0079001D01*
X0061611Y0079138D01*
X0061647Y0079275D01*
X0061686Y0079410D01*
X0061728Y0079544D01*
X0061774Y0079677D01*
X0061824Y0079809D01*
X0061877Y0079939D01*
X0061933Y0080068D01*
X0061993Y0080195D01*
X0063238Y0081084D02*
X0063309Y0081082D01*
X0063380Y0081076D01*
X0063450Y0081067D01*
X0063520Y0081053D01*
X0063589Y0081036D01*
X0063656Y0081016D01*
X0063723Y0080991D01*
X0063788Y0080963D01*
X0063852Y0080932D01*
X0063914Y0080897D01*
X0063974Y0080859D01*
X0064032Y0080818D01*
X0064087Y0080774D01*
X0064140Y0080726D01*
X0064190Y0080676D01*
X0064238Y0080624D01*
X0064283Y0080569D01*
X0064324Y0080511D01*
X0064363Y0080451D01*
X0064398Y0080390D01*
X0064430Y0080326D01*
X0064458Y0080261D01*
X0064483Y0080195D01*
X0064660Y0079662D02*
X0061816Y0076106D01*
X0063238Y0074683D02*
X0063309Y0074685D01*
X0063380Y0074691D01*
X0063450Y0074700D01*
X0063520Y0074714D01*
X0063589Y0074731D01*
X0063656Y0074751D01*
X0063723Y0074776D01*
X0063788Y0074804D01*
X0063852Y0074835D01*
X0063914Y0074870D01*
X0063974Y0074908D01*
X0064031Y0074949D01*
X0064087Y0074993D01*
X0064140Y0075041D01*
X0064190Y0075091D01*
X0064238Y0075143D01*
X0064283Y0075198D01*
X0064324Y0075256D01*
X0064363Y0075316D01*
X0064398Y0075377D01*
X0064430Y0075441D01*
X0064458Y0075506D01*
X0064483Y0075572D01*
X0063238Y0074683D02*
X0063167Y0074685D01*
X0063096Y0074691D01*
X0063026Y0074700D01*
X0062956Y0074714D01*
X0062887Y0074731D01*
X0062820Y0074751D01*
X0062753Y0074776D01*
X0062688Y0074804D01*
X0062624Y0074835D01*
X0062562Y0074870D01*
X0062502Y0074908D01*
X0062444Y0074949D01*
X0062389Y0074993D01*
X0062336Y0075041D01*
X0062286Y0075091D01*
X0062238Y0075143D01*
X0062193Y0075198D01*
X0062152Y0075256D01*
X0062113Y0075316D01*
X0062078Y0075377D01*
X0062046Y0075441D01*
X0062018Y0075506D01*
X0061993Y0075572D01*
X0055306Y0077884D02*
X0055308Y0078025D01*
X0055314Y0078165D01*
X0055323Y0078306D01*
X0055336Y0078446D01*
X0055353Y0078586D01*
X0055373Y0078725D01*
X0055398Y0078863D01*
X0055426Y0079001D01*
X0055457Y0079138D01*
X0055493Y0079275D01*
X0055532Y0079410D01*
X0055574Y0079544D01*
X0055620Y0079677D01*
X0055670Y0079809D01*
X0055723Y0079939D01*
X0055779Y0080068D01*
X0055839Y0080195D01*
X0057084Y0081084D02*
X0057155Y0081082D01*
X0057226Y0081076D01*
X0057296Y0081067D01*
X0057366Y0081053D01*
X0057435Y0081036D01*
X0057502Y0081016D01*
X0057569Y0080991D01*
X0057634Y0080963D01*
X0057698Y0080932D01*
X0057760Y0080897D01*
X0057820Y0080859D01*
X0057878Y0080818D01*
X0057933Y0080774D01*
X0057986Y0080726D01*
X0058036Y0080676D01*
X0058084Y0080624D01*
X0058129Y0080569D01*
X0058170Y0080511D01*
X0058209Y0080451D01*
X0058244Y0080390D01*
X0058276Y0080326D01*
X0058304Y0080261D01*
X0058329Y0080195D01*
X0057084Y0081084D02*
X0057013Y0081082D01*
X0056942Y0081076D01*
X0056872Y0081067D01*
X0056802Y0081053D01*
X0056733Y0081036D01*
X0056666Y0081016D01*
X0056599Y0080991D01*
X0056534Y0080963D01*
X0056470Y0080932D01*
X0056408Y0080897D01*
X0056348Y0080859D01*
X0056290Y0080818D01*
X0056235Y0080774D01*
X0056182Y0080726D01*
X0056132Y0080676D01*
X0056084Y0080624D01*
X0056039Y0080569D01*
X0055998Y0080511D01*
X0055959Y0080451D01*
X0055924Y0080390D01*
X0055892Y0080326D01*
X0055864Y0080261D01*
X0055839Y0080195D01*
X0064483Y0080195D02*
X0064543Y0080068D01*
X0064599Y0079939D01*
X0064652Y0079809D01*
X0064702Y0079677D01*
X0064748Y0079544D01*
X0064790Y0079410D01*
X0064829Y0079275D01*
X0064865Y0079138D01*
X0064896Y0079001D01*
X0064924Y0078863D01*
X0064949Y0078725D01*
X0064969Y0078586D01*
X0064986Y0078446D01*
X0064999Y0078306D01*
X0065008Y0078165D01*
X0065014Y0078025D01*
X0065016Y0077884D01*
X0063238Y0081084D02*
X0063167Y0081082D01*
X0063096Y0081076D01*
X0063026Y0081067D01*
X0062956Y0081053D01*
X0062887Y0081036D01*
X0062820Y0081016D01*
X0062753Y0080991D01*
X0062688Y0080963D01*
X0062624Y0080932D01*
X0062562Y0080897D01*
X0062502Y0080859D01*
X0062444Y0080818D01*
X0062389Y0080774D01*
X0062336Y0080726D01*
X0062286Y0080676D01*
X0062238Y0080624D01*
X0062193Y0080569D01*
X0062152Y0080511D01*
X0062113Y0080451D01*
X0062078Y0080390D01*
X0062046Y0080326D01*
X0062018Y0080261D01*
X0061993Y0080195D01*
X0052954Y0075039D02*
X0052954Y0074684D01*
X0052599Y0074684D01*
X0052599Y0075039D01*
X0052954Y0075039D01*
X0050246Y0076462D02*
X0050246Y0076817D01*
X0050244Y0076891D01*
X0050238Y0076966D01*
X0050228Y0077039D01*
X0050215Y0077113D01*
X0050198Y0077185D01*
X0050176Y0077256D01*
X0050152Y0077327D01*
X0050123Y0077395D01*
X0050091Y0077463D01*
X0050055Y0077528D01*
X0050017Y0077591D01*
X0049974Y0077653D01*
X0049929Y0077712D01*
X0049881Y0077769D01*
X0049830Y0077823D01*
X0049776Y0077874D01*
X0049719Y0077922D01*
X0049660Y0077967D01*
X0049598Y0078010D01*
X0049535Y0078048D01*
X0049470Y0078084D01*
X0049402Y0078116D01*
X0049334Y0078145D01*
X0049263Y0078169D01*
X0049192Y0078191D01*
X0049120Y0078208D01*
X0049046Y0078221D01*
X0048973Y0078231D01*
X0048898Y0078237D01*
X0048824Y0078239D01*
X0046691Y0078239D01*
X0046691Y0076462D01*
X0046693Y0076379D01*
X0046699Y0076296D01*
X0046709Y0076213D01*
X0046722Y0076130D01*
X0046740Y0076049D01*
X0046761Y0075968D01*
X0046786Y0075889D01*
X0046815Y0075811D01*
X0046847Y0075734D01*
X0046883Y0075659D01*
X0046922Y0075585D01*
X0046965Y0075514D01*
X0047011Y0075444D01*
X0047061Y0075377D01*
X0047113Y0075312D01*
X0047168Y0075250D01*
X0047227Y0075190D01*
X0047288Y0075133D01*
X0047351Y0075079D01*
X0047417Y0075028D01*
X0047486Y0074981D01*
X0047556Y0074936D01*
X0047629Y0074895D01*
X0047703Y0074858D01*
X0047779Y0074823D01*
X0047857Y0074793D01*
X0047935Y0074766D01*
X0048016Y0074743D01*
X0048097Y0074723D01*
X0048179Y0074708D01*
X0048261Y0074696D01*
X0048344Y0074688D01*
X0048427Y0074684D01*
X0048511Y0074684D01*
X0048594Y0074688D01*
X0048677Y0074696D01*
X0048759Y0074708D01*
X0048841Y0074723D01*
X0048922Y0074743D01*
X0049003Y0074766D01*
X0049081Y0074793D01*
X0049159Y0074823D01*
X0049235Y0074858D01*
X0049309Y0074895D01*
X0049382Y0074936D01*
X0049452Y0074981D01*
X0049521Y0075028D01*
X0049587Y0075079D01*
X0049650Y0075133D01*
X0049711Y0075190D01*
X0049770Y0075250D01*
X0049825Y0075312D01*
X0049877Y0075377D01*
X0049927Y0075444D01*
X0049973Y0075514D01*
X0050016Y0075585D01*
X0050055Y0075659D01*
X0050091Y0075734D01*
X0050123Y0075811D01*
X0050152Y0075889D01*
X0050177Y0075968D01*
X0050198Y0076049D01*
X0050216Y0076130D01*
X0050229Y0076213D01*
X0050239Y0076296D01*
X0050245Y0076379D01*
X0050247Y0076462D01*
X0046691Y0078239D02*
X0046693Y0078345D01*
X0046699Y0078452D01*
X0046709Y0078557D01*
X0046723Y0078663D01*
X0046741Y0078768D01*
X0046762Y0078872D01*
X0046788Y0078975D01*
X0046817Y0079077D01*
X0046851Y0079178D01*
X0046888Y0079278D01*
X0046928Y0079376D01*
X0046973Y0079473D01*
X0047021Y0079568D01*
X0047072Y0079661D01*
X0047127Y0079752D01*
X0047185Y0079841D01*
X0047247Y0079928D01*
X0047311Y0080012D01*
X0047379Y0080094D01*
X0047450Y0080173D01*
X0047524Y0080250D01*
X0047601Y0080324D01*
X0047680Y0080395D01*
X0047762Y0080463D01*
X0047846Y0080527D01*
X0047933Y0080589D01*
X0048022Y0080647D01*
X0048113Y0080702D01*
X0048206Y0080753D01*
X0048301Y0080801D01*
X0048398Y0080846D01*
X0048496Y0080886D01*
X0048596Y0080923D01*
X0048697Y0080957D01*
X0048799Y0080986D01*
X0048902Y0081012D01*
X0049006Y0081033D01*
X0049111Y0081051D01*
X0049217Y0081065D01*
X0049322Y0081075D01*
X0049429Y0081081D01*
X0049535Y0081083D01*
X0044092Y0074684D02*
X0040537Y0074684D01*
X0042315Y0074684D02*
X0042315Y0081084D01*
X0040537Y0079662D01*
X0009891Y0042034D02*
X0009764Y0041974D01*
X0009635Y0041918D01*
X0009505Y0041865D01*
X0009373Y0041815D01*
X0009240Y0041769D01*
X0009106Y0041727D01*
X0008971Y0041688D01*
X0008834Y0041652D01*
X0008697Y0041621D01*
X0008559Y0041593D01*
X0008421Y0041568D01*
X0008282Y0041548D01*
X0008142Y0041531D01*
X0008002Y0041518D01*
X0007861Y0041509D01*
X0007721Y0041503D01*
X0007580Y0041501D01*
X0009891Y0035880D02*
X0009764Y0035820D01*
X0009635Y0035764D01*
X0009505Y0035711D01*
X0009373Y0035661D01*
X0009240Y0035615D01*
X0009106Y0035573D01*
X0008971Y0035534D01*
X0008834Y0035498D01*
X0008697Y0035467D01*
X0008559Y0035439D01*
X0008421Y0035414D01*
X0008282Y0035394D01*
X0008142Y0035377D01*
X0008002Y0035364D01*
X0007861Y0035355D01*
X0007721Y0035349D01*
X0007580Y0035347D01*
X0007580Y0038902D02*
X0007439Y0038900D01*
X0007299Y0038894D01*
X0007158Y0038885D01*
X0007018Y0038872D01*
X0006878Y0038855D01*
X0006739Y0038835D01*
X0006601Y0038810D01*
X0006463Y0038782D01*
X0006326Y0038751D01*
X0006189Y0038715D01*
X0006054Y0038676D01*
X0005920Y0038634D01*
X0005787Y0038588D01*
X0005655Y0038538D01*
X0005525Y0038485D01*
X0005396Y0038429D01*
X0005269Y0038369D01*
X0005802Y0038546D02*
X0009358Y0035702D01*
X0010780Y0037124D02*
X0010778Y0037195D01*
X0010772Y0037266D01*
X0010763Y0037336D01*
X0010749Y0037406D01*
X0010732Y0037475D01*
X0010712Y0037542D01*
X0010687Y0037609D01*
X0010659Y0037674D01*
X0010628Y0037738D01*
X0010593Y0037800D01*
X0010555Y0037860D01*
X0010514Y0037917D01*
X0010470Y0037973D01*
X0010422Y0038026D01*
X0010372Y0038076D01*
X0010320Y0038124D01*
X0010265Y0038169D01*
X0010207Y0038210D01*
X0010147Y0038249D01*
X0010086Y0038284D01*
X0010022Y0038316D01*
X0009957Y0038344D01*
X0009891Y0038369D01*
X0010780Y0037124D02*
X0010778Y0037053D01*
X0010772Y0036982D01*
X0010763Y0036912D01*
X0010749Y0036842D01*
X0010732Y0036773D01*
X0010712Y0036706D01*
X0010687Y0036639D01*
X0010659Y0036574D01*
X0010628Y0036510D01*
X0010593Y0036448D01*
X0010555Y0036388D01*
X0010514Y0036330D01*
X0010470Y0036275D01*
X0010422Y0036222D01*
X0010372Y0036172D01*
X0010320Y0036124D01*
X0010265Y0036079D01*
X0010207Y0036038D01*
X0010147Y0035999D01*
X0010086Y0035964D01*
X0010022Y0035932D01*
X0009957Y0035904D01*
X0009891Y0035879D01*
X0010424Y0032994D02*
X0010780Y0032994D01*
X0010780Y0032639D01*
X0010424Y0032639D01*
X0010424Y0032994D01*
X0009002Y0030286D02*
X0008647Y0030286D01*
X0008573Y0030284D01*
X0008498Y0030278D01*
X0008425Y0030268D01*
X0008351Y0030255D01*
X0008279Y0030238D01*
X0008208Y0030216D01*
X0008137Y0030192D01*
X0008069Y0030163D01*
X0008001Y0030131D01*
X0007936Y0030095D01*
X0007873Y0030057D01*
X0007811Y0030014D01*
X0007752Y0029969D01*
X0007695Y0029921D01*
X0007641Y0029870D01*
X0007590Y0029816D01*
X0007542Y0029759D01*
X0007497Y0029700D01*
X0007454Y0029638D01*
X0007416Y0029575D01*
X0007380Y0029510D01*
X0007348Y0029442D01*
X0007319Y0029374D01*
X0007295Y0029303D01*
X0007273Y0029232D01*
X0007256Y0029160D01*
X0007243Y0029086D01*
X0007233Y0029013D01*
X0007227Y0028938D01*
X0007225Y0028864D01*
X0007224Y0028864D02*
X0007224Y0026731D01*
X0009002Y0026731D01*
X0009085Y0026733D01*
X0009168Y0026739D01*
X0009251Y0026749D01*
X0009334Y0026762D01*
X0009415Y0026780D01*
X0009496Y0026801D01*
X0009575Y0026826D01*
X0009653Y0026855D01*
X0009730Y0026887D01*
X0009805Y0026923D01*
X0009879Y0026962D01*
X0009950Y0027005D01*
X0010020Y0027051D01*
X0010087Y0027101D01*
X0010152Y0027153D01*
X0010214Y0027208D01*
X0010274Y0027267D01*
X0010331Y0027328D01*
X0010385Y0027391D01*
X0010436Y0027457D01*
X0010483Y0027526D01*
X0010528Y0027596D01*
X0010569Y0027669D01*
X0010606Y0027743D01*
X0010641Y0027819D01*
X0010671Y0027897D01*
X0010698Y0027975D01*
X0010721Y0028056D01*
X0010741Y0028137D01*
X0010756Y0028219D01*
X0010768Y0028301D01*
X0010776Y0028384D01*
X0010780Y0028467D01*
X0010780Y0028551D01*
X0010776Y0028634D01*
X0010768Y0028717D01*
X0010756Y0028799D01*
X0010741Y0028881D01*
X0010721Y0028962D01*
X0010698Y0029043D01*
X0010671Y0029121D01*
X0010641Y0029199D01*
X0010606Y0029275D01*
X0010569Y0029349D01*
X0010528Y0029422D01*
X0010483Y0029492D01*
X0010436Y0029561D01*
X0010385Y0029627D01*
X0010331Y0029690D01*
X0010274Y0029751D01*
X0010214Y0029810D01*
X0010152Y0029865D01*
X0010087Y0029917D01*
X0010020Y0029967D01*
X0009950Y0030013D01*
X0009879Y0030056D01*
X0009805Y0030095D01*
X0009730Y0030131D01*
X0009653Y0030163D01*
X0009575Y0030192D01*
X0009496Y0030217D01*
X0009415Y0030238D01*
X0009334Y0030256D01*
X0009251Y0030269D01*
X0009168Y0030279D01*
X0009085Y0030285D01*
X0009002Y0030287D01*
X0007224Y0026731D02*
X0007118Y0026733D01*
X0007011Y0026739D01*
X0006906Y0026749D01*
X0006800Y0026763D01*
X0006695Y0026781D01*
X0006591Y0026802D01*
X0006488Y0026828D01*
X0006386Y0026857D01*
X0006285Y0026891D01*
X0006185Y0026928D01*
X0006087Y0026968D01*
X0005990Y0027013D01*
X0005895Y0027061D01*
X0005802Y0027112D01*
X0005711Y0027167D01*
X0005622Y0027225D01*
X0005535Y0027287D01*
X0005451Y0027351D01*
X0005369Y0027419D01*
X0005290Y0027490D01*
X0005213Y0027564D01*
X0005139Y0027641D01*
X0005068Y0027720D01*
X0005000Y0027802D01*
X0004936Y0027886D01*
X0004874Y0027973D01*
X0004816Y0028062D01*
X0004761Y0028153D01*
X0004710Y0028246D01*
X0004662Y0028341D01*
X0004617Y0028438D01*
X0004577Y0028536D01*
X0004540Y0028636D01*
X0004506Y0028737D01*
X0004477Y0028839D01*
X0004451Y0028942D01*
X0004430Y0029046D01*
X0004412Y0029151D01*
X0004398Y0029257D01*
X0004388Y0029362D01*
X0004382Y0029469D01*
X0004380Y0029575D01*
X0007580Y0038902D02*
X0007721Y0038900D01*
X0007861Y0038894D01*
X0008002Y0038885D01*
X0008142Y0038872D01*
X0008282Y0038855D01*
X0008421Y0038835D01*
X0008559Y0038810D01*
X0008697Y0038782D01*
X0008834Y0038751D01*
X0008971Y0038715D01*
X0009106Y0038676D01*
X0009240Y0038634D01*
X0009373Y0038588D01*
X0009505Y0038538D01*
X0009635Y0038485D01*
X0009764Y0038429D01*
X0009891Y0038369D01*
X0009891Y0044523D02*
X0009764Y0044583D01*
X0009635Y0044639D01*
X0009505Y0044692D01*
X0009373Y0044742D01*
X0009240Y0044788D01*
X0009106Y0044830D01*
X0008971Y0044869D01*
X0008834Y0044905D01*
X0008697Y0044936D01*
X0008559Y0044964D01*
X0008421Y0044989D01*
X0008282Y0045009D01*
X0008142Y0045026D01*
X0008002Y0045039D01*
X0007861Y0045048D01*
X0007721Y0045054D01*
X0007580Y0045056D01*
X0007580Y0041501D02*
X0007439Y0041503D01*
X0007299Y0041509D01*
X0007158Y0041518D01*
X0007018Y0041531D01*
X0006878Y0041548D01*
X0006739Y0041568D01*
X0006601Y0041593D01*
X0006463Y0041621D01*
X0006326Y0041652D01*
X0006189Y0041688D01*
X0006054Y0041727D01*
X0005920Y0041769D01*
X0005787Y0041815D01*
X0005655Y0041865D01*
X0005525Y0041918D01*
X0005396Y0041974D01*
X0005269Y0042034D01*
X0004380Y0043278D02*
X0004382Y0043349D01*
X0004388Y0043420D01*
X0004397Y0043490D01*
X0004411Y0043560D01*
X0004428Y0043629D01*
X0004448Y0043696D01*
X0004473Y0043763D01*
X0004501Y0043828D01*
X0004532Y0043892D01*
X0004567Y0043954D01*
X0004605Y0044014D01*
X0004646Y0044072D01*
X0004690Y0044127D01*
X0004738Y0044180D01*
X0004788Y0044230D01*
X0004840Y0044278D01*
X0004895Y0044323D01*
X0004953Y0044364D01*
X0005013Y0044403D01*
X0005074Y0044438D01*
X0005138Y0044470D01*
X0005203Y0044498D01*
X0005269Y0044523D01*
X0005802Y0044701D02*
X0009358Y0041856D01*
X0010780Y0043278D02*
X0010778Y0043349D01*
X0010772Y0043420D01*
X0010763Y0043490D01*
X0010749Y0043560D01*
X0010732Y0043629D01*
X0010712Y0043696D01*
X0010687Y0043763D01*
X0010659Y0043828D01*
X0010628Y0043892D01*
X0010593Y0043954D01*
X0010555Y0044014D01*
X0010514Y0044071D01*
X0010470Y0044127D01*
X0010422Y0044180D01*
X0010372Y0044230D01*
X0010320Y0044278D01*
X0010265Y0044323D01*
X0010207Y0044364D01*
X0010147Y0044403D01*
X0010086Y0044438D01*
X0010022Y0044470D01*
X0009957Y0044498D01*
X0009891Y0044523D01*
X0010780Y0043278D02*
X0010778Y0043207D01*
X0010772Y0043136D01*
X0010763Y0043066D01*
X0010749Y0042996D01*
X0010732Y0042927D01*
X0010712Y0042860D01*
X0010687Y0042793D01*
X0010659Y0042728D01*
X0010628Y0042664D01*
X0010593Y0042602D01*
X0010555Y0042542D01*
X0010514Y0042484D01*
X0010470Y0042429D01*
X0010422Y0042376D01*
X0010372Y0042326D01*
X0010320Y0042278D01*
X0010265Y0042233D01*
X0010207Y0042192D01*
X0010147Y0042153D01*
X0010086Y0042118D01*
X0010022Y0042086D01*
X0009957Y0042058D01*
X0009891Y0042033D01*
X0007580Y0035347D02*
X0007439Y0035349D01*
X0007299Y0035355D01*
X0007158Y0035364D01*
X0007018Y0035377D01*
X0006878Y0035394D01*
X0006739Y0035414D01*
X0006601Y0035439D01*
X0006463Y0035467D01*
X0006326Y0035498D01*
X0006189Y0035534D01*
X0006054Y0035573D01*
X0005920Y0035615D01*
X0005787Y0035661D01*
X0005655Y0035711D01*
X0005525Y0035764D01*
X0005396Y0035820D01*
X0005269Y0035880D01*
X0004380Y0037124D02*
X0004382Y0037195D01*
X0004388Y0037266D01*
X0004397Y0037336D01*
X0004411Y0037406D01*
X0004428Y0037475D01*
X0004448Y0037542D01*
X0004473Y0037609D01*
X0004501Y0037674D01*
X0004532Y0037738D01*
X0004567Y0037800D01*
X0004605Y0037860D01*
X0004646Y0037918D01*
X0004690Y0037973D01*
X0004738Y0038026D01*
X0004788Y0038076D01*
X0004840Y0038124D01*
X0004895Y0038169D01*
X0004953Y0038210D01*
X0005013Y0038249D01*
X0005074Y0038284D01*
X0005138Y0038316D01*
X0005203Y0038344D01*
X0005269Y0038369D01*
X0004380Y0037124D02*
X0004382Y0037053D01*
X0004388Y0036982D01*
X0004397Y0036912D01*
X0004411Y0036842D01*
X0004428Y0036773D01*
X0004448Y0036706D01*
X0004473Y0036639D01*
X0004501Y0036574D01*
X0004532Y0036510D01*
X0004567Y0036448D01*
X0004605Y0036388D01*
X0004646Y0036330D01*
X0004690Y0036275D01*
X0004738Y0036222D01*
X0004788Y0036172D01*
X0004840Y0036124D01*
X0004895Y0036079D01*
X0004953Y0036038D01*
X0005013Y0035999D01*
X0005074Y0035964D01*
X0005138Y0035932D01*
X0005203Y0035904D01*
X0005269Y0035879D01*
X0005269Y0044523D02*
X0005396Y0044583D01*
X0005525Y0044639D01*
X0005655Y0044692D01*
X0005787Y0044742D01*
X0005920Y0044788D01*
X0006054Y0044830D01*
X0006189Y0044869D01*
X0006326Y0044905D01*
X0006463Y0044936D01*
X0006601Y0044964D01*
X0006739Y0044989D01*
X0006878Y0045009D01*
X0007018Y0045026D01*
X0007158Y0045039D01*
X0007299Y0045048D01*
X0007439Y0045054D01*
X0007580Y0045056D01*
X0004380Y0043278D02*
X0004382Y0043207D01*
X0004388Y0043136D01*
X0004397Y0043066D01*
X0004411Y0042996D01*
X0004428Y0042927D01*
X0004448Y0042860D01*
X0004473Y0042793D01*
X0004501Y0042728D01*
X0004532Y0042664D01*
X0004567Y0042602D01*
X0004605Y0042542D01*
X0004646Y0042484D01*
X0004690Y0042429D01*
X0004738Y0042376D01*
X0004788Y0042326D01*
X0004840Y0042278D01*
X0004895Y0042233D01*
X0004953Y0042192D01*
X0005013Y0042153D01*
X0005074Y0042118D01*
X0005138Y0042086D01*
X0005203Y0042058D01*
X0005269Y0042033D01*
X0010780Y0024132D02*
X0010780Y0020577D01*
X0010780Y0022355D02*
X0004380Y0022355D01*
X0005802Y0020577D01*
X0030861Y0023815D02*
X0031350Y0023947D01*
X0039750Y0034747D02*
X0042150Y0034747D01*
X0042412Y0035252D01*
X0042150Y0040147D02*
X0042412Y0040252D01*
X0031350Y0038947D02*
X0030901Y0038776D01*
D13*
X0030901Y0038776D03*
X0030901Y0032083D03*
X0030861Y0023815D03*
X0030861Y0017122D03*
D14*
X0042712Y0048453D02*
X0042712Y0054453D01*
X0052712Y0054453D02*
X0052712Y0048453D01*
X0062712Y0048453D02*
X0062712Y0054453D01*
D15*
X0063012Y0040252D03*
X0063012Y0035252D03*
X0063012Y0030252D03*
X0063012Y0025252D03*
X0042412Y0025252D03*
X0042412Y0030252D03*
X0042412Y0035252D03*
X0042412Y0040252D03*
D16*
X0042150Y0040147D02*
X0040778Y0038776D01*
X0030901Y0038776D01*
X0038312Y0046187D01*
X0038312Y0056275D01*
X0040889Y0058853D01*
X0054534Y0058853D01*
X0061934Y0051453D01*
X0062712Y0051453D01*
X0052712Y0051453D02*
X0052712Y0033022D01*
X0047342Y0027652D01*
X0044812Y0027652D01*
X0042412Y0025252D01*
X0038991Y0025252D01*
X0030861Y0017122D01*
X0030861Y0017701D01*
X0027493Y0021070D01*
X0027493Y0028675D01*
X0030901Y0032083D01*
X0036662Y0032032D02*
X0036662Y0029615D01*
X0030861Y0023815D01*
X0036662Y0032032D02*
X0039882Y0035252D01*
X0042412Y0035252D01*
X0044812Y0032652D02*
X0042412Y0030252D01*
X0044812Y0032652D02*
X0047342Y0032652D01*
X0048162Y0033472D01*
X0048162Y0042032D01*
X0042712Y0047482D01*
X0042712Y0051453D01*
X0063012Y0040252D02*
X0063012Y0035252D01*
X0063012Y0030252D01*
X0063012Y0025252D01*
X0042412Y0025252D01*
M02*
